%TF.GenerationSoftware,Altium Limited,Altium Designer,22.7.1 (60)*%
G04 Layer_Color=65535*
%FSLAX45Y45*%
%MOMM*%
%TF.SameCoordinates,889419F2-2602-4259-AB3C-8922443444C0*%
%TF.FilePolarity,Positive*%
%TF.FileFunction,Legend,Top*%
%TF.Part,Single*%
G01*
G75*
%TA.AperFunction,NonConductor*%
%ADD56C,0.10000*%
%ADD57C,0.12500*%
%ADD66C,0.25000*%
%ADD67C,0.25400*%
%ADD68C,0.30000*%
%ADD69C,0.20000*%
%ADD70C,0.17500*%
%ADD71R,0.30000X0.30000*%
G36*
X1909757Y1592547D02*
X1924758Y1577547D01*
X1939758Y1592547D01*
X1909757D01*
D02*
G37*
G36*
X2291954Y2136617D02*
X2321104D01*
X2298062Y2117183D01*
X2306946Y2088033D01*
X2281127Y2104968D01*
X2255308Y2088033D01*
X2264192Y2117183D01*
X2241149Y2136617D01*
X2270577D01*
X2281404Y2164934D01*
X2291954Y2136617D01*
D02*
G37*
G36*
X2243541Y1860519D02*
X2312138Y1897160D01*
X2282341Y1822464D01*
X2339888Y1765034D01*
X2257843Y1772432D01*
X2218373Y1700127D01*
X2202637Y1779891D01*
X2123986Y1796659D01*
X2193236Y1833649D01*
X2183121Y1913895D01*
X2243541Y1860519D01*
D02*
G37*
G36*
X2139107Y2027892D02*
X2176525Y2017311D01*
X2139894Y2000730D01*
X2140717Y1960087D01*
X2113722Y1991196D01*
X2074434Y1978829D01*
X2096418Y2013023D01*
X2073893Y2046331D01*
X2111667Y2035650D01*
X2135843Y2068069D01*
X2139107Y2027892D01*
D02*
G37*
D56*
X170924Y1135754D02*
X281005D01*
X298057Y1136402D02*
X317699D01*
X333024D02*
X336478D01*
X375398Y1115467D02*
X397017Y1137086D01*
X374628Y1159490D02*
X397032Y1137086D01*
X354921D02*
X397032D01*
X247676Y1358778D02*
X643441D01*
X217680Y1358537D02*
X229991D01*
X169178Y1358339D02*
X198316D01*
X1977258Y1632547D02*
Y1685047D01*
X1924758D02*
X1977258D01*
X1924758Y1485047D02*
X1977258D01*
Y1537547D01*
X1777258Y1485047D02*
Y1537547D01*
Y1485047D02*
X1829758D01*
X1777258Y1685047D02*
X1829758D01*
X1777258Y1632547D02*
Y1685047D01*
D57*
X1673655Y2689738D02*
X1665325Y2681408D01*
Y2664747D01*
X1673655Y2656416D01*
X1706978D01*
X1715308Y2664747D01*
Y2681408D01*
X1706978Y2689738D01*
X1665325Y2706399D02*
X1715308D01*
X1690316D01*
Y2739722D01*
X1665325D01*
X1715308D01*
X1673655Y2789706D02*
X1665325Y2781375D01*
Y2764714D01*
X1673655Y2756383D01*
X1706978D01*
X1715308Y2764714D01*
Y2781375D01*
X1706978Y2789706D01*
X1690316D01*
Y2773044D01*
X2046564Y3180826D02*
Y3230810D01*
X2071556D01*
X2079887Y3222479D01*
Y3205818D01*
X2071556Y3197487D01*
X2046564D01*
X2129871Y3222479D02*
X2121540Y3230810D01*
X2104879D01*
X2096548Y3222479D01*
Y3189157D01*
X2104879Y3180826D01*
X2121540D01*
X2129871Y3189157D01*
Y3205818D01*
X2113209D01*
X318422Y1069077D02*
X285100D01*
Y1044085D01*
X301761D01*
X285100D01*
Y1019093D01*
X368406Y1069077D02*
X335083D01*
Y1019093D01*
X368406D01*
X335083Y1044085D02*
X351744D01*
X385067Y1069077D02*
Y1019093D01*
X410059D01*
X418389Y1027424D01*
Y1035755D01*
X410059Y1044085D01*
X385067D01*
X410059D01*
X418389Y1052416D01*
Y1060747D01*
X410059Y1069077D01*
X385067D01*
X518357Y1019093D02*
X485034D01*
X518357Y1052416D01*
Y1060747D01*
X510026Y1069077D01*
X493365D01*
X485034Y1060747D01*
X535018D02*
X543348Y1069077D01*
X560010D01*
X568340Y1060747D01*
Y1027424D01*
X560010Y1019093D01*
X543348D01*
X535018Y1027424D01*
Y1060747D01*
X618324Y1019093D02*
X585001D01*
X618324Y1052416D01*
Y1060747D01*
X609993Y1069077D01*
X593332D01*
X585001Y1060747D01*
X668308Y1069077D02*
X634985D01*
Y1044085D01*
X651646Y1052416D01*
X659977D01*
X668308Y1044085D01*
Y1027424D01*
X659977Y1019093D01*
X643316D01*
X634985Y1027424D01*
X429388Y1108324D02*
Y1158308D01*
X454380D01*
X462711Y1149977D01*
Y1133316D01*
X454380Y1124985D01*
X429388D01*
X446049D02*
X462711Y1108324D01*
X512694Y1158308D02*
X479372D01*
Y1108324D01*
X512694D01*
X479372Y1133316D02*
X496033D01*
X529355Y1158308D02*
Y1124985D01*
X546016Y1108324D01*
X562678Y1124985D01*
Y1158308D01*
X629323Y1108324D02*
Y1141646D01*
X645984Y1158308D01*
X662645Y1141646D01*
Y1108324D01*
Y1133316D01*
X629323D01*
D66*
X1514758Y3527547D02*
G03*
X1514758Y3527547I-12500J0D01*
G01*
X1690258Y2982548D02*
G03*
X1690258Y2982548I-12500J0D01*
G01*
X2828758Y3057547D02*
G03*
X2828758Y3057547I-12500J0D01*
G01*
D67*
X188021Y981265D02*
X250000D01*
X188021Y1100000D02*
X250000D01*
Y981265D02*
Y1100000D01*
X188021Y981265D02*
Y1100000D01*
D68*
X177257Y3035047D02*
X1077258D01*
X1152258Y3110047D01*
X102258D02*
X177257Y3035047D01*
X102258Y3110047D02*
Y3760047D01*
X1152258Y3110047D02*
Y3760047D01*
X1092258Y1210047D02*
X1142258D01*
X1092258D02*
Y1260047D01*
X852254Y2386182D02*
Y2472823D01*
X272473Y1307818D02*
X205828D01*
Y1257834D01*
X239151D01*
X205828D01*
Y1207851D01*
X305796D02*
Y1307818D01*
X355780D01*
X372441Y1291157D01*
Y1257834D01*
X355780Y1241173D01*
X305796D01*
X339119D02*
X372441Y1207851D01*
X405764Y1307818D02*
X439086D01*
X422425D01*
Y1207851D01*
X405764D01*
X439086D01*
X489070Y1307818D02*
Y1207851D01*
X539054D01*
X555715Y1224512D01*
Y1291157D01*
X539054Y1307818D01*
X489070D01*
X589038Y1207851D02*
Y1274496D01*
X622361Y1307818D01*
X655683Y1274496D01*
Y1207851D01*
Y1257834D01*
X589038D01*
D69*
X2631258Y1130047D02*
X2761258D01*
Y1260047D01*
X1599758Y3515047D02*
X1829758D01*
X1599758Y3205047D02*
X1829758D01*
X2782258Y2164047D02*
Y2294047D01*
X2652258D02*
X2782258D01*
X1172257Y2550047D02*
X1632258D01*
X1172257D02*
Y2870048D01*
X1632258Y2550047D02*
Y2820047D01*
X1582257Y2870048D02*
X1632258Y2820047D01*
X1172257Y2870048D02*
X1582257D01*
X2147258Y2595047D02*
Y2925047D01*
X2807258Y2595047D02*
Y2925047D01*
X2147258Y2595047D02*
X2807258D01*
X2147258Y2925047D02*
X2807258D01*
X312973Y1883120D02*
X402258D01*
X312973Y1760047D02*
Y1883120D01*
X2657915Y1410047D02*
X2604599D01*
X2631257Y1383389D02*
Y1436705D01*
X2403915Y1410047D02*
X2350599D01*
X2189903Y1370059D02*
X2136587D01*
X2163245D01*
Y1450033D01*
X2109929Y1370059D02*
X2056613Y1450033D01*
Y1370059D02*
X2109929Y1450033D01*
X2502258Y1936705D02*
Y1883389D01*
X2502257Y2190705D02*
Y2137389D01*
X2528915Y2164047D02*
X2475599D01*
X2542246Y1722693D02*
Y1669377D01*
Y1696035D01*
X2462271D01*
X2542246Y1642719D02*
X2462271Y1589403D01*
X2542246D02*
X2462271Y1642719D01*
D70*
X1747258Y2915047D02*
X1837258D01*
X1747258D02*
Y3155047D01*
X1837258D01*
X1747258Y2640047D02*
X1837258D01*
X1747258D02*
Y2880047D01*
X1837258D01*
D71*
X1987214Y1694984D02*
D03*
%TF.MD5,df3723e32a8abbf602b3cc568505c3a1*%
M02*
