%TF.GenerationSoftware,Altium Limited,Altium Designer,22.7.1 (60)*%
G04 Layer_Color=16711935*
%FSLAX45Y45*%
%MOMM*%
%TF.SameCoordinates,889419F2-2602-4259-AB3C-8922443444C0*%
%TF.FilePolarity,Negative*%
%TF.FileFunction,Soldermask,Bot*%
%TF.Part,Single*%
G01*
G75*
%TA.AperFunction,SMDPad,CuDef*%
%ADD58R,1.64000X1.14000*%
%ADD59R,1.14000X1.64000*%
%TA.AperFunction,ComponentPad*%
%ADD60C,1.20000*%
%ADD61O,1.10000X2.30000*%
%ADD62O,1.10000X2.00000*%
%TA.AperFunction,WasherPad*%
%ADD63C,3.20320*%
%TA.AperFunction,ComponentPad*%
%ADD64C,1.72720*%
%ADD65C,2.70320*%
D58*
X2102258Y1910047D02*
D03*
Y1780047D02*
D03*
Y2080047D02*
D03*
Y2210047D02*
D03*
X2402258Y2080047D02*
D03*
Y2210047D02*
D03*
X2402257Y1910047D02*
D03*
Y1780047D02*
D03*
D59*
X1643042Y1889263D02*
D03*
X1513042D02*
D03*
X1652258Y1085047D02*
D03*
X1782258D02*
D03*
D60*
X337258Y3275047D02*
D03*
X917258D02*
D03*
D61*
X1059758Y3225047D02*
D03*
X194758D02*
D03*
D62*
Y3645047D02*
D03*
X1059758D02*
D03*
D63*
X400000Y800000D02*
D03*
X2500000D02*
D03*
D64*
X2631258Y1260047D02*
D03*
X2377258D02*
D03*
X2123258D02*
D03*
X2652258Y2164047D02*
D03*
Y1910047D02*
D03*
Y1656047D02*
D03*
D65*
X1427258Y3710047D02*
D03*
X1777258D02*
D03*
%TF.MD5,0e1d1fd7d45f41882a4ec2bf3d1188fb*%
M02*
