%TF.GenerationSoftware,Altium Limited,Altium Designer,22.7.1 (60)*%
G04 Layer_Color=32896*
%FSLAX45Y45*%
%MOMM*%
%TF.SameCoordinates,1A5FE687-02E9-4ECA-85C8-40D928D14E81*%
%TF.FilePolarity,Positive*%
%TF.FileFunction,Legend,Bot*%
%TF.Part,Single*%
G01*
G75*
%TA.AperFunction,NonConductor*%
%ADD56C,0.10000*%
%ADD57C,0.12500*%
G36*
X2005072Y426323D02*
X2011088Y424934D01*
X2016641Y423083D01*
X2021269Y421232D01*
X2024972Y419381D01*
X2027748Y417530D01*
X2029599Y416141D01*
X2030062Y415679D01*
X2034227Y411051D01*
X2037467Y406423D01*
X2039318Y401332D01*
X2041169Y396704D01*
X2042095Y392539D01*
X2042558Y389300D01*
Y386986D01*
Y386060D01*
X2042095Y379581D01*
X2040706Y374028D01*
X2038855Y369400D01*
X2036541Y365235D01*
X2034227Y361995D01*
X2032376Y359218D01*
X2030988Y357830D01*
X2030525Y357367D01*
X2025434Y353665D01*
X2020344Y351351D01*
X2015253Y349500D01*
X2010162Y348112D01*
X2005997Y347186D01*
X2002758Y346723D01*
X1999518D01*
X1993039Y347186D01*
X1986560Y348574D01*
X1981469Y350426D01*
X1976842Y352277D01*
X1973139Y354128D01*
X1970363Y355979D01*
X1968511Y357367D01*
X1968049Y357830D01*
X1963421Y362458D01*
X1960181Y367086D01*
X1957867Y372177D01*
X1956479Y376804D01*
X1955091Y380970D01*
X1954628Y384209D01*
Y386060D01*
Y386986D01*
X1955091Y393465D01*
X1956479Y399018D01*
X1958330Y403646D01*
X1960644Y407811D01*
X1962958Y411051D01*
X1964809Y413827D01*
X1966197Y415216D01*
X1966660Y415679D01*
X1971288Y419381D01*
X1976842Y422158D01*
X1981932Y424009D01*
X1987023Y425397D01*
X1991651Y426323D01*
X1995353Y426786D01*
X1998593D01*
X2005072Y426323D01*
D02*
G37*
G36*
X720835Y426322D02*
X726851Y424934D01*
X732405Y423083D01*
X737033Y421232D01*
X740735Y419381D01*
X743512Y417530D01*
X745363Y416141D01*
X745826Y415678D01*
X749991Y411050D01*
X753230Y406423D01*
X755081Y401332D01*
X756932Y396704D01*
X757858Y392539D01*
X758321Y389299D01*
Y386986D01*
Y386060D01*
X757858Y379581D01*
X756470Y374027D01*
X754619Y369400D01*
X752305Y365234D01*
X749991Y361995D01*
X748139Y359218D01*
X746751Y357830D01*
X746288Y357367D01*
X741198Y353665D01*
X736107Y351351D01*
X731016Y349500D01*
X725926Y348111D01*
X721761Y347186D01*
X718521Y346723D01*
X715282D01*
X708802Y347186D01*
X702323Y348574D01*
X697233Y350425D01*
X692605Y352276D01*
X688903Y354128D01*
X686126Y355979D01*
X684275Y357367D01*
X683812Y357830D01*
X679184Y362458D01*
X675945Y367086D01*
X673631Y372176D01*
X672242Y376804D01*
X670854Y380969D01*
X670391Y384209D01*
Y386060D01*
Y386986D01*
X670854Y393465D01*
X672242Y399018D01*
X674093Y403646D01*
X676407Y407811D01*
X678721Y411050D01*
X680572Y413827D01*
X681961Y415216D01*
X682424Y415678D01*
X687051Y419381D01*
X692605Y422157D01*
X697696Y424009D01*
X702786Y425397D01*
X707414Y426322D01*
X711116Y426785D01*
X714356D01*
X720835Y426322D01*
D02*
G37*
G36*
X1806073Y281933D02*
X1855128D01*
X1816717Y249537D01*
X1831526Y200945D01*
X1788487Y229175D01*
X1745448Y200945D01*
X1760257Y249537D01*
X1721845Y281933D01*
X1770438D01*
X1788024Y329137D01*
X1806073Y281933D01*
D02*
G37*
G36*
X1093842D02*
X1142898D01*
X1104486Y249537D01*
X1119295Y200945D01*
X1076256Y229175D01*
X1033217Y200945D01*
X1048026Y249537D01*
X1009615Y281933D01*
X1058207D01*
X1075793Y329137D01*
X1093842Y281933D01*
D02*
G37*
G36*
X2136503Y246761D02*
X2168436D01*
X2143445Y225010D01*
X2153164Y193540D01*
X2124934Y212052D01*
X2096704Y193540D01*
X2105959Y225010D01*
X2081432Y246761D01*
X2112901D01*
X2124471Y276379D01*
X2136503Y246761D01*
D02*
G37*
G36*
X852267Y246761D02*
X884199D01*
X859209Y225010D01*
X868927Y193540D01*
X840697Y212052D01*
X812467Y193540D01*
X821723Y225010D01*
X797195Y246761D01*
X828665D01*
X840234Y276379D01*
X852267Y246761D01*
D02*
G37*
G36*
X1477956Y322195D02*
X1583009D01*
X1585786Y312477D01*
X1503409Y244910D01*
X1537656Y131064D01*
X1528863Y126899D01*
X1433529Y192152D01*
X1338194Y127361D01*
X1329401Y131527D01*
X1363648Y245372D01*
X1280808Y313402D01*
X1284511Y321732D01*
X1388638D01*
X1427049Y421232D01*
X1440008D01*
X1477956Y322195D01*
D02*
G37*
G36*
X1668733Y3122233D02*
X1609134D01*
X1608495Y3123085D01*
X1607218Y3124788D01*
X1605728Y3126703D01*
X1603174Y3130535D01*
Y3133302D01*
X1668733D01*
Y3122233D01*
D02*
G37*
G36*
X1505688Y3133089D02*
X1504836Y3130535D01*
X1504198Y3128406D01*
X1503772Y3127342D01*
X1503559Y3126703D01*
X1503346Y3126277D01*
Y3126065D01*
X1502495Y3123510D01*
X1501857Y3121169D01*
X1501644Y3120105D01*
X1501431Y3119466D01*
X1501218Y3119040D01*
Y3118828D01*
X1500367Y3116061D01*
X1500099Y3114902D01*
X1498025Y3114996D01*
X1493342Y3115422D01*
X1492917D01*
X1491640Y3115635D01*
X1489724Y3115848D01*
X1488384Y3115959D01*
X1488447Y3116273D01*
X1489085Y3118189D01*
X1489298Y3119466D01*
X1489724Y3120530D01*
Y3120743D01*
X1490788Y3126065D01*
X1491214Y3128406D01*
X1491427Y3130535D01*
X1491852Y3132237D01*
Y3133727D01*
X1492065Y3134579D01*
Y3134792D01*
X1505688Y3133089D01*
D02*
G37*
G36*
X1551664Y3105205D02*
X1545278Y3104779D01*
X1539318Y3104354D01*
X1533784Y3103928D01*
X1528676Y3103715D01*
X1524632D01*
X1522929Y3103502D01*
X1512925D01*
X1507604Y3103715D01*
X1502708Y3103928D01*
X1498664Y3104141D01*
X1496961D01*
X1497174Y3104779D01*
X1498025Y3107546D01*
X1499089Y3110739D01*
Y3110952D01*
X1499302Y3111378D01*
X1499515Y3112229D01*
X1499728Y3113293D01*
X1500099Y3114902D01*
X1502708Y3114783D01*
X1507391D01*
X1511648Y3114571D01*
X1520800D01*
X1526547Y3114783D01*
X1532082Y3115209D01*
X1537403Y3115422D01*
X1542298Y3115848D01*
X1544427Y3116061D01*
X1546555Y3116273D01*
X1548258Y3116486D01*
X1549748Y3116699D01*
X1550812D01*
X1551664Y3116912D01*
X1552515D01*
X1551664Y3105205D01*
D02*
G37*
G36*
X2264505Y3129683D02*
X2265570Y3129470D01*
X2266421Y3129257D01*
X2266847D01*
X2268549Y3129045D01*
X2270039Y3128832D01*
X2271317Y3128619D01*
X2271742D01*
X2272806Y3128406D01*
X2274084D01*
X2276851Y3127980D01*
X2277915D01*
X2278979Y3127767D01*
X2279831D01*
X2283662Y3127555D01*
X2285578Y3127342D01*
X2287280D01*
X2288983Y3127129D01*
X2291112D01*
X2295582Y3126916D01*
X2297710D01*
X2299413Y3126703D01*
X2301116D01*
X2302180Y3126490D01*
X2303244D01*
X2307501Y3126277D01*
X2310694D01*
X2312184Y3126065D01*
X2327509D01*
X2329638Y3126277D01*
X2331554Y3126490D01*
X2332831Y3126703D01*
X2333256D01*
X2332618Y3113719D01*
X2330702D01*
X2328787Y3113932D01*
X2327297Y3114145D01*
X2326871D01*
X2324530Y3114358D01*
X2322401Y3114571D01*
X2321762Y3114783D01*
X2320485D01*
X2318570Y3114996D01*
X2316654D01*
X2315803Y3115209D01*
X2314313D01*
X2311120Y3115422D01*
X2307927D01*
X2306863Y3115635D01*
X2304947D01*
X2301116Y3115848D01*
X2297710D01*
X2296433Y3116061D01*
X2294517D01*
X2290899Y3116273D01*
X2287919D01*
X2286642Y3116486D01*
X2285152D01*
X2282385Y3116699D01*
X2280256Y3116912D01*
X2278766D01*
X2280256Y3115635D01*
X2281959Y3114145D01*
X2285152Y3111378D01*
X2286642Y3110314D01*
X2287706Y3109249D01*
X2288558Y3108611D01*
X2288770Y3108398D01*
X2293453Y3104354D01*
X2295794Y3102438D01*
X2297923Y3100522D01*
X2299626Y3099032D01*
X2301116Y3097755D01*
X2301967Y3096904D01*
X2302393Y3096691D01*
X2307927Y3092221D01*
X2310481Y3090093D01*
X2312823Y3088390D01*
X2314738Y3086687D01*
X2316228Y3085623D01*
X2317080Y3084771D01*
X2317505Y3084558D01*
X2320272Y3082430D01*
X2322827Y3080514D01*
X2325168Y3078599D01*
X2327084Y3077109D01*
X2328787Y3075832D01*
X2330064Y3074980D01*
X2330915Y3074342D01*
X2331128Y3074129D01*
X2335811Y3073703D01*
X2338152Y3073277D01*
X2340281Y3073064D01*
X2342196Y3072852D01*
X2343686D01*
X2344538Y3072639D01*
X2344963D01*
X2347730Y3072426D01*
X2350285Y3072000D01*
X2352626Y3071787D01*
X2354542Y3071575D01*
X2356244Y3071362D01*
X2357522Y3071149D01*
X2358373Y3070936D01*
X2358586D01*
X2357522Y3059016D01*
X2352200Y3059868D01*
X2346879Y3060719D01*
X2341983Y3061358D01*
X2337513Y3061996D01*
X2335385Y3062209D01*
X2333682Y3062422D01*
X2331979Y3062635D01*
X2330702Y3062848D01*
X2329638D01*
X2328787Y3063060D01*
X2328148D01*
X2322614Y3063699D01*
X2317505Y3064338D01*
X2312823Y3064763D01*
X2308566Y3065189D01*
X2305160Y3065615D01*
X2303883Y3065827D01*
X2302606D01*
X2301754Y3066040D01*
X2300477D01*
X2303457Y3063912D01*
X2306011Y3061783D01*
X2307076Y3060719D01*
X2307927Y3059868D01*
X2308566Y3059442D01*
X2308778Y3059229D01*
X2311758Y3055823D01*
X2313887Y3052418D01*
X2314738Y3050928D01*
X2315377Y3049864D01*
X2315803Y3049012D01*
X2316015Y3048799D01*
X2316867Y3046458D01*
X2317505Y3044329D01*
X2318144Y3042201D01*
X2318357Y3040285D01*
X2318570Y3038582D01*
X2318783Y3037092D01*
Y3036241D01*
Y3036028D01*
X2318570Y3032623D01*
X2318144Y3029643D01*
X2317293Y3026663D01*
X2316441Y3024109D01*
X2315164Y3021554D01*
X2313887Y3019426D01*
X2312610Y3017297D01*
X2311120Y3015594D01*
X2309630Y3013892D01*
X2308353Y3012614D01*
X2307076Y3011337D01*
X2305799Y3010486D01*
X2304947Y3009635D01*
X2304096Y3009209D01*
X2303670Y3008996D01*
X2303457Y3008783D01*
X2300477Y3007293D01*
X2297072Y3006016D01*
X2290047Y3003888D01*
X2282598Y3002610D01*
X2275361Y3001759D01*
X2271955Y3001546D01*
X2268975Y3001333D01*
X2258971D01*
X2256204Y3014104D01*
X2259610Y3013892D01*
X2262802Y3013679D01*
X2266208D01*
X2270678Y3013892D01*
X2272806D01*
X2274935Y3014104D01*
X2276638Y3014317D01*
X2277915D01*
X2278766Y3014530D01*
X2279192D01*
X2284300Y3015594D01*
X2286429Y3016020D01*
X2288558Y3016659D01*
X2290260Y3017084D01*
X2291537Y3017510D01*
X2292389Y3017936D01*
X2292602D01*
X2294730Y3019000D01*
X2296859Y3020064D01*
X2298562Y3021341D01*
X2299839Y3022619D01*
X2301116Y3023470D01*
X2301967Y3024321D01*
X2302393Y3024960D01*
X2302606Y3025173D01*
X2303883Y3027088D01*
X2304734Y3029217D01*
X2305586Y3031345D01*
X2306011Y3033261D01*
X2306224Y3035177D01*
X2306437Y3036667D01*
Y3037518D01*
Y3037944D01*
X2306224Y3040072D01*
X2306011Y3041988D01*
X2305586Y3043904D01*
X2305160Y3045394D01*
X2304734Y3046671D01*
X2304309Y3047735D01*
X2303883Y3048374D01*
Y3048586D01*
X2301754Y3052205D01*
X2300690Y3053695D01*
X2299413Y3055185D01*
X2298562Y3056249D01*
X2297710Y3057101D01*
X2297284Y3057526D01*
X2297072Y3057739D01*
X2293666Y3060506D01*
X2290473Y3062635D01*
X2289196Y3063486D01*
X2288132Y3064125D01*
X2287493Y3064338D01*
X2287280Y3064550D01*
X2283236Y3066253D01*
X2281321Y3066892D01*
X2279618Y3067317D01*
X2278128Y3067743D01*
X2277064Y3067956D01*
X2276212Y3068169D01*
X2275999D01*
X2273232Y3068595D01*
X2270039Y3068807D01*
X2267059Y3069020D01*
X2264292D01*
X2261951Y3069233D01*
X2246200D01*
X2242794Y3069020D01*
X2239814D01*
X2237473Y3068807D01*
X2235557D01*
Y3080514D01*
X2244284D01*
X2248328Y3080301D01*
X2252160D01*
X2255353Y3080089D01*
X2257907D01*
X2258758Y3079876D01*
X2260035D01*
X2264718Y3079663D01*
X2269401Y3079450D01*
X2273871Y3079024D01*
X2277702Y3078811D01*
X2281108Y3078599D01*
X2282598Y3078386D01*
X2284726D01*
X2285365Y3078173D01*
X2286003D01*
X2290899Y3077747D01*
X2295582Y3077534D01*
X2299839Y3077109D01*
X2303457Y3076896D01*
X2306650Y3076470D01*
X2307927D01*
X2308991Y3076257D01*
X2309843D01*
X2310481Y3076044D01*
X2311120D01*
X2308140Y3078386D01*
X2305373Y3080514D01*
X2304309Y3081579D01*
X2303457Y3082217D01*
X2302819Y3082643D01*
X2302606Y3082856D01*
X2298987Y3085836D01*
X2297284Y3087326D01*
X2295582Y3088603D01*
X2294305Y3089667D01*
X2293240Y3090518D01*
X2292602Y3090944D01*
X2292389Y3091157D01*
X2288558Y3094350D01*
X2286642Y3095840D01*
X2285152Y3097117D01*
X2283875Y3098394D01*
X2282811Y3099245D01*
X2282172Y3099671D01*
X2281959Y3099884D01*
X2278128Y3103077D01*
X2276425Y3104567D01*
X2274935Y3105631D01*
X2273658Y3106695D01*
X2272806Y3107546D01*
X2272168Y3107972D01*
X2271955Y3108185D01*
X2268762Y3110952D01*
X2267272Y3112016D01*
X2265995Y3113081D01*
X2265144Y3113932D01*
X2264292Y3114571D01*
X2263867Y3114783D01*
X2263654Y3114996D01*
X2262164Y3116061D01*
X2260887Y3117125D01*
X2259823Y3117976D01*
X2259397Y3118189D01*
X2257481Y3119253D01*
X2256204Y3120318D01*
X2255353Y3120743D01*
X2255140Y3120956D01*
X2263228Y3129896D01*
X2264505Y3129683D01*
D02*
G37*
G36*
X2169999Y3132024D02*
X2169786Y3129896D01*
Y3129257D01*
Y3128619D01*
Y3128193D01*
Y3127980D01*
X2169573Y3125852D01*
Y3124149D01*
Y3122872D01*
Y3122659D01*
Y3122446D01*
Y3121595D01*
Y3120743D01*
X2169786Y3118615D01*
Y3117551D01*
X2169999Y3116699D01*
Y3116061D01*
Y3115848D01*
X2170212Y3112016D01*
Y3110101D01*
X2170425Y3108398D01*
Y3107303D01*
X2171702Y3107121D01*
X2172979Y3106908D01*
X2174043Y3106695D01*
X2174682Y3106482D01*
X2174895D01*
X2178726Y3106057D01*
X2180429Y3105844D01*
X2181919Y3105631D01*
X2183196Y3105418D01*
X2184260D01*
X2184899Y3105205D01*
X2185111D01*
X2188304Y3104992D01*
X2189794Y3104779D01*
X2190858D01*
X2191923Y3104567D01*
X2193200D01*
X2195115Y3104354D01*
X2203630D01*
X2202352Y3091370D01*
X2198947Y3091795D01*
X2195967Y3092221D01*
X2194690Y3092434D01*
X2193626Y3092647D01*
X2192774D01*
X2188943Y3093285D01*
X2187453Y3093498D01*
X2185750Y3093711D01*
X2184686Y3093924D01*
X2183621Y3094137D01*
X2182770D01*
X2179364Y3094563D01*
X2177874Y3094775D01*
X2176597Y3094988D01*
X2175533D01*
X2174682Y3095201D01*
X2174043D01*
X2171489Y3095627D01*
X2171188Y3095660D01*
X2171063Y3096904D01*
Y3099245D01*
X2170638Y3104354D01*
Y3104567D01*
Y3105418D01*
X2170425Y3106695D01*
Y3107303D01*
X2170212Y3107334D01*
X2168509Y3107546D01*
X2164891Y3108185D01*
X2164678D01*
X2164039Y3108398D01*
X2163188Y3108611D01*
X2162123Y3108824D01*
X2159782Y3109249D01*
X2158487Y3109602D01*
X2158718Y3107759D01*
Y3107334D01*
X2158931Y3106269D01*
Y3104354D01*
X2159144Y3102012D01*
X2159569Y3099032D01*
X2159782Y3095840D01*
X2159933Y3093272D01*
X2160633Y3092221D01*
X2161485Y3090731D01*
X2162549Y3089028D01*
X2164495Y3080484D01*
X2164465Y3080514D01*
X2163188Y3081791D01*
X2160668Y3084143D01*
X2160633Y3084558D01*
Y3086687D01*
X2160421Y3087964D01*
Y3088177D01*
Y3088390D01*
X2159995Y3092221D01*
X2159933Y3093272D01*
X2159782Y3093498D01*
X2159569Y3093711D01*
Y3093924D01*
X2158292Y3096052D01*
X2157228Y3097968D01*
X2156376Y3099245D01*
X2156164Y3099458D01*
Y3099671D01*
X2154886Y3101587D01*
X2153822Y3103077D01*
X2153184Y3103928D01*
X2152971Y3104354D01*
X2157441Y3109888D01*
X2158487Y3109602D01*
X2158292Y3111165D01*
X2158079Y3114145D01*
X2157866Y3116912D01*
X2157441Y3119253D01*
X2157228Y3121169D01*
Y3122446D01*
X2157015Y3123510D01*
Y3123723D01*
X2156589Y3126065D01*
X2156376Y3128193D01*
X2155951Y3129896D01*
X2155738Y3131386D01*
X2155525Y3132450D01*
Y3133089D01*
X2155312Y3133514D01*
Y3133727D01*
X2170212Y3134153D01*
X2169999Y3132024D01*
D02*
G37*
G36*
X1710451Y3132876D02*
X1711303Y3128619D01*
X1711941Y3125000D01*
X1712580Y3121595D01*
X1713006Y3120318D01*
X1713219Y3119253D01*
X1713431Y3118189D01*
Y3117551D01*
X1713644Y3117125D01*
Y3116912D01*
X1714709Y3112016D01*
X1715328Y3108611D01*
X1704053D01*
X1703853Y3109675D01*
X1703427Y3110952D01*
X1703215Y3112229D01*
X1703002Y3113293D01*
Y3113932D01*
X1702789Y3114358D01*
Y3114571D01*
X1701725Y3119679D01*
X1700660Y3124362D01*
X1699809Y3128619D01*
X1698957Y3132450D01*
X1698319Y3135643D01*
X1698106Y3136920D01*
X1697893Y3137984D01*
X1697680Y3138836D01*
X1697468Y3139687D01*
Y3139900D01*
Y3140113D01*
X1708962Y3141390D01*
X1710451Y3132876D01*
D02*
G37*
G36*
X1293049Y3128619D02*
X1290494Y3125213D01*
X1288153Y3121808D01*
X1287302Y3120318D01*
X1286663Y3119253D01*
X1286237Y3118402D01*
X1286025Y3118189D01*
X1283470Y3113719D01*
X1282406Y3111804D01*
X1281555Y3110101D01*
X1280916Y3108611D01*
X1280278Y3107546D01*
X1280065Y3106908D01*
X1279852Y3106695D01*
X1271338Y3110526D01*
X1272615Y3112868D01*
X1273892Y3114996D01*
X1274318Y3116061D01*
X1274743Y3116699D01*
X1274956Y3117125D01*
X1275169Y3117338D01*
X1276872Y3120318D01*
X1278575Y3122872D01*
X1279213Y3123723D01*
X1279639Y3124575D01*
X1279852Y3125000D01*
X1280065Y3125213D01*
X1281768Y3127980D01*
X1283258Y3130322D01*
X1283896Y3131173D01*
X1284322Y3131812D01*
X1284747Y3132237D01*
Y3132450D01*
X1293049Y3128619D01*
D02*
G37*
G36*
X1842207Y3132024D02*
Y3130535D01*
Y3129470D01*
Y3129257D01*
Y3129045D01*
Y3127129D01*
X1842420Y3124788D01*
Y3123936D01*
X1842633Y3123085D01*
Y3122659D01*
Y3122446D01*
X1842845Y3119892D01*
X1843058Y3117125D01*
X1843271Y3114571D01*
X1843484Y3112016D01*
X1843697Y3109888D01*
X1843910Y3108185D01*
X1844123Y3107121D01*
Y3106908D01*
Y3106695D01*
X1844229Y3105844D01*
X1844974D01*
X1846464Y3106057D01*
X1847954D01*
X1853914Y3106695D01*
X1856681Y3107121D01*
X1859022Y3107546D01*
X1861151Y3107759D01*
X1862641Y3107972D01*
X1863705Y3108185D01*
X1864131D01*
X1867111Y3108824D01*
X1869878Y3109462D01*
X1872432Y3109888D01*
X1874560Y3110526D01*
X1876476Y3110952D01*
X1877753Y3111378D01*
X1878817Y3111804D01*
X1879030D01*
X1879669Y3100097D01*
X1874348Y3098820D01*
X1871793Y3098394D01*
X1869452Y3097968D01*
X1867536Y3097542D01*
X1866046Y3097117D01*
X1864982Y3096904D01*
X1864556D01*
X1858384Y3096052D01*
X1855617Y3095627D01*
X1853062Y3095414D01*
X1850934Y3095201D01*
X1849444Y3094988D01*
X1848380Y3094775D01*
X1847954D01*
X1845696Y3094614D01*
X1845825Y3093711D01*
X1846038Y3091157D01*
X1846464Y3089241D01*
X1846677Y3087964D01*
Y3087751D01*
Y3087538D01*
X1847102Y3083707D01*
X1847528Y3080089D01*
X1847954Y3076683D01*
X1848380Y3073703D01*
X1848805Y3071149D01*
X1849018Y3069233D01*
X1849231Y3067956D01*
Y3067743D01*
Y3067530D01*
X1849406Y3066040D01*
X1848592D01*
X1847102Y3065827D01*
X1844974D01*
X1842633Y3065615D01*
X1839866D01*
X1837416Y3065520D01*
X1836886Y3069233D01*
X1836673Y3071787D01*
X1836460Y3074342D01*
X1836034Y3076470D01*
Y3077960D01*
X1835821Y3079024D01*
Y3079450D01*
X1835396Y3082643D01*
X1834970Y3085623D01*
X1834757Y3088390D01*
X1834331Y3090944D01*
X1834119Y3092860D01*
X1833959Y3094137D01*
X1826030D01*
X1823050Y3094350D01*
X1818367D01*
X1816877Y3094563D01*
X1815600D01*
X1810066Y3094988D01*
X1807512D01*
X1805171Y3095201D01*
X1803255Y3095414D01*
X1801765Y3095627D01*
X1800488D01*
X1800275Y3107546D01*
X1805596Y3106695D01*
X1807938Y3106482D01*
X1810279Y3106269D01*
X1812408Y3106057D01*
X1813898Y3105844D01*
X1815388D01*
X1821560Y3105631D01*
X1824327D01*
X1827094Y3105418D01*
X1832501D01*
X1832416Y3106269D01*
X1831990Y3107972D01*
Y3109462D01*
X1831777Y3110314D01*
Y3110526D01*
X1831564Y3112868D01*
X1831139Y3115209D01*
X1830926Y3117125D01*
X1830713Y3118828D01*
X1830500Y3120105D01*
X1830287Y3120956D01*
Y3121595D01*
Y3121808D01*
X1829861Y3123723D01*
X1829649Y3125426D01*
X1829436Y3126490D01*
Y3126703D01*
Y3126916D01*
X1829010Y3129045D01*
X1828584Y3130960D01*
X1828372Y3131812D01*
Y3132237D01*
X1828159Y3132663D01*
Y3132876D01*
X1842420Y3133727D01*
X1842207Y3132024D01*
D02*
G37*
G36*
X1371804Y3129896D02*
Y3127980D01*
Y3127129D01*
Y3126490D01*
Y3126065D01*
Y3125852D01*
Y3123298D01*
X1372017Y3120956D01*
Y3120105D01*
X1372230Y3119466D01*
Y3119040D01*
Y3118828D01*
X1372655Y3116273D01*
X1373081Y3113506D01*
X1373294Y3112229D01*
X1373507Y3111378D01*
X1373720Y3110739D01*
Y3110526D01*
X1374358Y3106695D01*
X1374760Y3105088D01*
X1372655Y3105205D01*
X1372230D01*
X1370953Y3105418D01*
X1368824Y3105631D01*
X1366270Y3105844D01*
X1363077Y3106269D01*
X1361630Y3106440D01*
X1361374Y3107546D01*
X1360949Y3110101D01*
X1360523Y3112229D01*
X1360097Y3114358D01*
X1359884Y3115848D01*
X1359671Y3116912D01*
X1359459Y3117763D01*
Y3117976D01*
X1359033Y3120105D01*
X1358607Y3122020D01*
X1358394Y3122872D01*
Y3123510D01*
X1358181Y3123936D01*
Y3124149D01*
X1357543Y3126703D01*
X1356904Y3128832D01*
X1356691Y3130109D01*
X1356479Y3130322D01*
Y3130535D01*
X1371804Y3131812D01*
Y3129896D01*
D02*
G37*
G36*
X1410330Y3093073D02*
X1407137Y3092860D01*
X1404370D01*
X1403306Y3092647D01*
X1401603D01*
X1398198Y3092434D01*
X1392025D01*
X1385426Y3092647D01*
X1382234D01*
X1379254Y3092860D01*
X1377395Y3093029D01*
X1377338Y3093285D01*
X1376912Y3095201D01*
X1375848Y3099671D01*
Y3099884D01*
X1375635Y3100735D01*
X1375422Y3101799D01*
X1374997Y3103289D01*
X1374784Y3104992D01*
X1374760Y3105088D01*
X1376487Y3104992D01*
X1379892Y3104779D01*
X1383298Y3104567D01*
X1386065D01*
X1388406Y3104354D01*
X1395005D01*
X1397772Y3104567D01*
X1400752D01*
X1404157Y3104779D01*
X1407563Y3104992D01*
X1408840Y3105205D01*
X1409904Y3105418D01*
X1410969D01*
X1410330Y3093073D01*
D02*
G37*
G36*
X2789611Y3132876D02*
Y3131812D01*
Y3130960D01*
Y3130535D01*
X2789824Y3129045D01*
Y3127767D01*
X2790037Y3126916D01*
Y3126490D01*
X2790463Y3122233D01*
X2790675Y3120105D01*
X2790888Y3118189D01*
X2791101Y3116486D01*
Y3115209D01*
X2791314Y3114358D01*
Y3114246D01*
X2793230Y3114145D01*
X2804724D01*
X2807491Y3114358D01*
X2810471D01*
X2814089Y3114783D01*
X2815792D01*
X2817282Y3114996D01*
X2818559D01*
X2819623Y3115209D01*
X2820475D01*
X2822177Y3115422D01*
X2823667Y3115635D01*
X2824945D01*
X2826222Y3115848D01*
X2827073Y3116061D01*
X2827712Y3116273D01*
X2828137D01*
X2827924Y3104354D01*
X2825157Y3104141D01*
X2822603D01*
X2821539Y3103928D01*
X2819836D01*
X2816218Y3103715D01*
X2814728D01*
X2813238Y3103502D01*
X2811961D01*
X2811109Y3103289D01*
X2810258D01*
X2807065Y3103077D01*
X2795358D01*
X2792422Y3103272D01*
X2792378Y3103715D01*
X2792165Y3106057D01*
X2791740Y3108611D01*
X2791314Y3113932D01*
Y3114246D01*
X2789185Y3114358D01*
X2784503D01*
X2780135Y3114548D01*
X2779820Y3116912D01*
X2779394Y3119679D01*
X2778969Y3122233D01*
X2778543Y3124149D01*
X2778330Y3125426D01*
X2778117Y3126490D01*
Y3126703D01*
X2777691Y3127980D01*
X2777479Y3129257D01*
X2777266Y3130109D01*
Y3130322D01*
X2776840Y3131812D01*
X2776627Y3132876D01*
X2776201Y3133514D01*
Y3133727D01*
X2789611Y3134153D01*
Y3132876D01*
D02*
G37*
G36*
X1310715Y3122233D02*
X1309013Y3119892D01*
X1307523Y3117551D01*
X1307097Y3116699D01*
X1306671Y3115848D01*
X1306246Y3115422D01*
Y3115209D01*
X1304543Y3112442D01*
X1303053Y3109888D01*
X1302414Y3108824D01*
X1301989Y3107972D01*
X1301563Y3107546D01*
Y3107334D01*
X1300073Y3104567D01*
X1298796Y3102225D01*
X1298370Y3101374D01*
X1297944Y3100735D01*
X1297731Y3100310D01*
Y3100097D01*
X1289217Y3103928D01*
X1290494Y3106482D01*
X1291772Y3108824D01*
X1292410Y3109675D01*
X1292836Y3110526D01*
X1293049Y3110952D01*
X1293262Y3111165D01*
X1294964Y3114145D01*
X1296454Y3116699D01*
X1297093Y3117551D01*
X1297519Y3118402D01*
X1297731Y3118828D01*
X1297944Y3119040D01*
X1299647Y3121808D01*
X1300924Y3123936D01*
X1301563Y3124788D01*
X1301776Y3125426D01*
X1302201Y3125639D01*
Y3125852D01*
X1310715Y3122233D01*
D02*
G37*
G36*
X1922239Y3122446D02*
X1924368D01*
X1926071Y3122233D01*
X1927773D01*
X1929050Y3122020D01*
X1930115D01*
X1935223Y3121808D01*
X1937565Y3121595D01*
X1939906D01*
X1941822Y3121382D01*
X1943312D01*
X1944163Y3121169D01*
X1944589D01*
X1950336Y3120743D01*
X1953103Y3120530D01*
X1955657Y3120318D01*
X1957786Y3120105D01*
X1959488D01*
X1960553Y3119892D01*
X1960978D01*
X1965022Y3119466D01*
X1969067Y3119040D01*
X1972685Y3118828D01*
X1976091Y3118402D01*
X1978858Y3118189D01*
X1980986Y3117976D01*
X1981838D01*
X1982476Y3117763D01*
X1982902D01*
X1986733Y3117551D01*
X1990565Y3117125D01*
X1993970Y3116912D01*
X1996950Y3116699D01*
X1999292Y3116486D01*
X2001207Y3116273D01*
X2002484Y3116061D01*
X2002910D01*
X2006316Y3115848D01*
X2009509Y3115422D01*
X2012276Y3115209D01*
X2014617Y3114996D01*
X2016746Y3114783D01*
X2018235Y3114571D01*
X2019087Y3114358D01*
X2019513D01*
X2022067Y3114145D01*
X2024195Y3113932D01*
X2026111Y3113719D01*
X2027814Y3113506D01*
X2028878D01*
X2029942Y3113293D01*
X2030581D01*
X2032497Y3113081D01*
X2034625D01*
X2035476Y3112868D01*
X2036754D01*
X2039521Y3112655D01*
X2042075D01*
X2043139Y3112442D01*
X2044842D01*
X2043352Y3098607D01*
X2041436Y3099032D01*
X2039308Y3099458D01*
X2037179Y3099884D01*
X2035051Y3100097D01*
X2033348Y3100310D01*
X2032071Y3100522D01*
X2031219Y3100735D01*
X2030794D01*
X2025047Y3101587D01*
X2022493Y3101799D01*
X2019938Y3102225D01*
X2017810Y3102438D01*
X2016320Y3102651D01*
X2015256Y3102864D01*
X2014830D01*
X2011637Y3103289D01*
X2008444Y3103715D01*
X2005464Y3104141D01*
X2002910Y3104354D01*
X2000782Y3104567D01*
X1999079Y3104779D01*
X1998015Y3104992D01*
X1997589D01*
X1994396Y3105418D01*
X1991416Y3105631D01*
X1988649Y3105844D01*
X1986308Y3106269D01*
X1984179Y3106482D01*
X1982689D01*
X1981838Y3106695D01*
X1981412D01*
X1978645Y3106908D01*
X1976091Y3107334D01*
X1973962Y3107546D01*
X1972047Y3107759D01*
X1970557D01*
X1969492Y3107972D01*
X1968641D01*
X1971408Y3106269D01*
X1973962Y3104354D01*
X1976516Y3102225D01*
X1978645Y3100310D01*
X1980348Y3098607D01*
X1981625Y3097117D01*
X1982689Y3096265D01*
X1982902Y3095840D01*
X1985243Y3092860D01*
X1987585Y3089667D01*
X1989500Y3086474D01*
X1990990Y3083707D01*
X1992480Y3081153D01*
X1993332Y3079024D01*
X1993970Y3077747D01*
X1994183Y3077534D01*
Y3077322D01*
X1995673Y3073277D01*
X1996737Y3069233D01*
X1997376Y3065402D01*
X1997802Y3061996D01*
X1998227Y3058803D01*
X1998440Y3056462D01*
Y3055611D01*
Y3054972D01*
Y3054546D01*
Y3054333D01*
X1998227Y3050502D01*
X1997802Y3046884D01*
X1997376Y3043691D01*
X1996525Y3040924D01*
X1995886Y3038582D01*
X1995460Y3036880D01*
X1995035Y3035815D01*
X1994822Y3035390D01*
X1993332Y3032410D01*
X1991629Y3029856D01*
X1989926Y3027301D01*
X1988436Y3025173D01*
X1986946Y3023470D01*
X1985882Y3022193D01*
X1985031Y3021341D01*
X1984818Y3021129D01*
X1982263Y3019000D01*
X1979922Y3016872D01*
X1977368Y3015169D01*
X1975239Y3013679D01*
X1973324Y3012614D01*
X1971621Y3011550D01*
X1970769Y3011125D01*
X1970344Y3010912D01*
X1964171Y3008357D01*
X1961404Y3007293D01*
X1958850Y3006442D01*
X1956508Y3005803D01*
X1954806Y3005378D01*
X1953741Y3004952D01*
X1953316D01*
X1946717Y3003675D01*
X1943737Y3003036D01*
X1940970Y3002823D01*
X1938629Y3002610D01*
X1936926Y3002398D01*
X1935436D01*
X1930966Y3015382D01*
X1936713Y3015807D01*
X1939267Y3016020D01*
X1941609Y3016233D01*
X1943524Y3016659D01*
X1945227Y3016872D01*
X1946079Y3017084D01*
X1946504D01*
X1949484Y3017723D01*
X1952251Y3018362D01*
X1954593Y3019213D01*
X1956934Y3019851D01*
X1958850Y3020490D01*
X1960127Y3021129D01*
X1960978Y3021341D01*
X1961404Y3021554D01*
X1963958Y3022831D01*
X1966300Y3024109D01*
X1968428Y3025386D01*
X1970344Y3026450D01*
X1971834Y3027514D01*
X1972898Y3028366D01*
X1973749Y3029004D01*
X1973962Y3029217D01*
X1975878Y3031133D01*
X1977581Y3033048D01*
X1979071Y3035177D01*
X1980135Y3036880D01*
X1981199Y3038582D01*
X1981838Y3039860D01*
X1982263Y3040711D01*
X1982476Y3040924D01*
X1983541Y3043691D01*
X1984392Y3046458D01*
X1984818Y3049225D01*
X1985243Y3051566D01*
X1985456Y3053908D01*
X1985669Y3055611D01*
Y3056675D01*
Y3057101D01*
X1985456Y3059868D01*
X1985243Y3062422D01*
X1984818Y3064976D01*
X1984392Y3067105D01*
X1983966Y3069020D01*
X1983753Y3070510D01*
X1983328Y3071362D01*
Y3071787D01*
X1981199Y3077322D01*
X1979922Y3079876D01*
X1978645Y3082004D01*
X1977794Y3083920D01*
X1976942Y3085197D01*
X1976304Y3086261D01*
X1976091Y3086474D01*
X1974175Y3089028D01*
X1972259Y3091583D01*
X1970344Y3093711D01*
X1968428Y3095627D01*
X1966938Y3097117D01*
X1965661Y3098181D01*
X1964810Y3099032D01*
X1964597Y3099245D01*
X1962043Y3101161D01*
X1959275Y3102864D01*
X1956721Y3104354D01*
X1954380Y3105418D01*
X1952251Y3106482D01*
X1950761Y3107121D01*
X1949697Y3107334D01*
X1949271Y3107546D01*
X1946079Y3108185D01*
X1942886Y3108611D01*
X1941609Y3108824D01*
X1940545Y3109036D01*
X1939693D01*
X1935649Y3109462D01*
X1933733D01*
X1932030Y3109675D01*
X1928412D01*
X1924368Y3109888D01*
X1918195D01*
Y3122659D01*
X1922239Y3122446D01*
D02*
G37*
G36*
X1732801Y3097542D02*
X1717635D01*
X1717263Y3099032D01*
X1716411Y3102864D01*
X1715560Y3107334D01*
X1715328Y3108611D01*
X1732801D01*
Y3097542D01*
D02*
G37*
G36*
X2604217Y3112655D02*
X2607623Y3111804D01*
X2610815Y3111165D01*
X2613583Y3110739D01*
X2615498Y3110314D01*
X2616350Y3110101D01*
X2616988Y3109888D01*
X2617414D01*
X2621458Y3109249D01*
X2625077Y3108824D01*
X2627248Y3108568D01*
X2627631Y3106908D01*
Y3106482D01*
X2627844Y3105631D01*
X2628269Y3104141D01*
X2628695Y3102225D01*
X2629121Y3099884D01*
X2629759Y3097117D01*
X2629960Y3096179D01*
X2627418Y3096478D01*
X2624225Y3096904D01*
X2621458Y3097330D01*
X2619542Y3097542D01*
X2618691D01*
X2618052Y3097755D01*
X2617627D01*
X2613583Y3098394D01*
X2609751Y3099032D01*
X2606346Y3099884D01*
X2603153Y3100522D01*
X2600599Y3100948D01*
X2598470Y3101374D01*
X2597193Y3101799D01*
X2596767D01*
Y3114358D01*
X2604217Y3112655D01*
D02*
G37*
G36*
X2637209Y3132237D02*
Y3130322D01*
Y3129257D01*
Y3128619D01*
Y3128193D01*
Y3127980D01*
X2637422Y3125426D01*
X2637635Y3123298D01*
Y3122446D01*
X2637848Y3121808D01*
Y3121382D01*
Y3121169D01*
X2638273Y3118615D01*
X2638699Y3115848D01*
X2638912Y3114571D01*
Y3113719D01*
X2639125Y3113081D01*
Y3112868D01*
X2639763Y3109036D01*
X2640189Y3107334D01*
X2640202Y3107226D01*
X2642105Y3107121D01*
X2645510Y3106908D01*
X2648916Y3106695D01*
X2651683D01*
X2654024Y3106482D01*
X2660623D01*
X2663390Y3106695D01*
X2666157D01*
X2669563Y3106908D01*
X2672968Y3107121D01*
X2674245Y3107334D01*
X2675310Y3107546D01*
X2676374D01*
X2675948Y3095201D01*
X2672755Y3094988D01*
X2669988D01*
X2668924Y3094775D01*
X2667221D01*
X2663816Y3094563D01*
X2657430D01*
X2651044Y3094775D01*
X2647852D01*
X2644872Y3094988D01*
X2642844Y3095173D01*
X2642743Y3095627D01*
X2642318Y3097542D01*
X2641253Y3102012D01*
Y3102225D01*
X2641040Y3103077D01*
X2640828Y3104141D01*
X2640402Y3105631D01*
X2640202Y3107226D01*
X2638273Y3107334D01*
X2637848D01*
X2636571Y3107546D01*
X2634442Y3107759D01*
X2631888Y3107972D01*
X2628695Y3108398D01*
X2627248Y3108568D01*
X2626992Y3109675D01*
X2626567Y3112229D01*
X2626141Y3114571D01*
X2625715Y3116486D01*
X2625289Y3118189D01*
X2625077Y3119253D01*
X2624864Y3120105D01*
Y3120318D01*
X2624438Y3122233D01*
X2624225Y3124362D01*
X2624012Y3125213D01*
X2623799Y3125852D01*
Y3126277D01*
Y3126490D01*
X2623161Y3129045D01*
X2622522Y3131173D01*
X2622309Y3132024D01*
Y3132663D01*
X2622097Y3132876D01*
Y3133089D01*
X2637422Y3134366D01*
X2637209Y3132237D01*
D02*
G37*
G36*
X1192370Y3131386D02*
X1192157Y3130109D01*
X1191944Y3129045D01*
Y3128832D01*
Y3128619D01*
X1191731Y3126703D01*
X1191518Y3124788D01*
Y3123510D01*
Y3123085D01*
Y3122872D01*
X1191305Y3120743D01*
Y3118828D01*
Y3117338D01*
Y3117125D01*
Y3116912D01*
X1191093Y3114145D01*
Y3111378D01*
Y3110314D01*
Y3109249D01*
Y3108611D01*
Y3108398D01*
Y3104567D01*
Y3102864D01*
Y3101161D01*
Y3099884D01*
Y3098607D01*
Y3097968D01*
Y3097755D01*
Y3093924D01*
Y3092221D01*
Y3090944D01*
Y3089667D01*
Y3088816D01*
Y3088177D01*
Y3087964D01*
Y3083069D01*
Y3080727D01*
X1190880Y3078386D01*
Y3076470D01*
Y3074980D01*
Y3073916D01*
Y3073490D01*
X1190667Y3067530D01*
X1190454Y3064550D01*
Y3061996D01*
X1190241Y3059868D01*
Y3058165D01*
Y3057101D01*
Y3056675D01*
X1190028Y3053482D01*
Y3050857D01*
X1192583Y3051141D01*
X1196201Y3051354D01*
X1199181Y3051566D01*
X1201310Y3051779D01*
X1203438D01*
X1208334Y3051566D01*
X1212804Y3051141D01*
X1216635Y3050715D01*
X1219828Y3050076D01*
X1222382Y3049225D01*
X1224298Y3048799D01*
X1225575Y3048374D01*
X1226000Y3048161D01*
X1228980Y3046884D01*
X1231747Y3045181D01*
X1233876Y3043691D01*
X1235792Y3042201D01*
X1237069Y3040924D01*
X1238133Y3039860D01*
X1238771Y3039008D01*
X1238984Y3038795D01*
X1240474Y3036667D01*
X1241539Y3034325D01*
X1242177Y3032197D01*
X1242603Y3030068D01*
X1243029Y3028366D01*
X1243241Y3027088D01*
Y3026237D01*
Y3025811D01*
X1243029Y3022619D01*
X1242390Y3019851D01*
X1241751Y3017297D01*
X1240687Y3015169D01*
X1239836Y3013466D01*
X1239197Y3012402D01*
X1238559Y3011550D01*
X1238346Y3011337D01*
X1236217Y3009422D01*
X1234089Y3007932D01*
X1231747Y3006442D01*
X1229619Y3005378D01*
X1227703Y3004526D01*
X1226213Y3003888D01*
X1225149Y3003675D01*
X1224723Y3003462D01*
X1221530Y3002610D01*
X1218125Y3001972D01*
X1214719Y3001546D01*
X1211739Y3001333D01*
X1209185Y3001120D01*
X1207057Y3000908D01*
X1202374D01*
X1199820Y3001120D01*
X1197478Y3001546D01*
X1195563Y3001972D01*
X1193860Y3002185D01*
X1192795Y3002610D01*
X1191944Y3002823D01*
X1191731D01*
X1189816Y3003675D01*
X1187900Y3004526D01*
X1186410Y3005378D01*
X1185133Y3006016D01*
X1184068Y3006867D01*
X1183430Y3007506D01*
X1183004Y3007719D01*
X1182791Y3007932D01*
X1180663Y3010486D01*
X1178960Y3012827D01*
X1178534Y3013892D01*
X1178109Y3014743D01*
X1177896Y3015169D01*
Y3015382D01*
X1176832Y3018787D01*
X1176406Y3021767D01*
X1176193Y3023044D01*
Y3024109D01*
Y3024747D01*
Y3024960D01*
Y3026876D01*
Y3029004D01*
X1176406Y3031133D01*
Y3033261D01*
Y3035177D01*
X1176483Y3035719D01*
X1177257Y3036028D01*
X1180876Y3037092D01*
X1184494Y3038157D01*
X1184707D01*
X1184920Y3038370D01*
X1186197Y3038582D01*
X1188113Y3039008D01*
X1189478Y3039218D01*
X1189603Y3040711D01*
Y3041137D01*
Y3041988D01*
Y3043478D01*
X1189816Y3045607D01*
Y3047948D01*
X1190028Y3050502D01*
Y3050857D01*
X1188751Y3050715D01*
X1184707Y3049864D01*
X1180663Y3049012D01*
X1180450D01*
X1180237Y3048799D01*
X1179599D01*
X1178747Y3048586D01*
X1177146Y3048106D01*
X1177257Y3049438D01*
Y3051779D01*
X1177470Y3053482D01*
Y3054546D01*
Y3054972D01*
Y3058378D01*
X1177683Y3061570D01*
Y3064550D01*
X1177896Y3067317D01*
Y3069446D01*
X1178109Y3071149D01*
Y3072213D01*
Y3072639D01*
X1178321Y3075832D01*
Y3078811D01*
Y3081366D01*
X1178534Y3083494D01*
Y3085410D01*
Y3086900D01*
Y3087751D01*
Y3087964D01*
Y3089028D01*
X1174916D01*
X1169807Y3089241D01*
X1167466D01*
X1165338Y3089454D01*
X1163422D01*
X1161932Y3089667D01*
X1160655D01*
X1155121Y3090093D01*
X1152354D01*
X1150012Y3090305D01*
X1148097D01*
X1146607Y3090518D01*
X1145329D01*
X1142562Y3090731D01*
X1139795Y3090944D01*
X1137454Y3091157D01*
X1135325Y3091370D01*
X1133623Y3091583D01*
X1132133Y3091795D01*
X1131068D01*
X1131494Y3103715D01*
X1136603Y3103077D01*
X1138944Y3102864D01*
X1141072Y3102651D01*
X1142988Y3102438D01*
X1144478D01*
X1145329Y3102225D01*
X1145755D01*
X1151289Y3102012D01*
X1154056Y3101799D01*
X1156185Y3101587D01*
X1158313D01*
X1159803Y3101374D01*
X1163848D01*
X1166402Y3101161D01*
X1170872D01*
X1172574Y3100948D01*
X1177470D01*
X1178534Y3100830D01*
Y3098820D01*
Y3096478D01*
Y3093924D01*
Y3089028D01*
X1185558D01*
Y3100735D01*
X1179386D01*
X1178534Y3100830D01*
Y3100948D01*
Y3102438D01*
Y3103289D01*
Y3103715D01*
Y3106482D01*
Y3109036D01*
Y3111378D01*
Y3113293D01*
Y3114783D01*
Y3116061D01*
Y3116699D01*
Y3116912D01*
Y3118828D01*
X1178321Y3120530D01*
Y3121808D01*
Y3122020D01*
Y3122233D01*
X1178109Y3124575D01*
Y3126490D01*
X1177896Y3127767D01*
Y3127980D01*
Y3128193D01*
X1177683Y3130109D01*
Y3131599D01*
X1177470Y3132450D01*
Y3132663D01*
X1192583D01*
X1192370Y3131386D01*
D02*
G37*
G36*
X1462266Y3121169D02*
X1465246Y3120318D01*
X1468013Y3119679D01*
X1470567Y3119040D01*
X1472270Y3118615D01*
X1473547Y3118189D01*
X1473973D01*
X1477591Y3117551D01*
X1480997Y3116912D01*
X1484403Y3116486D01*
X1487170Y3116061D01*
X1488384Y3115959D01*
X1488021Y3114145D01*
X1487383Y3111804D01*
X1485893Y3106695D01*
Y3106482D01*
X1485467Y3105631D01*
X1485322Y3105196D01*
X1486957Y3104992D01*
X1490575Y3104567D01*
X1491852D01*
X1492704Y3104354D01*
X1493768D01*
X1495258Y3104141D01*
X1496961D01*
X1496748Y3103502D01*
X1496535Y3102651D01*
X1496322Y3102012D01*
Y3101799D01*
X1495045Y3098181D01*
X1494407Y3096478D01*
X1493768Y3094988D01*
X1493342Y3093711D01*
X1492917Y3092647D01*
X1492704Y3092008D01*
Y3091795D01*
X1489937Y3084346D01*
X1489629Y3083525D01*
X1486531Y3083707D01*
X1482913Y3084133D01*
X1482487D01*
X1481848Y3084346D01*
X1480997D01*
X1478869Y3084558D01*
X1478283Y3084642D01*
X1478869Y3086048D01*
X1479720Y3088177D01*
X1480358Y3090305D01*
X1480997Y3092008D01*
X1481423Y3093285D01*
X1481848Y3094137D01*
Y3094350D01*
X1483338Y3098607D01*
X1483977Y3100735D01*
X1484616Y3102651D01*
X1485041Y3104354D01*
X1485322Y3105196D01*
X1483551Y3105418D01*
X1480358Y3105844D01*
X1477379Y3106269D01*
X1475037Y3106695D01*
X1473122Y3107121D01*
X1471844Y3107334D01*
X1471419D01*
X1468013Y3107972D01*
X1464607Y3108824D01*
X1461628Y3109462D01*
X1459073Y3110101D01*
X1456945Y3110739D01*
X1455242Y3111165D01*
X1454391Y3111591D01*
X1453965D01*
X1455881Y3123085D01*
X1462266Y3121169D01*
D02*
G37*
G36*
X1554857Y3072426D02*
X1549748Y3072213D01*
X1544853Y3072000D01*
X1540170Y3071787D01*
X1535913Y3071575D01*
X1532507D01*
X1531017Y3071362D01*
X1505688D01*
X1504198Y3071575D01*
X1501005D01*
X1496322Y3071787D01*
X1492278Y3072213D01*
X1488447Y3072426D01*
X1485144Y3072632D01*
X1485254Y3072852D01*
X1486105Y3074980D01*
X1487170Y3077747D01*
X1488660Y3080940D01*
X1489629Y3083525D01*
X1490150Y3083494D01*
X1493555Y3083069D01*
X1496961Y3082856D01*
X1499728Y3082643D01*
X1502069D01*
X1502921Y3082430D01*
X1503985D01*
X1512712Y3082217D01*
X1520800D01*
X1523993Y3082430D01*
X1528889D01*
X1533784Y3082643D01*
X1538680Y3082856D01*
X1543150Y3083281D01*
X1547194Y3083494D01*
X1550600Y3083920D01*
X1551877D01*
X1553154Y3084133D01*
X1554218D01*
X1554857Y3084346D01*
X1555495D01*
X1554857Y3072426D01*
D02*
G37*
G36*
X2732780Y3119679D02*
X2736824Y3118828D01*
X2740442Y3118402D01*
X2743635Y3117763D01*
X2744912Y3117551D01*
X2745976Y3117338D01*
X2746828D01*
X2747466Y3117125D01*
X2748105D01*
X2752788Y3116699D01*
X2757470Y3116061D01*
X2761940Y3115635D01*
X2765985Y3115422D01*
X2769390Y3115209D01*
X2770880Y3114996D01*
X2772157D01*
X2773222Y3114783D01*
X2774499D01*
X2779607Y3114571D01*
X2780135Y3114548D01*
X2780246Y3113719D01*
X2780671Y3110101D01*
Y3109888D01*
Y3109675D01*
X2780884Y3108398D01*
X2781097Y3106269D01*
X2781310Y3103715D01*
X2781324Y3103608D01*
X2783226Y3103502D01*
X2784928D01*
X2786844Y3103289D01*
X2792165D01*
X2792422Y3103272D01*
X2792591Y3101587D01*
Y3100097D01*
X2792804Y3099032D01*
Y3098607D01*
X2793442Y3092647D01*
X2793655Y3089880D01*
X2793868Y3087326D01*
X2794081Y3085197D01*
Y3083494D01*
X2794294Y3082430D01*
Y3082004D01*
X2794371Y3079769D01*
X2793230Y3080301D01*
X2790037Y3081791D01*
X2789611Y3082004D01*
X2788760Y3082217D01*
X2787057Y3082856D01*
X2785141Y3083494D01*
X2783067Y3084013D01*
X2783013Y3084771D01*
Y3086900D01*
X2782800Y3087751D01*
Y3088390D01*
Y3088603D01*
Y3088816D01*
X2782374Y3093073D01*
X2782161Y3096904D01*
X2781736Y3100522D01*
X2781324Y3103608D01*
X2779394Y3103715D01*
X2775776Y3103928D01*
X2772370Y3104354D01*
X2769390Y3104567D01*
X2766836Y3104779D01*
X2764707D01*
X2763430Y3104992D01*
X2763005D01*
X2759173Y3105418D01*
X2755342Y3105631D01*
X2751936Y3106057D01*
X2748956Y3106269D01*
X2746402Y3106482D01*
X2744487Y3106695D01*
X2743209Y3106908D01*
X2742784D01*
X2739165Y3107334D01*
X2735760Y3107972D01*
X2732567Y3108398D01*
X2729800Y3108824D01*
X2727458Y3109249D01*
X2725756Y3109462D01*
X2724691Y3109675D01*
X2724266D01*
Y3121382D01*
X2732780Y3119679D01*
D02*
G37*
G36*
X1448856Y3090731D02*
X1451623Y3090093D01*
X1454178Y3089241D01*
X1456519Y3088603D01*
X1458860Y3088177D01*
X1460563Y3087751D01*
X1461628Y3087326D01*
X1462053D01*
X1469290Y3086048D01*
X1472696Y3085410D01*
X1475889Y3084984D01*
X1478283Y3084642D01*
X1476740Y3080940D01*
X1476527Y3080727D01*
X1476101Y3079876D01*
X1475463Y3078386D01*
X1474611Y3076683D01*
X1473760Y3074554D01*
X1473400Y3073954D01*
X1471206Y3074342D01*
X1468013Y3074767D01*
X1465246Y3075193D01*
X1462905Y3075619D01*
X1461202Y3076044D01*
X1460138Y3076257D01*
X1459712D01*
X1456519Y3076896D01*
X1453752Y3077534D01*
X1450985Y3078173D01*
X1448856Y3078599D01*
X1447154Y3079024D01*
X1445664Y3079450D01*
X1444812Y3079663D01*
X1444599D01*
X1446515Y3091583D01*
X1448856Y3090731D01*
D02*
G37*
G36*
X2586337Y3085836D02*
X2590595D01*
X2592084Y3085623D01*
X2593362D01*
X2596129Y3085410D01*
X2598683Y3085197D01*
X2601024D01*
X2603153Y3084984D01*
X2604856Y3084771D01*
X2606133D01*
X2606984Y3084558D01*
X2607197D01*
Y3072852D01*
X2601876Y3073490D01*
X2599321D01*
X2597193Y3073703D01*
X2595277Y3073916D01*
X2592510D01*
X2586976Y3074129D01*
X2584422Y3074342D01*
X2572502D01*
X2570161Y3074129D01*
X2568032D01*
X2566329Y3073916D01*
X2564839D01*
X2563988Y3073703D01*
X2563775D01*
X2558880Y3073277D01*
X2556751Y3073064D01*
X2554835Y3072852D01*
X2553345Y3072639D01*
X2552068D01*
X2551217Y3072426D01*
X2551004D01*
X2550578Y3084558D01*
X2555474Y3085197D01*
X2557602D01*
X2559731Y3085410D01*
X2561647Y3085623D01*
X2564201D01*
X2569309Y3085836D01*
X2571651Y3086048D01*
X2583570D01*
X2586337Y3085836D01*
D02*
G37*
G36*
X1931605Y3093498D02*
X1929050Y3089880D01*
X1927773Y3087964D01*
X1926709Y3086261D01*
X1925858Y3084984D01*
X1925219Y3083920D01*
X1924793Y3083069D01*
X1924581Y3082856D01*
X1922026Y3078599D01*
X1920962Y3076683D01*
X1920111Y3074767D01*
X1919259Y3073277D01*
X1918621Y3072213D01*
X1918408Y3071362D01*
X1918195Y3071149D01*
X1909894Y3075193D01*
X1911384Y3077960D01*
X1912874Y3080301D01*
X1913512Y3081366D01*
X1913938Y3082217D01*
X1914151Y3082643D01*
X1914364Y3082856D01*
X1916067Y3085836D01*
X1917769Y3088390D01*
X1918408Y3089241D01*
X1918834Y3090093D01*
X1919046Y3090518D01*
X1919259Y3090731D01*
X1920962Y3093285D01*
X1922452Y3095414D01*
X1923303Y3096691D01*
X1923729Y3096904D01*
Y3097117D01*
X1931605Y3093498D01*
D02*
G37*
G36*
X1320719Y3083494D02*
X1324977D01*
X1326466Y3083281D01*
X1330511D01*
X1333065Y3083069D01*
X1335406Y3082856D01*
X1337535D01*
X1339238Y3082643D01*
X1340515D01*
X1341366Y3082430D01*
X1341579D01*
Y3070510D01*
X1336258Y3071149D01*
X1333916Y3071362D01*
X1331575Y3071575D01*
X1329872D01*
X1328382Y3071787D01*
X1327105D01*
X1321571Y3072000D01*
X1319017Y3072213D01*
X1307097D01*
X1304756Y3072000D01*
X1302627D01*
X1300924Y3071787D01*
X1299434D01*
X1298583Y3071575D01*
X1298370D01*
X1293474Y3071149D01*
X1291346Y3070936D01*
X1289217Y3070723D01*
X1287727Y3070510D01*
X1286450D01*
X1285599Y3070297D01*
X1285386D01*
X1285173Y3082430D01*
X1289856Y3082856D01*
X1292197Y3083069D01*
X1294326D01*
X1296029Y3083281D01*
X1298583D01*
X1303691Y3083494D01*
X1306033Y3083707D01*
X1318165D01*
X1320719Y3083494D01*
D02*
G37*
G36*
X2116360Y3110526D02*
X2118489Y3110314D01*
X2120192Y3109888D01*
X2121894Y3109462D01*
X2123172Y3109036D01*
X2124023Y3108824D01*
X2124236Y3108611D01*
X2128919Y3106695D01*
X2131047Y3105631D01*
X2133176Y3104567D01*
X2134878Y3103715D01*
X2136155Y3102864D01*
X2137007Y3102438D01*
X2137220Y3102225D01*
X2141902Y3099245D01*
X2144031Y3097755D01*
X2145734Y3096265D01*
X2147437Y3095201D01*
X2148501Y3094350D01*
X2149352Y3093711D01*
X2149565Y3093498D01*
X2153609Y3090305D01*
X2155312Y3088816D01*
X2157015Y3087538D01*
X2158292Y3086261D01*
X2159144Y3085410D01*
X2159782Y3084984D01*
X2159995Y3084771D01*
X2160668Y3084143D01*
X2160846Y3082004D01*
X2161059Y3079024D01*
X2161485Y3075619D01*
X2161698Y3072000D01*
X2161900Y3068350D01*
X2161485Y3068807D01*
X2159569Y3070723D01*
X2157866Y3072426D01*
X2156589Y3073916D01*
X2155738Y3074767D01*
X2155525Y3074980D01*
X2152971Y3077534D01*
X2150417Y3079663D01*
X2148075Y3081791D01*
X2145947Y3083707D01*
X2144031Y3084984D01*
X2142754Y3086261D01*
X2141690Y3086900D01*
X2141477Y3087113D01*
X2138710Y3089028D01*
X2136155Y3090731D01*
X2133814Y3092221D01*
X2131686Y3093498D01*
X2129983Y3094563D01*
X2128493Y3095201D01*
X2127641Y3095627D01*
X2127429Y3095840D01*
X2124874Y3096904D01*
X2122533Y3097755D01*
X2120617Y3098394D01*
X2118702Y3098820D01*
X2117212Y3099032D01*
X2116147Y3099245D01*
X2115083D01*
X2112955Y3099032D01*
X2111039Y3098820D01*
X2109336Y3098181D01*
X2108059Y3097755D01*
X2106995Y3097117D01*
X2106356Y3096478D01*
X2105931Y3096265D01*
X2105718Y3096052D01*
X2104653Y3094775D01*
X2103802Y3093285D01*
X2103163Y3091583D01*
X2102738Y3090093D01*
X2102525Y3088603D01*
X2102312Y3087326D01*
Y3086474D01*
Y3086261D01*
X2102525Y3081579D01*
X2102738Y3079450D01*
Y3077322D01*
X2102951Y3075619D01*
X2103163Y3074129D01*
X2103376Y3073277D01*
Y3072852D01*
X2104015Y3067317D01*
X2104441Y3064763D01*
X2104653Y3062422D01*
X2104866Y3060293D01*
X2105079Y3058803D01*
X2105292Y3057739D01*
Y3057313D01*
X2106143Y3051354D01*
X2106356Y3048799D01*
X2106782Y3046245D01*
X2106995Y3044329D01*
X2107208Y3042627D01*
X2107420Y3041775D01*
Y3041350D01*
X2107633Y3038582D01*
X2107846Y3035815D01*
X2108059Y3033474D01*
Y3031345D01*
X2108272Y3029430D01*
Y3028153D01*
Y3027088D01*
Y3026876D01*
X2108059Y3023470D01*
X2107420Y3020490D01*
X2106782Y3017936D01*
X2105718Y3015807D01*
X2104866Y3014104D01*
X2104228Y3013040D01*
X2103589Y3012189D01*
X2103376Y3011976D01*
X2101461Y3010273D01*
X2099332Y3009209D01*
X2097204Y3008357D01*
X2095075Y3007719D01*
X2093372Y3007293D01*
X2091882Y3007080D01*
X2090605D01*
X2087625Y3007293D01*
X2084645Y3007506D01*
X2082091Y3008145D01*
X2079750Y3008783D01*
X2077834Y3009209D01*
X2076344Y3009847D01*
X2075493Y3010060D01*
X2075067Y3010273D01*
X2072300Y3011763D01*
X2069959Y3013253D01*
X2067617Y3014956D01*
X2065489Y3016446D01*
X2063786Y3017936D01*
X2062509Y3019000D01*
X2061657Y3019851D01*
X2061444Y3020064D01*
X2063573Y3033687D01*
X2065701Y3031558D01*
X2068043Y3029643D01*
X2069959Y3027940D01*
X2071874Y3026450D01*
X2073364Y3025386D01*
X2074641Y3024534D01*
X2075493Y3024109D01*
X2075706Y3023896D01*
X2077834Y3022831D01*
X2079963Y3021980D01*
X2082091Y3021341D01*
X2083794Y3020916D01*
X2085284Y3020703D01*
X2086348Y3020490D01*
X2087412D01*
X2088902Y3020703D01*
X2090179Y3020916D01*
X2092095Y3021980D01*
X2093372Y3022831D01*
X2093585Y3023044D01*
X2093798Y3023257D01*
X2094862Y3025598D01*
X2095501Y3027940D01*
Y3028791D01*
X2095714Y3029643D01*
Y3030068D01*
Y3030281D01*
X2095501Y3034964D01*
Y3037305D01*
X2095288Y3039434D01*
X2095075Y3041137D01*
Y3042627D01*
X2094862Y3043478D01*
Y3043904D01*
X2094224Y3049864D01*
X2093798Y3052418D01*
X2093585Y3054972D01*
X2093372Y3057101D01*
X2093159Y3058591D01*
X2092947Y3059655D01*
Y3060080D01*
X2092521Y3063060D01*
X2092095Y3066040D01*
X2091669Y3068807D01*
X2091457Y3071149D01*
X2091244Y3073277D01*
X2091031Y3074767D01*
X2090818Y3075619D01*
Y3076044D01*
X2090392Y3078811D01*
X2090179Y3081366D01*
X2089967Y3083707D01*
Y3085836D01*
X2089754Y3087326D01*
Y3088603D01*
Y3089454D01*
Y3089667D01*
Y3092008D01*
X2090179Y3094137D01*
X2090605Y3096052D01*
X2091031Y3097542D01*
X2091457Y3098820D01*
X2091882Y3099884D01*
X2092095Y3100522D01*
X2092308Y3100735D01*
X2093372Y3102438D01*
X2094437Y3103928D01*
X2095714Y3105205D01*
X2096778Y3106269D01*
X2097842Y3107121D01*
X2098694Y3107759D01*
X2099332Y3107972D01*
X2099545Y3108185D01*
X2101461Y3109036D01*
X2103589Y3109888D01*
X2105505Y3110314D01*
X2107633Y3110526D01*
X2109336Y3110739D01*
X2110613Y3110952D01*
X2114019D01*
X2116360Y3110526D01*
D02*
G37*
G36*
X1600407Y3133302D02*
X1598917D01*
Y3122233D01*
X1609134D01*
X1609772Y3121382D01*
X1610624Y3120318D01*
X1611262Y3119466D01*
X1611475Y3119253D01*
X1615307Y3114783D01*
X1617222Y3112655D01*
X1618925Y3110952D01*
X1620415Y3109249D01*
X1621479Y3108185D01*
X1622331Y3107334D01*
X1622544Y3107121D01*
X1624672Y3104992D01*
X1626801Y3103077D01*
X1628716Y3101374D01*
X1630419Y3099884D01*
X1631909Y3098607D01*
X1636592D01*
Y3077534D01*
X1674054D01*
Y3066253D01*
X1636592D01*
Y3077534D01*
X1624672D01*
Y3091666D01*
X1622331Y3093498D01*
X1620202Y3095414D01*
X1618074Y3097117D01*
X1616371Y3098607D01*
X1615094Y3099884D01*
X1614242Y3100735D01*
X1614030Y3100948D01*
X1609134Y3105844D01*
X1607005Y3107972D01*
X1604877Y3110101D01*
X1603387Y3111804D01*
X1602110Y3113081D01*
X1601258Y3114145D01*
X1601046Y3114358D01*
X1598704Y3116912D01*
X1596576Y3119466D01*
X1594660Y3121808D01*
X1593170Y3123936D01*
X1591893Y3125639D01*
X1590829Y3127129D01*
X1590190Y3127980D01*
X1589977Y3128193D01*
X1597853Y3133940D01*
X1600407Y3133302D01*
D02*
G37*
G36*
X1949059Y3086900D02*
X1946504Y3083281D01*
X1945227Y3081366D01*
X1944376Y3079663D01*
X1943524Y3078386D01*
X1942886Y3077322D01*
X1942460Y3076470D01*
X1942247Y3076257D01*
X1939906Y3072000D01*
X1938842Y3070085D01*
X1937777Y3068169D01*
X1937139Y3066679D01*
X1936500Y3065615D01*
X1936287Y3064763D01*
X1936075Y3064550D01*
X1927986Y3068382D01*
X1929263Y3071149D01*
X1930540Y3073490D01*
X1931179Y3074554D01*
X1931605Y3075406D01*
X1931818Y3075832D01*
X1932030Y3076044D01*
X1933733Y3079024D01*
X1935436Y3081579D01*
X1936075Y3082430D01*
X1936500Y3083281D01*
X1936713Y3083707D01*
X1936926Y3083920D01*
X1938629Y3086687D01*
X1939906Y3088816D01*
X1940332Y3089454D01*
X1940757Y3090093D01*
X1940970Y3090305D01*
Y3090518D01*
X1949059Y3086900D01*
D02*
G37*
G36*
X2165529Y3079450D02*
X2166380Y3078599D01*
X2167019Y3077960D01*
X2167445Y3077534D01*
X2167658Y3077322D01*
X2167799Y3066895D01*
X2167870Y3066679D01*
X2168509Y3065827D01*
X2169360Y3064550D01*
X2170212Y3063060D01*
X2171489Y3061358D01*
X2173543Y3058198D01*
X2173617Y3057526D01*
Y3055823D01*
Y3054546D01*
Y3053482D01*
Y3052631D01*
Y3052205D01*
Y3051992D01*
Y3048799D01*
X2173830Y3046032D01*
Y3043478D01*
Y3041137D01*
X2174043Y3039434D01*
Y3037944D01*
Y3037092D01*
Y3036880D01*
Y3032410D01*
Y3030281D01*
Y3028578D01*
Y3026876D01*
Y3025811D01*
Y3024960D01*
Y3024747D01*
Y3020277D01*
Y3017936D01*
Y3015807D01*
X2174256Y3014104D01*
Y3012614D01*
Y3011763D01*
Y3011337D01*
Y3009847D01*
Y3008570D01*
Y3007506D01*
Y3007293D01*
Y3007080D01*
Y3005165D01*
X2174469Y3003675D01*
X2174682Y3002610D01*
Y3002398D01*
Y3002185D01*
X2160846D01*
X2161059Y3003888D01*
Y3005590D01*
X2161272Y3006655D01*
Y3006867D01*
Y3007080D01*
X2161485Y3008996D01*
Y3010486D01*
X2161698Y3011337D01*
Y3011763D01*
X2161911Y3016659D01*
Y3018787D01*
Y3020703D01*
X2162123Y3022193D01*
Y3023470D01*
Y3024321D01*
Y3024534D01*
X2162336Y3029004D01*
Y3030920D01*
Y3032835D01*
Y3034325D01*
Y3035603D01*
Y3036454D01*
Y3036667D01*
Y3041350D01*
Y3043478D01*
Y3045607D01*
Y3047309D01*
Y3048586D01*
Y3049651D01*
Y3049864D01*
Y3056249D01*
X2162123Y3059442D01*
Y3062209D01*
Y3064550D01*
X2161911Y3066466D01*
Y3067743D01*
Y3068169D01*
X2161900Y3068350D01*
X2163613Y3066466D01*
X2167870Y3061570D01*
X2167799Y3066895D01*
X2167658Y3067317D01*
X2167445Y3067530D01*
X2164495Y3080484D01*
X2165529Y3079450D01*
D02*
G37*
G36*
X1883500Y3060080D02*
X1879456Y3059016D01*
X1875199Y3057952D01*
X1871155Y3057101D01*
X1867323Y3056462D01*
X1864131Y3055823D01*
X1862641Y3055611D01*
X1861576D01*
X1860512Y3055398D01*
X1859874Y3055185D01*
X1859235D01*
X1854127Y3054759D01*
X1850541Y3054433D01*
X1850508Y3054759D01*
X1850295Y3057526D01*
X1849870Y3060506D01*
X1849657Y3063912D01*
X1849406Y3066040D01*
X1850082D01*
X1856255Y3066679D01*
X1859022Y3067105D01*
X1861576Y3067317D01*
X1863705Y3067743D01*
X1865408Y3067956D01*
X1866472Y3068169D01*
X1866898D01*
X1870090Y3068807D01*
X1873070Y3069446D01*
X1875625Y3070085D01*
X1877966Y3070936D01*
X1880095Y3071575D01*
X1881585Y3072000D01*
X1882436Y3072213D01*
X1882862Y3072426D01*
X1883500Y3060080D01*
D02*
G37*
G36*
X1807512Y3066679D02*
X1810279Y3066466D01*
X1812833Y3066253D01*
X1814962Y3066040D01*
X1816452Y3065827D01*
X1817942D01*
X1823902Y3065615D01*
X1826669D01*
X1829223Y3065402D01*
X1834331D01*
X1837416Y3065520D01*
X1837737Y3063273D01*
Y3062848D01*
X1837950Y3061996D01*
Y3060506D01*
X1838163Y3058591D01*
X1838376Y3056249D01*
X1838588Y3053908D01*
X1838601Y3053762D01*
X1837524Y3053695D01*
X1824327D01*
X1821986Y3053908D01*
X1817090D01*
X1811343Y3054333D01*
X1808789Y3054546D01*
X1806448Y3054759D01*
X1804532Y3054972D01*
X1802829Y3055185D01*
X1801978Y3055398D01*
X1801552D01*
X1801339Y3067530D01*
X1807512Y3066679D01*
D02*
G37*
G36*
X1682568Y3108611D02*
X1680439D01*
Y3097542D01*
X1685243D01*
X1684484Y3106269D01*
Y3108611D01*
X1704053D01*
X1704492Y3106269D01*
X1705556Y3102012D01*
X1706407Y3097542D01*
X1717635D01*
X1718114Y3095627D01*
X1718327Y3094137D01*
X1718753Y3093073D01*
X1718966Y3092008D01*
Y3091370D01*
X1719178Y3090944D01*
Y3090731D01*
X1720243Y3085836D01*
X1721307Y3081153D01*
X1722371Y3076896D01*
X1723223Y3073064D01*
X1724074Y3069872D01*
X1724287Y3068595D01*
X1724713Y3067530D01*
X1724925Y3066679D01*
Y3066040D01*
X1725138Y3065615D01*
Y3065402D01*
X1726203Y3061145D01*
X1727267Y3057101D01*
X1728118Y3053482D01*
X1728970Y3050502D01*
X1729608Y3047948D01*
X1730247Y3046032D01*
X1730460Y3044755D01*
X1730672Y3044542D01*
Y3044329D01*
X1720881Y3039008D01*
X1719817Y3042839D01*
X1718999Y3045784D01*
X1724925Y3049225D01*
X1718327Y3057739D01*
X1717901Y3057526D01*
X1716837Y3056888D01*
X1716102Y3056480D01*
X1716837Y3053908D01*
X1717688Y3050289D01*
X1718753Y3046671D01*
X1718999Y3045784D01*
X1718327Y3045394D01*
X1715347Y3043478D01*
X1712580Y3041562D01*
X1710239Y3039860D01*
X1708323Y3038582D01*
X1707259Y3037731D01*
X1706833Y3037518D01*
X1703427Y3034964D01*
X1702807Y3034509D01*
X1704066Y3032410D01*
X1705130Y3030494D01*
X1705982Y3029004D01*
X1706833Y3027727D01*
X1707472Y3026663D01*
X1708110Y3025811D01*
X1708323Y3025386D01*
X1708536Y3025173D01*
X1712367Y3020490D01*
X1716198Y3016233D01*
X1720030Y3012827D01*
X1723648Y3009847D01*
X1726841Y3007719D01*
X1729395Y3006016D01*
X1730247Y3005378D01*
X1730885Y3005165D01*
X1731311Y3004739D01*
X1731524D01*
X1730034Y3003249D01*
X1728757Y3001972D01*
X1727905Y3000695D01*
X1727480Y3000482D01*
Y3000269D01*
X1725990Y2998353D01*
X1724925Y2996651D01*
X1724287Y2995586D01*
X1724074Y2995373D01*
Y2995161D01*
X1718753Y2998566D01*
X1714070Y3002398D01*
X1709813Y3006442D01*
X1705982Y3010060D01*
X1703002Y3013253D01*
X1701937Y3014743D01*
X1700873Y3016020D01*
X1700022Y3016872D01*
X1699383Y3017723D01*
X1699170Y3018149D01*
X1698957Y3018362D01*
X1695126Y3024109D01*
X1693448Y3027151D01*
X1694700Y3028153D01*
X1697255Y3030281D01*
X1700235Y3032623D01*
X1702807Y3034509D01*
X1702789Y3034538D01*
X1701512Y3036880D01*
X1700235Y3039434D01*
X1698957Y3042201D01*
X1697733Y3044649D01*
X1698532Y3045181D01*
X1699596Y3046032D01*
X1699809Y3046245D01*
X1700022D01*
X1703427Y3048586D01*
X1706833Y3050928D01*
X1710026Y3052844D01*
X1712580Y3054546D01*
X1714921Y3055823D01*
X1716102Y3056480D01*
X1715986Y3056888D01*
X1715347Y3059229D01*
X1715134Y3060080D01*
Y3060719D01*
X1714921Y3061145D01*
Y3061358D01*
X1713857Y3066040D01*
X1712793Y3070723D01*
X1711729Y3075193D01*
X1710664Y3079237D01*
X1709813Y3082643D01*
X1709600Y3083920D01*
X1709387Y3085197D01*
X1708962Y3086261D01*
Y3086900D01*
X1708749Y3087326D01*
Y3087538D01*
X1707472Y3092647D01*
X1706407Y3097542D01*
X1685243D01*
X1685335Y3096478D01*
X1685974Y3091795D01*
X1686612Y3087538D01*
X1687251Y3083281D01*
X1687889Y3079450D01*
X1688741Y3075832D01*
X1689379Y3072426D01*
X1690018Y3069446D01*
X1690656Y3066892D01*
X1691082Y3064550D01*
X1691508Y3062635D01*
X1691933Y3061145D01*
X1692359Y3059868D01*
X1692572Y3059229D01*
Y3059016D01*
X1694913Y3051779D01*
X1697468Y3045181D01*
X1697733Y3044649D01*
X1696616Y3043904D01*
X1694275Y3042201D01*
X1691721Y3040285D01*
X1688741Y3038157D01*
X1688342Y3037829D01*
X1686399Y3042201D01*
X1685335Y3044755D01*
X1684484Y3047309D01*
X1683632Y3049438D01*
X1682994Y3051354D01*
X1682568Y3052844D01*
X1682142Y3053908D01*
X1681929Y3054759D01*
Y3054972D01*
X1679588Y3063486D01*
X1677885Y3072426D01*
X1676395Y3081153D01*
X1675757Y3085410D01*
X1675118Y3089454D01*
X1674692Y3093285D01*
X1674267Y3096691D01*
X1674054Y3099671D01*
X1673841Y3102438D01*
X1673628Y3104567D01*
X1673415Y3106269D01*
Y3107121D01*
Y3107546D01*
X1680439Y3109036D01*
X1682568Y3108611D01*
D02*
G37*
G36*
X1474824Y3073703D02*
X1478443Y3073277D01*
X1478869D01*
X1480146Y3073064D01*
X1482274Y3072852D01*
X1485041Y3072639D01*
X1485144Y3072632D01*
X1484828Y3072000D01*
X1484616Y3071362D01*
X1484403Y3071149D01*
Y3070936D01*
X1482487Y3066892D01*
X1480358Y3063060D01*
X1478443Y3059442D01*
X1476527Y3056249D01*
X1475037Y3053695D01*
X1473760Y3051566D01*
X1472909Y3050289D01*
X1472696Y3050076D01*
Y3049864D01*
X1474186Y3050076D01*
X1475889Y3050289D01*
X1479507Y3050502D01*
X1480997Y3050715D01*
X1482274Y3050928D01*
X1483338D01*
X1488234Y3051566D01*
X1490575Y3051779D01*
X1492491Y3051992D01*
X1494194Y3052205D01*
X1495471Y3052418D01*
X1496535D01*
X1497599Y3042839D01*
X1493342Y3042414D01*
X1491427Y3041988D01*
X1489511Y3041775D01*
X1488021Y3041562D01*
X1486744D01*
X1485893Y3041350D01*
X1485680D01*
X1480997Y3040924D01*
X1478869Y3040498D01*
X1477166Y3040285D01*
X1475463Y3040072D01*
X1474399D01*
X1473547Y3039860D01*
X1473334D01*
X1470993Y3039434D01*
X1469077Y3039221D01*
X1467162Y3038795D01*
X1465672Y3038582D01*
X1464395Y3038157D01*
X1463543Y3037944D01*
X1462905Y3037731D01*
X1462692D01*
X1456306Y3047522D01*
X1457370Y3048799D01*
X1458435Y3049864D01*
X1459286Y3050502D01*
X1459499Y3050715D01*
X1460563Y3051992D01*
X1461415Y3053269D01*
X1461840Y3054121D01*
X1462053Y3054333D01*
X1465033Y3059016D01*
X1466310Y3061145D01*
X1467587Y3063060D01*
X1468652Y3064763D01*
X1469290Y3066253D01*
X1469716Y3067105D01*
X1469929Y3067317D01*
X1472483Y3072426D01*
X1473400Y3073954D01*
X1474824Y3073703D01*
D02*
G37*
G36*
X2169573Y3095840D02*
X2171188Y3095660D01*
X2171276Y3094775D01*
X2171489Y3092860D01*
Y3091370D01*
X2171702Y3090518D01*
Y3090093D01*
X2171915Y3084558D01*
X2172127Y3082004D01*
X2172329Y3079788D01*
X2173192Y3078386D01*
X2173830Y3077109D01*
X2174469Y3076257D01*
X2174895Y3075619D01*
X2175107Y3075406D01*
X2177662Y3071575D01*
X2179152Y3069659D01*
X2180216Y3067956D01*
X2181280Y3066466D01*
X2182132Y3065402D01*
X2182770Y3064550D01*
X2182983Y3064338D01*
X2186176Y3059868D01*
X2187666Y3057952D01*
X2188943Y3056036D01*
X2190220Y3054546D01*
X2191071Y3053269D01*
X2191710Y3052418D01*
X2191923Y3052205D01*
X2195115Y3047735D01*
X2196605Y3045819D01*
X2197883Y3044117D01*
X2198947Y3042627D01*
X2199798Y3041562D01*
X2200224Y3040924D01*
X2200437Y3040711D01*
X2203204Y3037092D01*
X2204481Y3035603D01*
X2205545Y3034325D01*
X2206397Y3033261D01*
X2206822Y3032410D01*
X2207248Y3031984D01*
X2207461Y3031771D01*
X2199373Y3020703D01*
X2196605Y3024747D01*
X2195115Y3026663D01*
X2194051Y3028366D01*
X2192987Y3030068D01*
X2192136Y3031133D01*
X2191497Y3031984D01*
X2191284Y3032197D01*
X2188091Y3036880D01*
X2186601Y3039008D01*
X2185324Y3040924D01*
X2184047Y3042627D01*
X2183196Y3043904D01*
X2182770Y3044755D01*
X2182557Y3044968D01*
X2179364Y3049651D01*
X2177874Y3051566D01*
X2176810Y3053482D01*
X2175746Y3054972D01*
X2174895Y3056036D01*
X2174469Y3056888D01*
X2174256Y3057101D01*
X2173543Y3058198D01*
X2173405Y3059442D01*
Y3061570D01*
Y3061783D01*
Y3062635D01*
X2173192Y3063912D01*
Y3065615D01*
X2172979Y3067530D01*
X2172766Y3069872D01*
Y3072426D01*
X2172553Y3074980D01*
Y3075406D01*
Y3076257D01*
X2172340Y3077747D01*
Y3079663D01*
X2172329Y3079788D01*
X2171489Y3081153D01*
X2169999Y3083707D01*
X2169360Y3091795D01*
X2168083Y3096052D01*
X2168509D01*
X2169573Y3095840D01*
D02*
G37*
G36*
X2616350Y3043478D02*
X2616775Y3041988D01*
X2616988Y3040498D01*
X2617201Y3039221D01*
Y3038370D01*
X2617414Y3037731D01*
Y3037518D01*
X2617840Y3034113D01*
X2618052Y3031345D01*
Y3030068D01*
Y3029217D01*
Y3028578D01*
Y3028366D01*
X2617840Y3026237D01*
X2617627Y3024321D01*
X2616562Y3020703D01*
X2614860Y3017723D01*
X2612944Y3015169D01*
X2611241Y3013253D01*
X2609538Y3011976D01*
X2608474Y3011125D01*
X2608048Y3010912D01*
X2604004Y3008996D01*
X2599321Y3007506D01*
X2594639Y3006655D01*
X2589956Y3005803D01*
X2585699Y3005378D01*
X2583996D01*
X2582293Y3005165D01*
X2576121D01*
X2573141Y3005378D01*
X2570374D01*
X2567819Y3005590D01*
X2565904D01*
X2564201Y3005803D01*
X2562924D01*
X2559944Y3006016D01*
X2557390Y3006442D01*
X2555048Y3006655D01*
X2552920Y3006867D01*
X2551004Y3007080D01*
X2549727Y3007293D01*
X2548876Y3007506D01*
X2548663D01*
X2548237Y3020064D01*
X2553771Y3019000D01*
X2556325Y3018574D01*
X2558667Y3018362D01*
X2560582Y3018149D01*
X2562072Y3017936D01*
X2563137Y3017723D01*
X2563562D01*
X2569309Y3017297D01*
X2572076Y3017084D01*
X2574418D01*
X2576333Y3016872D01*
X2582293D01*
X2584848Y3017084D01*
X2587189Y3017297D01*
X2589317Y3017510D01*
X2590807Y3017723D01*
X2591872Y3017936D01*
X2592723Y3018149D01*
X2592936D01*
X2594852Y3018574D01*
X2596554Y3019213D01*
X2597831Y3019851D01*
X2599109Y3020277D01*
X2599960Y3020916D01*
X2600599Y3021129D01*
X2601024Y3021554D01*
X2601237D01*
X2602940Y3023257D01*
X2604217Y3024747D01*
X2604856Y3025811D01*
X2605068Y3026024D01*
Y3026237D01*
X2605707Y3028153D01*
X2605920Y3030068D01*
X2606133Y3031345D01*
Y3031558D01*
Y3031771D01*
X2605920Y3034113D01*
X2605707Y3036454D01*
Y3037305D01*
X2605494Y3037944D01*
Y3038370D01*
Y3038582D01*
X2604856Y3041350D01*
X2604430Y3043691D01*
X2604217Y3044542D01*
X2604004Y3045394D01*
X2603791Y3045819D01*
Y3046032D01*
X2615711Y3047097D01*
X2616350Y3043478D01*
D02*
G37*
G36*
X1350944Y3041350D02*
X1351370Y3039647D01*
X1351583Y3038157D01*
X1351796Y3036880D01*
Y3036028D01*
X1352009Y3035390D01*
Y3035177D01*
X1352434Y3031984D01*
X1352647Y3029004D01*
Y3027940D01*
Y3027088D01*
Y3026450D01*
Y3026237D01*
X1352434Y3024109D01*
X1352222Y3021980D01*
X1351157Y3018362D01*
X1349455Y3015382D01*
X1347539Y3013040D01*
X1345836Y3011125D01*
X1344133Y3009635D01*
X1343069Y3008783D01*
X1342643Y3008570D01*
X1338599Y3006655D01*
X1333916Y3005165D01*
X1329234Y3004313D01*
X1324551Y3003462D01*
X1320294Y3003036D01*
X1318591D01*
X1316888Y3002823D01*
X1310715D01*
X1307736Y3003036D01*
X1304968D01*
X1302414Y3003249D01*
X1300499Y3003462D01*
X1298796D01*
X1297944Y3003675D01*
X1297519D01*
X1294539Y3003888D01*
X1291984Y3004100D01*
X1289643Y3004526D01*
X1287515Y3004739D01*
X1285599Y3004952D01*
X1284322D01*
X1283470Y3005165D01*
X1283258D01*
X1282832Y3017936D01*
X1288366Y3016872D01*
X1290920Y3016446D01*
X1293262Y3016020D01*
X1295177Y3015807D01*
X1296667Y3015594D01*
X1297731Y3015382D01*
X1298157D01*
X1303904Y3014956D01*
X1306458D01*
X1308800Y3014743D01*
X1316675D01*
X1319442Y3014956D01*
X1321784Y3015169D01*
X1323699Y3015382D01*
X1325402Y3015594D01*
X1326466Y3015807D01*
X1327318Y3016020D01*
X1327531D01*
X1329234Y3016446D01*
X1330936Y3017084D01*
X1332426Y3017510D01*
X1333491Y3018149D01*
X1334342Y3018574D01*
X1334981Y3019000D01*
X1335406Y3019213D01*
X1335619D01*
X1337322Y3020916D01*
X1338599Y3022406D01*
X1339238Y3023470D01*
X1339450Y3023683D01*
Y3023896D01*
X1340089Y3026024D01*
X1340302Y3027727D01*
X1340515Y3029004D01*
Y3029217D01*
Y3029430D01*
X1340302Y3031771D01*
X1340089Y3034113D01*
Y3034964D01*
X1339876Y3035603D01*
Y3036028D01*
Y3036241D01*
X1339450Y3039008D01*
X1338812Y3041350D01*
X1338599Y3042201D01*
Y3043052D01*
X1338386Y3043478D01*
Y3043691D01*
X1350306Y3044968D01*
X1350944Y3041350D01*
D02*
G37*
G36*
X2495237Y3129257D02*
X2495024Y3126703D01*
X2494811Y3125639D01*
Y3124788D01*
Y3124362D01*
Y3124149D01*
X2494598Y3121169D01*
X2494385Y3118402D01*
Y3117338D01*
Y3116486D01*
Y3115848D01*
Y3115635D01*
Y3113719D01*
Y3111591D01*
Y3109675D01*
Y3107546D01*
X2494598Y3105844D01*
Y3104567D01*
Y3103715D01*
Y3103289D01*
X2494811Y3097542D01*
Y3094775D01*
Y3092221D01*
X2495024Y3090093D01*
Y3088390D01*
Y3087326D01*
Y3086900D01*
Y3080514D01*
X2495237Y3077322D01*
Y3074767D01*
Y3072426D01*
X2495450Y3070510D01*
Y3069446D01*
Y3069233D01*
Y3069020D01*
Y3065615D01*
X2495663Y3062422D01*
Y3059442D01*
Y3056675D01*
X2495875Y3054333D01*
Y3052631D01*
Y3051566D01*
Y3051141D01*
Y3047948D01*
X2496088Y3044968D01*
Y3042414D01*
Y3040072D01*
Y3038157D01*
Y3036667D01*
Y3035815D01*
Y3035390D01*
X2495875Y3030707D01*
X2495237Y3026663D01*
X2494598Y3023257D01*
X2493534Y3020277D01*
X2492683Y3017936D01*
X2492044Y3016233D01*
X2491405Y3015169D01*
X2491193Y3014743D01*
X2489064Y3011976D01*
X2486936Y3009847D01*
X2484594Y3007932D01*
X2482253Y3006442D01*
X2480337Y3005165D01*
X2478847Y3004313D01*
X2477783Y3003888D01*
X2477357Y3003675D01*
X2473952Y3002398D01*
X2470546Y3001546D01*
X2467140Y3000908D01*
X2464160Y3000482D01*
X2461393Y3000269D01*
X2459265Y3000056D01*
X2457349D01*
X2452666Y3000269D01*
X2448197Y3000695D01*
X2444152Y3001120D01*
X2440747Y3001759D01*
X2437980Y3002398D01*
X2435851Y3003036D01*
X2435000Y3003249D01*
X2434361D01*
X2434148Y3003462D01*
X2433935D01*
X2430104Y3004739D01*
X2426486Y3006229D01*
X2423293Y3007719D01*
X2420526Y3008996D01*
X2418397Y3010273D01*
X2416694Y3011125D01*
X2415630Y3011763D01*
X2415204Y3011976D01*
X2412225Y3013892D01*
X2409670Y3015807D01*
X2407116Y3017723D01*
X2405200Y3019426D01*
X2403498Y3020916D01*
X2402220Y3021980D01*
X2401369Y3022831D01*
X2401156Y3023044D01*
X2399028Y3025386D01*
X2397112Y3027514D01*
X2395409Y3029430D01*
X2393919Y3031345D01*
X2392642Y3032835D01*
X2391791Y3033900D01*
X2391365Y3034751D01*
X2391152Y3034964D01*
X2400092Y3045819D01*
X2403285Y3041350D01*
X2404988Y3039221D01*
X2406478Y3037518D01*
X2407755Y3035815D01*
X2408819Y3034751D01*
X2409457Y3033900D01*
X2409670Y3033687D01*
X2413715Y3029643D01*
X2415843Y3027940D01*
X2417759Y3026237D01*
X2419462Y3024960D01*
X2420739Y3024109D01*
X2421590Y3023470D01*
X2421803Y3023257D01*
X2427124Y3020064D01*
X2429678Y3018787D01*
X2432020Y3017723D01*
X2434148Y3016872D01*
X2435851Y3016233D01*
X2436915Y3016020D01*
X2437341Y3015807D01*
X2440747Y3014956D01*
X2444152Y3014317D01*
X2447345Y3013679D01*
X2450325Y3013466D01*
X2453092Y3013253D01*
X2455008Y3013040D01*
X2459691D01*
X2462245Y3013466D01*
X2464586Y3013679D01*
X2466502Y3014104D01*
X2468205Y3014530D01*
X2469482Y3014743D01*
X2470333Y3015169D01*
X2470546D01*
X2472675Y3016233D01*
X2474377Y3017297D01*
X2475867Y3018574D01*
X2477357Y3019851D01*
X2478209Y3020916D01*
X2479060Y3021767D01*
X2479486Y3022406D01*
X2479699Y3022619D01*
X2480763Y3024747D01*
X2481614Y3027088D01*
X2482253Y3029430D01*
X2482679Y3031558D01*
X2482891Y3033687D01*
X2483104Y3035177D01*
Y3036241D01*
Y3036667D01*
Y3043478D01*
Y3046671D01*
X2482891Y3049651D01*
Y3052418D01*
Y3054333D01*
Y3055185D01*
Y3055823D01*
Y3056036D01*
Y3056249D01*
Y3060293D01*
X2482679Y3064338D01*
Y3067956D01*
Y3071362D01*
X2482466Y3074129D01*
Y3076257D01*
Y3077109D01*
Y3077747D01*
Y3077960D01*
Y3078173D01*
X2482253Y3082217D01*
Y3086048D01*
X2482040Y3089667D01*
Y3092860D01*
X2481827Y3095414D01*
Y3097330D01*
Y3098607D01*
Y3099032D01*
X2481614Y3102651D01*
Y3105844D01*
X2481401Y3108611D01*
Y3111165D01*
X2481189Y3113081D01*
Y3114358D01*
Y3115422D01*
Y3115635D01*
X2480976Y3118615D01*
Y3121169D01*
X2480763Y3122233D01*
Y3123085D01*
Y3123510D01*
Y3123723D01*
X2480337Y3126703D01*
X2480124Y3129257D01*
X2479911Y3130322D01*
X2479699Y3131173D01*
Y3131599D01*
Y3131812D01*
X2495663D01*
X2495237Y3129257D01*
D02*
G37*
G36*
X1546768Y3048799D02*
X1547620Y3047097D01*
X1548258Y3045607D01*
X1548684Y3044117D01*
X1549110Y3043052D01*
X1549535Y3042414D01*
Y3042201D01*
X1550387Y3037944D01*
X1550812Y3036028D01*
Y3034113D01*
X1551025Y3032410D01*
Y3031133D01*
Y3030068D01*
Y3029856D01*
X1550812Y3026237D01*
X1549961Y3023044D01*
X1549110Y3020277D01*
X1548045Y3017936D01*
X1546981Y3016020D01*
X1546130Y3014530D01*
X1545491Y3013679D01*
X1545278Y3013466D01*
X1542937Y3011125D01*
X1540383Y3009209D01*
X1537616Y3007719D01*
X1535061Y3006229D01*
X1532507Y3005165D01*
X1530592Y3004526D01*
X1529314Y3004100D01*
X1529102Y3003888D01*
X1528889D01*
X1524632Y3002823D01*
X1519949Y3001972D01*
X1515692Y3001546D01*
X1511435Y3001120D01*
X1507816Y3000908D01*
X1506114Y3000695D01*
X1498451D01*
X1494832Y3000908D01*
X1491640D01*
X1488660Y3001120D01*
X1486105D01*
X1484403Y3001333D01*
X1482700D01*
X1479294Y3001546D01*
X1476101Y3001972D01*
X1473122Y3002185D01*
X1470354Y3002610D01*
X1468226Y3002823D01*
X1466736Y3003036D01*
X1465672Y3003249D01*
X1465246D01*
X1464607Y3015807D01*
X1470993Y3014743D01*
X1474186Y3014317D01*
X1476740Y3013892D01*
X1479081Y3013679D01*
X1480997Y3013466D01*
X1482061Y3013253D01*
X1482487D01*
X1489298Y3012827D01*
X1492704Y3012614D01*
X1495897D01*
X1498451Y3012402D01*
X1505901D01*
X1509094Y3012614D01*
X1512073Y3012827D01*
X1514628Y3013253D01*
X1517182Y3013466D01*
X1519523Y3013892D01*
X1521439Y3014317D01*
X1523355Y3014956D01*
X1525057Y3015382D01*
X1526335Y3015807D01*
X1527612Y3016233D01*
X1528463Y3016446D01*
X1529314Y3016872D01*
X1529740Y3017084D01*
X1530166Y3017297D01*
X1533146Y3019426D01*
X1535274Y3021767D01*
X1536977Y3024321D01*
X1538041Y3026663D01*
X1538680Y3028791D01*
X1538893Y3030494D01*
X1539106Y3031771D01*
Y3032197D01*
X1538893Y3036028D01*
X1538467Y3037518D01*
X1538041Y3039008D01*
X1537829Y3040072D01*
X1537403Y3041137D01*
X1537190Y3041562D01*
Y3041775D01*
X1535700Y3044968D01*
X1534210Y3047522D01*
X1533571Y3048586D01*
X1532933Y3049438D01*
X1532720Y3049864D01*
X1532507Y3050076D01*
X1544853Y3052631D01*
X1546768Y3048799D01*
D02*
G37*
G36*
X1688953Y3036454D02*
X1691721Y3030281D01*
X1693448Y3027151D01*
X1692572Y3026450D01*
X1690869Y3025173D01*
X1690018Y3024321D01*
X1689592Y3023896D01*
X1686825Y3021341D01*
X1684271Y3019000D01*
X1682142Y3016872D01*
X1680439Y3014956D01*
X1679162Y3013253D01*
X1678098Y3012189D01*
X1677459Y3011337D01*
X1677247Y3011125D01*
X1669797Y3020703D01*
X1671712Y3023044D01*
X1673841Y3025173D01*
X1675969Y3027301D01*
X1678098Y3029217D01*
X1680014Y3030920D01*
X1681504Y3032197D01*
X1682355Y3033048D01*
X1682781Y3033261D01*
X1688342Y3037829D01*
X1688953Y3036454D01*
D02*
G37*
G36*
X1177044Y3046884D02*
X1176832Y3044117D01*
X1176619Y3037944D01*
Y3037518D01*
Y3036667D01*
X1176483Y3035719D01*
X1174064Y3034751D01*
X1171297Y3033687D01*
X1168956Y3032623D01*
X1167040Y3031771D01*
X1165976Y3031133D01*
X1165550Y3030920D01*
X1162145Y3029217D01*
X1158952Y3027514D01*
X1156185Y3025811D01*
X1153631Y3024109D01*
X1151715Y3022831D01*
X1150012Y3021767D01*
X1149161Y3020916D01*
X1148735Y3020703D01*
X1145968Y3018574D01*
X1143414Y3016659D01*
X1141072Y3014743D01*
X1138944Y3012827D01*
X1137454Y3011337D01*
X1136177Y3010273D01*
X1135325Y3009422D01*
X1135113Y3009209D01*
X1127663Y3021129D01*
X1130004Y3023257D01*
X1132345Y3025173D01*
X1134687Y3027088D01*
X1137028Y3028578D01*
X1138944Y3030068D01*
X1140434Y3031133D01*
X1141498Y3031771D01*
X1141924Y3031984D01*
X1148097Y3035815D01*
X1151076Y3037518D01*
X1153844Y3039008D01*
X1156185Y3040285D01*
X1158101Y3041137D01*
X1159378Y3041775D01*
X1159591Y3041988D01*
X1159803D01*
X1167253Y3044968D01*
X1170659Y3046245D01*
X1173852Y3047097D01*
X1176619Y3047948D01*
X1177146Y3048106D01*
X1177044Y3046884D01*
D02*
G37*
G36*
X2748318Y3097755D02*
X2748531Y3096691D01*
X2748744Y3096052D01*
Y3095627D01*
X2748956Y3094350D01*
X2749382Y3093285D01*
X2749595Y3092434D01*
Y3092221D01*
X2749808Y3091157D01*
Y3090305D01*
X2750021Y3089667D01*
Y3089454D01*
X2750556Y3087689D01*
X2751085Y3087751D01*
X2752575D01*
X2753852Y3087964D01*
X2756406D01*
X2762153Y3087751D01*
X2765133Y3087538D01*
X2767687Y3087113D01*
X2769816Y3086900D01*
X2771732Y3086474D01*
X2772796Y3086261D01*
X2773222D01*
X2776627Y3085623D01*
X2779607Y3084771D01*
X2782587Y3084133D01*
X2783067Y3084013D01*
X2783226Y3081791D01*
X2783438Y3078386D01*
Y3074554D01*
X2783526Y3072894D01*
X2782374Y3073277D01*
X2780033Y3074129D01*
X2778117Y3074767D01*
X2776627Y3075193D01*
X2775563Y3075619D01*
X2775137D01*
X2771944Y3076470D01*
X2768539Y3076896D01*
X2765559Y3077322D01*
X2762579Y3077747D01*
X2760238D01*
X2758322Y3077960D01*
X2756619D01*
X2754052Y3077832D01*
X2754703Y3076257D01*
X2757045Y3070510D01*
X2758322Y3068169D01*
X2759386Y3065827D01*
X2760450Y3063699D01*
X2761515Y3061996D01*
X2762366Y3060293D01*
X2763217Y3059016D01*
X2763856Y3057952D01*
X2764282Y3057313D01*
X2764495Y3056888D01*
X2764707Y3056675D01*
X2768113Y3051992D01*
X2771519Y3047522D01*
X2774924Y3043904D01*
X2777904Y3040498D01*
X2780458Y3037944D01*
X2780849Y3037554D01*
X2780884Y3037731D01*
X2781310Y3040498D01*
X2781736Y3043052D01*
X2782161Y3044755D01*
X2782374Y3046032D01*
Y3046458D01*
X2783013Y3053695D01*
X2783438Y3057101D01*
Y3060080D01*
X2783651Y3062635D01*
Y3064763D01*
Y3066040D01*
Y3066253D01*
Y3066466D01*
Y3070510D01*
X2783526Y3072894D01*
X2784928Y3072426D01*
X2787270Y3071575D01*
X2789611Y3070510D01*
X2790037Y3070297D01*
X2791101Y3069872D01*
X2792804Y3069020D01*
X2794720Y3067871D01*
Y3066679D01*
Y3065615D01*
Y3065189D01*
Y3061358D01*
X2794507Y3057739D01*
X2794294Y3054333D01*
X2794081Y3051141D01*
X2793868Y3048586D01*
X2793655Y3046458D01*
X2793442Y3045181D01*
Y3044968D01*
Y3044755D01*
X2793017Y3040924D01*
X2792378Y3037305D01*
X2791953Y3033900D01*
X2791314Y3030920D01*
X2791003Y3029211D01*
X2792591Y3028153D01*
X2794932Y3026663D01*
X2796848Y3025598D01*
X2798338Y3024747D01*
X2799189Y3024321D01*
X2799615Y3024109D01*
X2802169Y3023044D01*
X2804724Y3022193D01*
X2807065Y3021554D01*
X2808981Y3021129D01*
X2810471Y3020916D01*
X2811748Y3020703D01*
X2812812D01*
X2814302Y3020916D01*
X2815792Y3021129D01*
X2817920Y3021980D01*
X2818559Y3022406D01*
X2819198Y3022619D01*
X2819410Y3023044D01*
X2819623D01*
X2820262Y3024109D01*
X2820900Y3025386D01*
X2821539Y3027727D01*
Y3028791D01*
X2821752Y3029643D01*
Y3030281D01*
Y3030494D01*
X2821539Y3033261D01*
X2821113Y3036028D01*
X2820475Y3038582D01*
X2819623Y3040924D01*
X2818772Y3042839D01*
X2818133Y3044329D01*
X2817708Y3045181D01*
X2817495Y3045607D01*
X2815792Y3048374D01*
X2813876Y3051141D01*
X2811961Y3053482D01*
X2810045Y3055611D01*
X2808555Y3057313D01*
X2807278Y3058803D01*
X2806214Y3059655D01*
X2806001Y3059868D01*
X2803234Y3062209D01*
X2800254Y3064338D01*
X2797487Y3066253D01*
X2794932Y3067743D01*
X2794720Y3067871D01*
Y3068169D01*
Y3070510D01*
X2794507Y3072852D01*
Y3075832D01*
X2794371Y3079769D01*
X2796422Y3078811D01*
X2799189Y3077322D01*
X2801744Y3075832D01*
X2803872Y3074342D01*
X2805575Y3073490D01*
X2806426Y3072639D01*
X2806852Y3072426D01*
X2809619Y3070297D01*
X2812386Y3068169D01*
X2814728Y3066040D01*
X2816856Y3063912D01*
X2818559Y3062209D01*
X2819836Y3060932D01*
X2820688Y3060080D01*
X2820900Y3059655D01*
X2823029Y3057101D01*
X2824945Y3054333D01*
X2826647Y3051779D01*
X2827924Y3049438D01*
X2828989Y3047522D01*
X2829840Y3045819D01*
X2830266Y3044968D01*
X2830479Y3044542D01*
X2831543Y3041562D01*
X2832394Y3038795D01*
X2833033Y3036028D01*
X2833459Y3033687D01*
X2833671Y3031558D01*
X2833884Y3030068D01*
Y3029004D01*
Y3028578D01*
X2833671Y3026237D01*
X2833459Y3023896D01*
X2833033Y3021980D01*
X2832607Y3020490D01*
X2832182Y3019000D01*
X2831756Y3018149D01*
X2831330Y3017510D01*
Y3017297D01*
X2829202Y3014530D01*
X2826860Y3012402D01*
X2826009Y3011763D01*
X2825157Y3011125D01*
X2824732Y3010912D01*
X2824519Y3010699D01*
X2821326Y3009422D01*
X2818133Y3008783D01*
X2817069D01*
X2816005Y3008570D01*
X2815153D01*
X2811961Y3008783D01*
X2808981Y3009209D01*
X2806001Y3009847D01*
X2803447Y3010486D01*
X2801105Y3011125D01*
X2799402Y3011763D01*
X2798338Y3012189D01*
X2797912Y3012402D01*
X2794507Y3014104D01*
X2791314Y3015594D01*
X2788547Y3017297D01*
X2788334Y3017439D01*
X2787908Y3015594D01*
X2787057Y3013253D01*
X2786418Y3011125D01*
X2785993Y3009635D01*
X2785780Y3008783D01*
X2785567Y3008357D01*
X2774286Y3011763D01*
X2775989Y3017510D01*
X2776627Y3020064D01*
X2777479Y3022619D01*
X2777904Y3024747D01*
X2774924Y3027514D01*
X2772157Y3030068D01*
X2769816Y3032410D01*
X2767687Y3034751D01*
X2766197Y3036454D01*
X2765346Y3037518D01*
X2764920Y3037944D01*
X2761940Y3041562D01*
X2759386Y3045394D01*
X2756832Y3049012D01*
X2754703Y3052418D01*
X2753001Y3055398D01*
X2751511Y3057526D01*
X2751085Y3058378D01*
X2750659Y3059016D01*
X2750446Y3059442D01*
Y3059655D01*
X2747892Y3064338D01*
X2745764Y3069020D01*
X2743848Y3073490D01*
X2742720Y3076168D01*
X2745125Y3076683D01*
X2748531Y3077322D01*
X2752362Y3077747D01*
X2754052Y3077832D01*
X2752149Y3082430D01*
X2750556Y3087689D01*
X2747466Y3087326D01*
X2743422Y3086687D01*
X2739215Y3085635D01*
X2739165Y3085836D01*
X2738952Y3086261D01*
Y3086474D01*
X2738527Y3087538D01*
X2738314Y3088603D01*
X2738101Y3089241D01*
Y3089454D01*
X2737675Y3090731D01*
X2737250Y3091795D01*
X2736824Y3092647D01*
Y3092860D01*
X2736398Y3093924D01*
X2735972Y3094988D01*
X2735760Y3095414D01*
Y3095627D01*
X2748318Y3098607D01*
Y3097755D01*
D02*
G37*
G36*
X2631036Y3096052D02*
X2634868Y3095840D01*
X2638699Y3095414D01*
X2639125D01*
X2640402Y3095201D01*
X2642530D01*
X2642844Y3095173D01*
X2643169Y3093711D01*
X2643382Y3092221D01*
X2643808Y3090944D01*
X2644020Y3090093D01*
Y3089880D01*
X2645085Y3085410D01*
X2645510Y3083494D01*
X2646149Y3081579D01*
X2646362Y3080089D01*
X2646787Y3079024D01*
X2647000Y3078173D01*
Y3077960D01*
X2648916Y3071787D01*
X2649767Y3068807D01*
X2650619Y3066040D01*
X2651470Y3063699D01*
X2651896Y3061783D01*
X2652322Y3060506D01*
X2652534Y3060293D01*
Y3060080D01*
X2653599Y3056462D01*
X2654876Y3052844D01*
X2655940Y3049438D01*
X2657004Y3046458D01*
X2657856Y3043904D01*
X2658494Y3041988D01*
X2658920Y3040711D01*
X2659133Y3040498D01*
Y3040285D01*
X2660410Y3036667D01*
X2661687Y3033261D01*
X2662964Y3030068D01*
X2664028Y3027301D01*
X2664880Y3024960D01*
X2665731Y3023257D01*
X2666157Y3022193D01*
X2666370Y3021767D01*
X2667647Y3018787D01*
X2668924Y3016020D01*
X2670201Y3013466D01*
X2671265Y3011337D01*
X2672330Y3009635D01*
X2672968Y3008357D01*
X2673394Y3007506D01*
X2673607Y3007293D01*
X2659771Y3002610D01*
X2658707Y3005165D01*
X2657430Y3007719D01*
X2656366Y3010273D01*
X2655514Y3012614D01*
X2654663Y3014743D01*
X2654024Y3016446D01*
X2653599Y3017510D01*
X2653386Y3017936D01*
X2650832Y3024747D01*
X2649555Y3027940D01*
X2648490Y3030707D01*
X2647639Y3033261D01*
X2647000Y3035177D01*
X2646575Y3036454D01*
X2646362Y3036667D01*
Y3036880D01*
X2645085Y3040711D01*
X2644020Y3044117D01*
X2642743Y3047522D01*
X2641892Y3050502D01*
X2641040Y3053056D01*
X2640402Y3054972D01*
X2640189Y3056249D01*
X2639976Y3056675D01*
X2638912Y3060293D01*
X2637848Y3063699D01*
X2636996Y3066892D01*
X2636358Y3069659D01*
X2635719Y3071787D01*
X2635293Y3073490D01*
X2634868Y3074554D01*
Y3074980D01*
X2633378Y3080940D01*
X2632739Y3083707D01*
X2632101Y3086048D01*
X2631675Y3088177D01*
X2631249Y3089880D01*
X2631036Y3090731D01*
Y3091157D01*
X2630398Y3094137D01*
X2629960Y3096179D01*
X2631036Y3096052D01*
D02*
G37*
G36*
X1790484Y3072426D02*
X1787504Y3069659D01*
X1784737Y3066892D01*
X1782608Y3064125D01*
X1780693Y3061570D01*
X1779203Y3059655D01*
X1778351Y3057952D01*
X1777713Y3056888D01*
X1777500Y3056462D01*
X1776010Y3053269D01*
X1774946Y3050289D01*
X1774307Y3047522D01*
X1773669Y3045181D01*
X1773456Y3043052D01*
X1773243Y3041350D01*
Y3040498D01*
Y3040072D01*
X1773456Y3037092D01*
X1774094Y3034538D01*
X1774733Y3031984D01*
X1775584Y3029856D01*
X1776648Y3028153D01*
X1777287Y3026876D01*
X1777926Y3026024D01*
X1778138Y3025811D01*
X1780054Y3023683D01*
X1782183Y3021767D01*
X1784524Y3020277D01*
X1786653Y3019000D01*
X1788781Y3017936D01*
X1790271Y3017084D01*
X1791335Y3016659D01*
X1791761Y3016446D01*
X1795167Y3015382D01*
X1798785Y3014530D01*
X1802191Y3013892D01*
X1805596Y3013466D01*
X1808363Y3013253D01*
X1810705Y3013040D01*
X1812833D01*
X1817516Y3013253D01*
X1821560Y3014104D01*
X1824966Y3015169D01*
X1827946Y3016446D01*
X1830074Y3017510D01*
X1831564Y3018574D01*
X1832629Y3019426D01*
X1832841Y3019639D01*
X1834970Y3022406D01*
X1836673Y3025386D01*
X1837737Y3028578D01*
X1838588Y3031558D01*
X1839014Y3034113D01*
X1839227Y3036241D01*
X1839440Y3037092D01*
Y3037731D01*
Y3037944D01*
Y3038157D01*
Y3041562D01*
X1839227Y3045181D01*
Y3046458D01*
X1839014Y3047735D01*
Y3048586D01*
Y3048799D01*
X1838601Y3053762D01*
X1840930Y3053908D01*
X1844974Y3054121D01*
X1849444Y3054333D01*
X1850541Y3054433D01*
X1850721Y3052631D01*
Y3050928D01*
X1850934Y3049864D01*
Y3049438D01*
X1851147Y3046458D01*
X1851360Y3043904D01*
Y3041562D01*
X1851572Y3039647D01*
Y3038157D01*
Y3037092D01*
Y3036454D01*
Y3036241D01*
X1851360Y3031558D01*
X1850721Y3027514D01*
X1849870Y3023896D01*
X1849018Y3020916D01*
X1848167Y3018574D01*
X1847315Y3016872D01*
X1846677Y3015807D01*
X1846464Y3015382D01*
X1844335Y3012614D01*
X1841994Y3010486D01*
X1839653Y3008570D01*
X1837524Y3007080D01*
X1835396Y3005803D01*
X1833906Y3004952D01*
X1832841Y3004526D01*
X1832416Y3004313D01*
X1829010Y3003249D01*
X1825604Y3002398D01*
X1822199Y3001759D01*
X1819219Y3001333D01*
X1816665Y3001120D01*
X1814536Y3000908D01*
X1812833D01*
X1807086Y3001120D01*
X1801978Y3001546D01*
X1797295Y3002398D01*
X1793251Y3003249D01*
X1789845Y3003888D01*
X1788568Y3004313D01*
X1787504Y3004739D01*
X1786653Y3004952D01*
X1785801Y3005165D01*
X1785588Y3005378D01*
X1785375D01*
X1781118Y3007293D01*
X1777500Y3009209D01*
X1774307Y3011550D01*
X1771540Y3013466D01*
X1769624Y3015382D01*
X1768134Y3016872D01*
X1767070Y3017936D01*
X1766857Y3018362D01*
X1764729Y3021767D01*
X1763026Y3025173D01*
X1761962Y3028578D01*
X1761110Y3031771D01*
X1760685Y3034538D01*
X1760259Y3036667D01*
Y3037518D01*
Y3038157D01*
Y3038370D01*
Y3038582D01*
X1760472Y3042414D01*
X1760897Y3046032D01*
X1761536Y3049225D01*
X1762387Y3051992D01*
X1763239Y3054333D01*
X1763877Y3056036D01*
X1764303Y3057101D01*
X1764516Y3057526D01*
X1766219Y3060719D01*
X1768134Y3063912D01*
X1770050Y3067105D01*
X1772179Y3069659D01*
X1773881Y3072000D01*
X1775371Y3073916D01*
X1776223Y3074980D01*
X1776648Y3075406D01*
X1790484Y3072426D01*
D02*
G37*
G36*
X2739378Y3084984D02*
X2739804Y3083920D01*
X2740229Y3082643D01*
X2740868Y3081153D01*
X2742145Y3077534D01*
X2742720Y3076168D01*
X2742145Y3076044D01*
X2739804Y3075193D01*
X2738101Y3074554D01*
X2737037Y3074129D01*
X2736611Y3073916D01*
X2733631Y3072213D01*
X2731077Y3070510D01*
X2728948Y3068807D01*
X2727245Y3067105D01*
X2725756Y3065615D01*
X2724904Y3064338D01*
X2724266Y3063486D01*
X2724053Y3063273D01*
X2722563Y3060932D01*
X2721498Y3058378D01*
X2720860Y3056036D01*
X2720221Y3053908D01*
X2720009Y3051992D01*
X2719796Y3050502D01*
Y3049651D01*
Y3049225D01*
X2720009Y3045394D01*
X2720647Y3041988D01*
X2721711Y3038795D01*
X2722563Y3036028D01*
X2723627Y3033900D01*
X2724691Y3032197D01*
X2725330Y3031133D01*
X2725543Y3030707D01*
X2727884Y3027727D01*
X2730438Y3025173D01*
X2733205Y3022831D01*
X2735760Y3020916D01*
X2737888Y3019426D01*
X2739804Y3018362D01*
X2741081Y3017510D01*
X2741294Y3017297D01*
X2741507D01*
X2745551Y3015594D01*
X2749595Y3014104D01*
X2753852Y3013040D01*
X2757683Y3012189D01*
X2761089Y3011550D01*
X2762579Y3011125D01*
X2763856D01*
X2764707Y3010912D01*
X2765559Y3010699D01*
X2766197D01*
X2759386Y3000269D01*
X2754491Y3001333D01*
X2749808Y3002398D01*
X2745764Y3003462D01*
X2742358Y3004526D01*
X2739591Y3005590D01*
X2737462Y3006442D01*
X2736185Y3006867D01*
X2735972Y3007080D01*
X2735760D01*
X2732354Y3008783D01*
X2729161Y3010699D01*
X2726394Y3012402D01*
X2724053Y3014104D01*
X2722350Y3015594D01*
X2720860Y3016872D01*
X2720009Y3017723D01*
X2719796Y3017936D01*
X2717454Y3020277D01*
X2715539Y3022831D01*
X2714049Y3025173D01*
X2712772Y3027301D01*
X2711707Y3029217D01*
X2711069Y3030707D01*
X2710643Y3031558D01*
X2710430Y3031984D01*
X2709366Y3034964D01*
X2708727Y3037944D01*
X2708089Y3040711D01*
X2707876Y3043265D01*
X2707663Y3045394D01*
X2707450Y3047097D01*
Y3048161D01*
Y3048586D01*
X2707663Y3052631D01*
X2708302Y3056462D01*
X2709366Y3059868D01*
X2710430Y3062848D01*
X2711494Y3065189D01*
X2712559Y3067105D01*
X2713197Y3068169D01*
X2713410Y3068595D01*
X2715751Y3071787D01*
X2718519Y3074554D01*
X2721498Y3076896D01*
X2724053Y3079024D01*
X2726607Y3080514D01*
X2728523Y3081791D01*
X2730013Y3082430D01*
X2730225Y3082643D01*
X2730438D01*
X2734695Y3084346D01*
X2739165Y3085623D01*
X2739215Y3085635D01*
X2739378Y3084984D01*
D02*
G37*
G36*
X1338599Y3110101D02*
X1342218Y3109462D01*
X1345197Y3108824D01*
X1347965Y3108398D01*
X1349880Y3107972D01*
X1350732D01*
X1351370Y3107759D01*
X1351796D01*
X1355840Y3107121D01*
X1359459Y3106695D01*
X1361630Y3106440D01*
X1362013Y3104779D01*
Y3104354D01*
X1362226Y3103502D01*
X1362651Y3102012D01*
X1363077Y3100097D01*
X1363503Y3097755D01*
X1364141Y3094988D01*
X1364342Y3094050D01*
X1365418Y3093924D01*
X1369250Y3093711D01*
X1373081Y3093285D01*
X1373507D01*
X1374784Y3093073D01*
X1376912D01*
X1377395Y3093029D01*
X1377764Y3091370D01*
X1377977Y3089880D01*
X1378402Y3088603D01*
X1378615Y3087751D01*
Y3087538D01*
X1379679Y3083069D01*
X1380105Y3081153D01*
X1380744Y3079450D01*
X1380957Y3077960D01*
X1381382Y3076896D01*
X1381595Y3076044D01*
Y3075832D01*
X1383298Y3069446D01*
X1384149Y3066466D01*
X1385001Y3063699D01*
X1385852Y3061358D01*
X1386278Y3059442D01*
X1386704Y3058165D01*
X1386916Y3057952D01*
Y3057739D01*
X1387981Y3054121D01*
X1389258Y3050502D01*
X1390322Y3047097D01*
X1391386Y3044117D01*
X1392238Y3041562D01*
X1392876Y3039647D01*
X1393302Y3038370D01*
X1393515Y3038157D01*
Y3037944D01*
X1394792Y3034325D01*
X1396282Y3030920D01*
X1397559Y3027940D01*
X1398623Y3025173D01*
X1399475Y3022831D01*
X1400326Y3021129D01*
X1400752Y3020064D01*
X1400965Y3019639D01*
X1402242Y3016659D01*
X1403519Y3013892D01*
X1404796Y3011337D01*
X1405860Y3009209D01*
X1406925Y3007506D01*
X1407563Y3006229D01*
X1407989Y3005378D01*
X1408202Y3005165D01*
X1394153Y3000269D01*
X1391812Y3005590D01*
X1390748Y3008145D01*
X1389896Y3010699D01*
X1389045Y3012614D01*
X1388406Y3014317D01*
X1387981Y3015382D01*
X1387768Y3015807D01*
X1385214Y3022406D01*
X1383937Y3025598D01*
X1383085Y3028366D01*
X1382234Y3030920D01*
X1381595Y3032835D01*
X1381169Y3034113D01*
X1380957Y3034325D01*
Y3034538D01*
X1379679Y3038370D01*
X1378615Y3041775D01*
X1377338Y3045181D01*
X1376487Y3048161D01*
X1375635Y3050715D01*
X1374997Y3052631D01*
X1374784Y3053908D01*
X1374571Y3054333D01*
X1373507Y3057952D01*
X1372443Y3061358D01*
X1371591Y3064550D01*
X1370953Y3067317D01*
X1370314Y3069659D01*
X1369888Y3071362D01*
X1369463Y3072426D01*
Y3072852D01*
X1367760Y3078811D01*
X1367121Y3081366D01*
X1366483Y3083920D01*
X1366057Y3086048D01*
X1365631Y3087538D01*
X1365418Y3088603D01*
Y3089028D01*
X1364780Y3092008D01*
X1364342Y3094050D01*
X1361800Y3094350D01*
X1358607Y3094775D01*
X1355840Y3095201D01*
X1353924Y3095414D01*
X1353073D01*
X1352434Y3095627D01*
X1352009D01*
X1347965Y3096265D01*
X1344133Y3096904D01*
X1340728Y3097542D01*
X1337535Y3098181D01*
X1334981Y3098607D01*
X1333065Y3099032D01*
X1331788Y3099458D01*
X1331362D01*
Y3111804D01*
X1338599Y3110101D01*
D02*
G37*
G36*
X1075940Y3046458D02*
X1078281Y3046245D01*
X1080410Y3045607D01*
X1082325Y3045181D01*
X1083815Y3044542D01*
X1084879Y3043904D01*
X1085731Y3043691D01*
X1085944Y3043478D01*
X1087859Y3042201D01*
X1089562Y3040711D01*
X1091052Y3039221D01*
X1092329Y3037944D01*
X1093394Y3036667D01*
X1094032Y3035603D01*
X1094458Y3034964D01*
X1094671Y3034751D01*
X1095735Y3032623D01*
X1096586Y3030494D01*
X1097012Y3028578D01*
X1097438Y3026663D01*
X1097651Y3024960D01*
X1097863Y3023683D01*
Y3022831D01*
Y3022619D01*
X1097651Y3020277D01*
X1097438Y3017936D01*
X1096799Y3015807D01*
X1096161Y3014104D01*
X1095735Y3012614D01*
X1095096Y3011550D01*
X1094884Y3010699D01*
X1094671Y3010486D01*
X1093394Y3008570D01*
X1091904Y3006867D01*
X1090414Y3005378D01*
X1089137Y3004313D01*
X1087859Y3003249D01*
X1086795Y3002610D01*
X1086157Y3002185D01*
X1085944Y3001972D01*
X1083815Y3000908D01*
X1081687Y3000056D01*
X1079558Y2999418D01*
X1077642Y2999205D01*
X1075940Y2998992D01*
X1074663Y2998779D01*
X1073598D01*
X1071257Y2998992D01*
X1068916Y2999205D01*
X1067000Y2999843D01*
X1065084Y3000482D01*
X1063807Y3000908D01*
X1062530Y3001546D01*
X1061891Y3001759D01*
X1061679Y3001972D01*
X1059763Y3003249D01*
X1058060Y3004739D01*
X1056570Y3006016D01*
X1055293Y3007506D01*
X1054229Y3008570D01*
X1053590Y3009635D01*
X1053165Y3010273D01*
X1052952Y3010486D01*
X1051887Y3012614D01*
X1051036Y3014743D01*
X1050397Y3016659D01*
X1049972Y3018574D01*
X1049759Y3020277D01*
X1049546Y3021554D01*
Y3022406D01*
Y3022619D01*
X1049759Y3024960D01*
X1049972Y3027301D01*
X1050610Y3029430D01*
X1051249Y3031133D01*
X1051887Y3032623D01*
X1052313Y3033687D01*
X1052739Y3034538D01*
X1052952Y3034751D01*
X1054229Y3036667D01*
X1055719Y3038370D01*
X1057209Y3039860D01*
X1058486Y3041137D01*
X1059763Y3042201D01*
X1060827Y3042839D01*
X1061466Y3043265D01*
X1061679Y3043478D01*
X1063807Y3044542D01*
X1065723Y3045394D01*
X1067851Y3046032D01*
X1069554Y3046458D01*
X1071257Y3046671D01*
X1073598D01*
X1075940Y3046458D01*
D02*
G37*
G36*
X1624672Y3066253D02*
X1636592D01*
Y3010486D01*
X1636805Y3009422D01*
X1637018Y3008570D01*
X1637230Y3008145D01*
X1637443D01*
X1638082Y3007932D01*
X1639146Y3007719D01*
X1639785Y3007506D01*
X1655323D01*
X1657238Y3007719D01*
X1661921D01*
X1661070Y3005803D01*
X1660218Y3003888D01*
X1659793Y3003036D01*
X1659580Y3002398D01*
X1659367Y3001972D01*
Y3001759D01*
X1658516Y2999205D01*
X1657877Y2997502D01*
X1657451Y2996225D01*
Y2996012D01*
Y2995799D01*
X1650853D01*
X1648299Y2996012D01*
X1644255D01*
X1642765Y2996225D01*
X1641700D01*
X1639359Y2996438D01*
X1637443Y2996651D01*
X1635740Y2996863D01*
X1634250Y2997289D01*
X1632973Y2997502D01*
X1632122Y2997715D01*
X1631696Y2997928D01*
X1631483D01*
X1630206Y2998566D01*
X1628929Y2999205D01*
X1627439Y3000695D01*
X1626375Y3001972D01*
X1626162Y3002185D01*
Y3002398D01*
X1625736Y3003462D01*
X1625311Y3004739D01*
X1624885Y3007506D01*
X1624672Y3008570D01*
Y3009635D01*
Y3010273D01*
Y3010486D01*
Y3066253D01*
X1586784D01*
Y3077534D01*
X1624672D01*
Y3066253D01*
D02*
G37*
%LPC*%
G36*
X2000444Y404109D02*
X1996741D01*
X1993965Y403183D01*
X1989800Y401795D01*
X1987023Y399944D01*
X1986097Y399481D01*
Y399018D01*
X1984246Y397167D01*
X1982858Y395316D01*
X1981007Y391151D01*
X1980544Y388374D01*
Y387449D01*
Y386986D01*
Y384209D01*
X1981469Y381895D01*
X1983321Y378193D01*
X1985172Y375416D01*
X1985635Y374953D01*
X1986097Y374490D01*
X1987949Y372639D01*
X1990262Y371714D01*
X1994890Y369863D01*
X1996741D01*
X1998130Y369400D01*
X1999518D01*
X2005534Y370325D01*
X2009700Y372177D01*
X2012939Y374953D01*
X2014790Y378193D01*
X2016179Y381432D01*
X2016641Y384209D01*
X2017104Y386060D01*
Y386986D01*
X2016179Y392539D01*
X2014327Y396704D01*
X2011551Y399944D01*
X2008311Y401795D01*
X2005072Y403183D01*
X2002295Y403646D01*
X2000444Y404109D01*
D02*
G37*
G36*
X716207Y404109D02*
X712505D01*
X709728Y403183D01*
X705563Y401795D01*
X702786Y399944D01*
X701861Y399481D01*
Y399018D01*
X700010Y397167D01*
X698621Y395316D01*
X696770Y391151D01*
X696307Y388374D01*
Y387448D01*
Y386986D01*
Y384209D01*
X697233Y381895D01*
X699084Y378193D01*
X700935Y375416D01*
X701398Y374953D01*
X701861Y374490D01*
X703712Y372639D01*
X706026Y371714D01*
X710654Y369862D01*
X712505D01*
X713893Y369400D01*
X715282D01*
X721298Y370325D01*
X725463Y372176D01*
X728702Y374953D01*
X730554Y378193D01*
X731942Y381432D01*
X732405Y384209D01*
X732867Y386060D01*
Y386986D01*
X731942Y392539D01*
X730091Y396704D01*
X727314Y399944D01*
X724074Y401795D01*
X720835Y403183D01*
X718058Y403646D01*
X716207Y404109D01*
D02*
G37*
G36*
X2124934Y252314D02*
X2121694Y235654D01*
X2105497D01*
X2119380Y229175D01*
X2113827Y213903D01*
X2124934Y225010D01*
X2136041Y213903D01*
X2130487Y229175D01*
X2144371Y235654D01*
X2128173D01*
X2124934Y252314D01*
D02*
G37*
G36*
X840697Y252314D02*
X837458Y235654D01*
X821260D01*
X835144Y229175D01*
X829590Y213903D01*
X840697Y225010D01*
X851804Y213903D01*
X846251Y229175D01*
X860134Y235654D01*
X843937D01*
X840697Y252314D01*
D02*
G37*
G36*
X1433066Y386523D02*
X1404836Y302295D01*
X1319220D01*
X1387712Y252777D01*
X1357168Y160682D01*
X1429826Y214828D01*
X1436305D01*
X1510814Y158368D01*
X1478882Y252777D01*
X1547374Y302295D01*
X1462221D01*
X1433066Y386523D01*
D02*
G37*
G36*
X1844229Y3105844D02*
X1842845D01*
X1840504Y3105631D01*
X1837950D01*
X1832629Y3105418D01*
X1832501D01*
X1832629Y3104141D01*
X1832841Y3101587D01*
X1833267Y3098820D01*
X1833693Y3095840D01*
Y3095414D01*
X1833906Y3094563D01*
X1833959Y3094137D01*
X1837311D01*
X1839440Y3094350D01*
X1841994D01*
X1844974Y3094563D01*
X1845696Y3094614D01*
X1845400Y3096691D01*
X1844974Y3099884D01*
X1844229Y3105844D01*
D02*
G37*
G36*
X1207057Y3040711D02*
X1201097D01*
X1197265Y3040285D01*
X1193860Y3039860D01*
X1190880Y3039434D01*
X1189478Y3039218D01*
X1189390Y3038157D01*
Y3035815D01*
X1189177Y3033900D01*
Y3032197D01*
Y3030707D01*
Y3029856D01*
Y3029217D01*
Y3029004D01*
X1189390Y3026024D01*
X1189816Y3023683D01*
X1190454Y3021554D01*
X1191305Y3019639D01*
X1192157Y3018362D01*
X1192795Y3017510D01*
X1193221Y3016872D01*
X1193434Y3016659D01*
X1195137Y3015382D01*
X1197265Y3014317D01*
X1199394Y3013679D01*
X1201522Y3013040D01*
X1203438Y3012827D01*
X1204928Y3012614D01*
X1206418D01*
X1210462Y3012827D01*
X1214081Y3013253D01*
X1217061Y3013679D01*
X1219615Y3014530D01*
X1221743Y3015169D01*
X1223020Y3015594D01*
X1224085Y3016020D01*
X1224298Y3016233D01*
X1226426Y3017723D01*
X1227916Y3019426D01*
X1229193Y3020916D01*
X1229832Y3022619D01*
X1230257Y3024109D01*
X1230470Y3025173D01*
X1230683Y3026024D01*
Y3026237D01*
X1230470Y3028578D01*
X1229619Y3030707D01*
X1228555Y3032410D01*
X1227277Y3033900D01*
X1226213Y3035177D01*
X1225149Y3036028D01*
X1224298Y3036454D01*
X1224085Y3036667D01*
X1221318Y3037944D01*
X1218125Y3039008D01*
X1214932Y3039647D01*
X1211952Y3040285D01*
X1209185Y3040498D01*
X1207057Y3040711D01*
D02*
G37*
G36*
X1631909Y3098607D02*
X1624672D01*
Y3091666D01*
X1627226Y3089667D01*
X1627439Y3089880D01*
X1628078Y3090731D01*
X1629142Y3092008D01*
X1630632Y3093498D01*
X1631058Y3093924D01*
X1631909Y3094775D01*
X1632973Y3095840D01*
X1634038Y3096904D01*
X1633825Y3097117D01*
X1632973Y3097755D01*
X1631909Y3098607D01*
D02*
G37*
G36*
X2780849Y3037554D02*
X2780246Y3034538D01*
X2778756Y3027940D01*
Y3027514D01*
X2778330Y3026450D01*
X2777904Y3024747D01*
X2780884Y3022406D01*
X2781310Y3022193D01*
X2782161Y3021341D01*
X2783864Y3020277D01*
X2785993Y3019000D01*
X2788334Y3017439D01*
X2788547Y3018362D01*
X2789398Y3021554D01*
X2790250Y3024960D01*
Y3025173D01*
Y3025386D01*
X2790463Y3026663D01*
X2790888Y3028578D01*
X2791003Y3029211D01*
X2790037Y3029856D01*
X2787270Y3031984D01*
X2784290Y3034325D01*
X2784077Y3034538D01*
X2783864Y3034751D01*
X2783226Y3035177D01*
X2782374Y3036028D01*
X2780849Y3037554D01*
D02*
G37*
G36*
X1075301Y3038582D02*
X1073598D01*
X1070406Y3038157D01*
X1067851Y3037518D01*
X1066787Y3037092D01*
X1066148Y3036880D01*
X1065723Y3036454D01*
X1065510D01*
X1063169Y3034538D01*
X1061253Y3032623D01*
X1060614Y3031771D01*
X1060189Y3031133D01*
X1059763Y3030707D01*
Y3030494D01*
X1058486Y3027727D01*
X1057847Y3025173D01*
X1057634Y3024109D01*
Y3023257D01*
Y3022831D01*
Y3022619D01*
X1057847Y3020277D01*
X1058273Y3018149D01*
X1059124Y3016233D01*
X1059976Y3014530D01*
X1060827Y3013253D01*
X1061679Y3012189D01*
X1062104Y3011550D01*
X1062317Y3011337D01*
X1064233Y3009847D01*
X1066148Y3008570D01*
X1067851Y3007719D01*
X1069767Y3007293D01*
X1071257Y3006867D01*
X1072534Y3006655D01*
X1073598D01*
X1076791Y3006867D01*
X1078281Y3007293D01*
X1079558Y3007719D01*
X1080410Y3007932D01*
X1081261Y3008357D01*
X1081687Y3008570D01*
X1081900D01*
X1084241Y3010273D01*
X1085944Y3012189D01*
X1086795Y3013040D01*
X1087221Y3013679D01*
X1087434Y3014104D01*
X1087647Y3014317D01*
X1088924Y3017297D01*
X1089562Y3019851D01*
X1089775Y3020916D01*
X1089988Y3021767D01*
Y3022406D01*
Y3022619D01*
X1089775Y3024321D01*
X1089562Y3025811D01*
X1088711Y3028366D01*
X1088285Y3029430D01*
X1088072Y3030068D01*
X1087647Y3030494D01*
Y3030707D01*
X1085731Y3033048D01*
X1083815Y3034964D01*
X1082964Y3035603D01*
X1082325Y3036028D01*
X1081900Y3036454D01*
X1081687D01*
X1078920Y3037731D01*
X1076365Y3038370D01*
X1075301Y3038582D01*
D02*
G37*
%LPD*%
D56*
X2002258Y1704523D02*
Y1910047D01*
Y1985047D01*
X2202258D01*
Y1704523D02*
Y1985047D01*
X2002258Y1704523D02*
X2202258D01*
Y2080047D02*
Y2285572D01*
Y2005047D02*
Y2080047D01*
X2002258Y2005047D02*
X2202258D01*
X2002258D02*
Y2285572D01*
X2202258D01*
X1437517Y1989263D02*
X1643042D01*
X1718042D01*
Y1789263D02*
Y1989263D01*
X1437517Y1789263D02*
X1718042D01*
X1437517D02*
Y1989263D01*
X1652258Y985047D02*
X1857782D01*
X1577257D02*
X1652258D01*
X1577257D02*
Y1185047D01*
X1857782D01*
Y985047D02*
Y1185047D01*
X2502258Y2080047D02*
Y2285572D01*
Y2005047D02*
Y2080047D01*
X2302258Y2005047D02*
X2502258D01*
X2302258D02*
Y2285572D01*
X2502258D01*
X2302257Y1704523D02*
Y1910047D01*
Y1985047D01*
X2502257D01*
Y1704523D02*
Y1985047D01*
X2302257Y1704523D02*
X2502257D01*
D57*
X2687500Y3652464D02*
Y3644133D01*
X2670839Y3627472D01*
X2654178Y3644133D01*
Y3652464D01*
X2670839Y3627472D02*
Y3602480D01*
X2612525Y3652464D02*
X2629186D01*
X2637516Y3644133D01*
Y3610811D01*
X2629186Y3602480D01*
X2612525D01*
X2604194Y3610811D01*
Y3644133D01*
X2612525Y3652464D01*
X2537549D02*
X2504227D01*
X2520888D01*
Y3602480D01*
X2487566D02*
Y3635802D01*
X2470904Y3652464D01*
X2454243Y3635802D01*
Y3602480D01*
Y3627472D01*
X2487566D01*
X2437582Y3602480D02*
Y3652464D01*
X2420921Y3635802D01*
X2404259Y3652464D01*
Y3602480D01*
X2387598Y3652464D02*
Y3602480D01*
X2362606D01*
X2354276Y3610811D01*
Y3619141D01*
X2362606Y3627472D01*
X2387598D01*
X2362606D01*
X2354276Y3635802D01*
Y3644133D01*
X2362606Y3652464D01*
X2387598D01*
X2337615D02*
X2320953D01*
X2329284D01*
Y3602480D01*
X2337615D01*
X2320953D01*
X2262639Y3652464D02*
X2295961D01*
Y3602480D01*
X2262639D01*
X2295961Y3627472D02*
X2279300D01*
X2245978Y3602480D02*
Y3652464D01*
X2212655Y3602480D01*
Y3652464D01*
X2654178Y3520831D02*
Y3554153D01*
X2662508Y3562484D01*
X2679169D01*
X2687500Y3554153D01*
Y3520831D01*
X2679169Y3512500D01*
X2662508D01*
X2670839Y3529161D02*
X2654178Y3512500D01*
X2662508D02*
X2654178Y3520831D01*
X2637516Y3562484D02*
Y3520831D01*
X2629186Y3512500D01*
X2612525D01*
X2604194Y3520831D01*
Y3562484D01*
X2587533D02*
X2570872D01*
X2579202D01*
Y3512500D01*
X2587533D01*
X2570872D01*
X2512557Y3562484D02*
X2545880D01*
Y3512500D01*
X2512557D01*
X2545880Y3537492D02*
X2529218D01*
X2495896Y3512500D02*
Y3562484D01*
X2470904D01*
X2462573Y3554153D01*
Y3537492D01*
X2470904Y3529161D01*
X2495896D01*
X2479235D02*
X2462573Y3512500D01*
X2420920Y3562484D02*
X2437582D01*
X2445912Y3554153D01*
Y3520831D01*
X2437582Y3512500D01*
X2420920D01*
X2412590Y3520831D01*
Y3554153D01*
X2420920Y3562484D01*
X2345945D02*
Y3512500D01*
X2320953D01*
X2312623Y3520831D01*
Y3529161D01*
X2320953Y3537492D01*
X2345945D01*
X2320953D01*
X2312623Y3545822D01*
Y3554153D01*
X2320953Y3562484D01*
X2345945D01*
X2295961Y3512500D02*
Y3562484D01*
X2270970D01*
X2262639Y3554153D01*
Y3537492D01*
X2270970Y3529161D01*
X2295961D01*
X2279300D02*
X2262639Y3512500D01*
X2245978Y3562484D02*
X2229317D01*
X2237647D01*
Y3512500D01*
X2245978D01*
X2229317D01*
X2204325Y3562484D02*
Y3512500D01*
X2171002D01*
X2154341Y3562484D02*
Y3512500D01*
X2121018D01*
X2104357D02*
Y3545822D01*
X2087696Y3562484D01*
X2071035Y3545822D01*
Y3512500D01*
Y3537492D01*
X2104357D01*
X2054374Y3512500D02*
Y3562484D01*
X2029382D01*
X2021051Y3554153D01*
Y3537492D01*
X2029382Y3529161D01*
X2054374D01*
X2037712D02*
X2021051Y3512500D01*
X943599Y1581894D02*
X951929Y1573564D01*
Y1556902D01*
X943599Y1548572D01*
X910276D01*
X901945Y1556902D01*
Y1573564D01*
X910276Y1581894D01*
X926937D01*
Y1565233D01*
X951929Y1598555D02*
Y1615216D01*
Y1606886D01*
X901945D01*
Y1598555D01*
Y1615216D01*
X951929Y1640209D02*
Y1673531D01*
Y1656870D01*
X901945D01*
X951929Y1690192D02*
X901945D01*
X926937D01*
Y1723515D01*
X951929D01*
X901945D01*
X951929Y1740176D02*
X910276D01*
X901945Y1748507D01*
Y1765168D01*
X910276Y1773498D01*
X951929D01*
Y1790159D02*
X901945D01*
Y1815151D01*
X910276Y1823482D01*
X918606D01*
X926937Y1815151D01*
Y1790159D01*
Y1815151D01*
X935268Y1823482D01*
X943599D01*
X951929Y1815151D01*
Y1790159D01*
X901945Y1840143D02*
X910276D01*
Y1848474D01*
X901945D01*
Y1840143D01*
X943599Y1915119D02*
X951929Y1906788D01*
Y1890127D01*
X943599Y1881796D01*
X910276D01*
X901945Y1890127D01*
Y1906788D01*
X910276Y1915119D01*
X951929Y1956772D02*
Y1940111D01*
X943599Y1931780D01*
X910276D01*
X901945Y1940111D01*
Y1956772D01*
X910276Y1965102D01*
X943599D01*
X951929Y1956772D01*
X901945Y1981764D02*
X951929D01*
X935268Y1998425D01*
X951929Y2015086D01*
X901945D01*
Y2031747D02*
X935268Y2065070D01*
X943599Y2115053D02*
X951929Y2106723D01*
Y2090062D01*
X943599Y2081731D01*
X910276D01*
X901945Y2090062D01*
Y2106723D01*
X910276Y2115053D01*
X926937D01*
Y2098392D01*
X951929Y2131715D02*
X901945D01*
Y2165037D01*
X951929Y2181698D02*
X910276D01*
X901945Y2190029D01*
Y2206690D01*
X910276Y2215021D01*
X951929D01*
Y2256674D02*
Y2240013D01*
X943599Y2231682D01*
X910276D01*
X901945Y2240013D01*
Y2256674D01*
X910276Y2265004D01*
X943599D01*
X951929Y2256674D01*
X901945Y2281665D02*
X951929D01*
X901945Y2314988D01*
X951929D01*
X943599Y2364972D02*
X951929Y2356641D01*
Y2339980D01*
X943599Y2331649D01*
X935268D01*
X926937Y2339980D01*
Y2356641D01*
X918606Y2364972D01*
X910276D01*
X901945Y2356641D01*
Y2339980D01*
X910276Y2331649D01*
X901945Y2381633D02*
X935268D01*
X951929Y2398294D01*
X935268Y2414955D01*
X901945D01*
X926937D01*
Y2381633D01*
X901945Y2431616D02*
X951929D01*
X901945Y2464939D01*
X951929D01*
Y2481600D02*
X901945D01*
Y2506592D01*
X910276Y2514923D01*
X943599D01*
X951929Y2506592D01*
Y2481600D01*
X910276Y2564906D02*
X943599D01*
X951929Y2556576D01*
Y2539914D01*
X943599Y2531584D01*
X910276D01*
X901945Y2539914D01*
Y2556576D01*
X918606Y2548245D02*
X901945Y2564906D01*
Y2556576D02*
X910276Y2564906D01*
X951929Y2581567D02*
X910276D01*
X901945Y2589898D01*
Y2606559D01*
X910276Y2614890D01*
X951929D01*
X901945Y2631551D02*
X935268D01*
X951929Y2648212D01*
X935268Y2664874D01*
X901945D01*
X926937D01*
Y2631551D01*
X901945Y2681535D02*
X951929D01*
Y2706526D01*
X943599Y2714857D01*
X926937D01*
X918606Y2706526D01*
Y2681535D01*
Y2698196D02*
X901945Y2714857D01*
X951929Y2731518D02*
X901945D01*
X918606D01*
X951929Y2764841D01*
X926937Y2739849D01*
X901945Y2764841D01*
X943599Y2814824D02*
X951929Y2806494D01*
Y2789833D01*
X943599Y2781502D01*
X935268D01*
X926937Y2789833D01*
Y2806494D01*
X918606Y2814824D01*
X910276D01*
X901945Y2806494D01*
Y2789833D01*
X910276Y2781502D01*
X1043949Y1582787D02*
X1052280Y1574456D01*
Y1557795D01*
X1043949Y1549465D01*
X1010627D01*
X1002296Y1557795D01*
Y1574456D01*
X1010627Y1582787D01*
X1002296Y1599448D02*
X1035619D01*
X1052280Y1616109D01*
X1035619Y1632771D01*
X1002296D01*
X1027288D01*
Y1599448D01*
X1002296Y1649432D02*
X1052280D01*
Y1674424D01*
X1043949Y1682754D01*
X1027288D01*
X1018957Y1674424D01*
Y1649432D01*
Y1666093D02*
X1002296Y1682754D01*
X1052280Y1699415D02*
X1002296D01*
Y1732738D01*
X1052280Y1774391D02*
Y1757730D01*
X1043949Y1749399D01*
X1010627D01*
X1002296Y1757730D01*
Y1774391D01*
X1010627Y1782722D01*
X1043949D01*
X1052280Y1774391D01*
X1043949Y1832705D02*
X1052280Y1824375D01*
Y1807713D01*
X1043949Y1799383D01*
X1035619D01*
X1027288Y1807713D01*
Y1824375D01*
X1018957Y1832705D01*
X1010627D01*
X1002296Y1824375D01*
Y1807713D01*
X1010627Y1799383D01*
X1002296Y1899350D02*
X1035619D01*
X1052280Y1916011D01*
X1035619Y1932673D01*
X1002296D01*
X1027288D01*
Y1899350D01*
X1002296Y1949334D02*
X1010627D01*
Y1957664D01*
X1002296D01*
Y1949334D01*
X1052280Y2040971D02*
X1018957D01*
X1002296Y2057632D01*
X1018957Y2074293D01*
X1052280D01*
X1002296Y2090954D02*
X1035619D01*
X1052280Y2107615D01*
X1035619Y2124277D01*
X1002296D01*
X1027288D01*
Y2090954D01*
X1043949Y2174260D02*
X1052280Y2165930D01*
Y2149268D01*
X1043949Y2140938D01*
X1035619D01*
X1027288Y2149268D01*
Y2165930D01*
X1018957Y2174260D01*
X1010627D01*
X1002296Y2165930D01*
Y2149268D01*
X1010627Y2140938D01*
Y2224244D02*
X1043949D01*
X1052280Y2215913D01*
Y2199252D01*
X1043949Y2190921D01*
X1010627D01*
X1002296Y2199252D01*
Y2215913D01*
X1018957Y2207583D02*
X1002296Y2224244D01*
Y2215913D02*
X1010627Y2224244D01*
X1052280Y2240905D02*
X1010627D01*
X1002296Y2249236D01*
Y2265897D01*
X1010627Y2274228D01*
X1052280D01*
Y2324211D02*
Y2290889D01*
X1002296D01*
Y2324211D01*
X1027288Y2290889D02*
Y2307550D01*
X1052280Y2340872D02*
Y2374195D01*
X1043949D01*
X1010627Y2340872D01*
X1002296D01*
Y2374195D01*
X1152664Y1545998D02*
X1102681D01*
Y1570989D01*
X1111011Y1579320D01*
X1144334D01*
X1152664Y1570989D01*
Y1545998D01*
Y1629304D02*
Y1595981D01*
X1102681D01*
Y1629304D01*
X1127672Y1595981D02*
Y1612642D01*
X1144334Y1679287D02*
X1152664Y1670957D01*
Y1654296D01*
X1144334Y1645965D01*
X1136003D01*
X1127672Y1654296D01*
Y1670957D01*
X1119342Y1679287D01*
X1111011D01*
X1102681Y1670957D01*
Y1654296D01*
X1111011Y1645965D01*
X1152664Y1695949D02*
Y1712610D01*
Y1704279D01*
X1102681D01*
Y1695949D01*
Y1712610D01*
X1144334Y1770924D02*
X1152664Y1762594D01*
Y1745932D01*
X1144334Y1737602D01*
X1111011D01*
X1102681Y1745932D01*
Y1762594D01*
X1111011Y1770924D01*
X1127672D01*
Y1754263D01*
X1102681Y1787585D02*
X1152664D01*
X1102681Y1820908D01*
X1152664D01*
Y1870892D02*
Y1837569D01*
X1102681D01*
Y1870892D01*
X1127672Y1837569D02*
Y1854230D01*
X1152664Y1887553D02*
X1102681D01*
Y1912545D01*
X1111011Y1920875D01*
X1144334D01*
X1152664Y1912545D01*
Y1887553D01*
Y1987520D02*
Y2004181D01*
Y1995851D01*
X1102681D01*
Y1987520D01*
Y2004181D01*
Y2029173D02*
X1152664D01*
X1102681Y2062496D01*
X1152664D01*
X1102681Y2129141D02*
X1152664D01*
X1136003Y2145802D01*
X1152664Y2162463D01*
X1102681D01*
X1152664Y2212447D02*
Y2179124D01*
X1102681D01*
Y2212447D01*
X1127672Y2179124D02*
Y2195785D01*
X1152664Y2229108D02*
X1102681Y2262430D01*
X1152664D02*
X1102681Y2229108D01*
X1152664Y2279091D02*
Y2295753D01*
Y2287422D01*
X1102681D01*
Y2279091D01*
Y2295753D01*
X1144334Y2354067D02*
X1152664Y2345736D01*
Y2329075D01*
X1144334Y2320745D01*
X1111011D01*
X1102681Y2329075D01*
Y2345736D01*
X1111011Y2354067D01*
X1152664Y2395720D02*
Y2379059D01*
X1144334Y2370728D01*
X1111011D01*
X1102681Y2379059D01*
Y2395720D01*
X1111011Y2404051D01*
X1144334D01*
X1152664Y2395720D01*
Y2470696D02*
X1102681D01*
Y2495687D01*
X1111011Y2504018D01*
X1119342D01*
X1127672Y2495687D01*
Y2470696D01*
Y2495687D01*
X1136003Y2504018D01*
X1144334D01*
X1152664Y2495687D01*
Y2470696D01*
Y2520679D02*
X1144334D01*
X1127672Y2537340D01*
X1144334Y2554002D01*
X1152664D01*
X1127672Y2537340D02*
X1102681D01*
X1451940Y3523786D02*
X1398624D01*
X1810405Y3520648D02*
X1757089D01*
X1783747Y3547306D02*
Y3493990D01*
X1795812Y891396D02*
Y941380D01*
X1770820D01*
X1762489Y933049D01*
Y916388D01*
X1770820Y908057D01*
X1795812D01*
X1779151D02*
X1762489Y891396D01*
X1712506Y933049D02*
X1720836Y941380D01*
X1737497D01*
X1745828Y933049D01*
Y924719D01*
X1737497Y916388D01*
X1720836D01*
X1712506Y908057D01*
Y899727D01*
X1720836Y891396D01*
X1737497D01*
X1745828Y899727D01*
X1695844Y941380D02*
X1662522D01*
X1679183D01*
Y891396D01*
X1636727Y2080575D02*
Y2030591D01*
X1611735D01*
X1603405Y2038922D01*
Y2047252D01*
X1611735Y2055583D01*
X1636727D01*
X1611735D01*
X1603405Y2063914D01*
Y2072244D01*
X1611735Y2080575D01*
X1636727D01*
X1586744D02*
X1553421D01*
X1570082D01*
Y2030591D01*
X2186711Y2355583D02*
X2153388D01*
X2170050Y2372244D02*
Y2338922D01*
X2136727Y2372244D02*
X2128397Y2380575D01*
X2111735D01*
X2103405Y2372244D01*
Y2363913D01*
X2111735Y2355583D01*
X2120066D01*
X2111735D01*
X2103405Y2347252D01*
Y2338922D01*
X2111735Y2330591D01*
X2128397D01*
X2136727Y2338922D01*
X2086744Y2380575D02*
Y2347252D01*
X2070082Y2330591D01*
X2053421Y2347252D01*
Y2380575D01*
X2036760Y2372244D02*
X2028429Y2380575D01*
X2011768D01*
X2003437Y2372244D01*
Y2363913D01*
X2011768Y2355583D01*
X2020099D01*
X2011768D01*
X2003437Y2347252D01*
Y2338922D01*
X2011768Y2330591D01*
X2028429D01*
X2036760Y2338922D01*
X2468559Y2356271D02*
X2435236D01*
X2451898Y2372932D02*
Y2339610D01*
X2385253Y2381263D02*
X2418575D01*
Y2356271D01*
X2401914Y2364602D01*
X2393583D01*
X2385253Y2356271D01*
Y2339610D01*
X2393583Y2331279D01*
X2410245D01*
X2418575Y2339610D01*
X2368592Y2381263D02*
Y2347940D01*
X2351931Y2331279D01*
X2335269Y2347940D01*
Y2381263D01*
X1911343Y1859224D02*
X1919673Y1867554D01*
X1936334D01*
X1944665Y1859224D01*
Y1850893D01*
X1936334Y1842562D01*
X1919673D01*
X1911343Y1834232D01*
Y1825901D01*
X1919673Y1817571D01*
X1936334D01*
X1944665Y1825901D01*
X1894682Y1867554D02*
Y1834232D01*
X1878020Y1817571D01*
X1861359Y1834232D01*
Y1867554D01*
X1844698Y1817571D02*
X1828037D01*
X1836367D01*
Y1867554D01*
X1844698Y1859224D01*
X1926106Y2166933D02*
X1934437Y2175264D01*
X1951098D01*
X1959429Y2166933D01*
Y2158603D01*
X1951098Y2150272D01*
X1934437D01*
X1926106Y2141941D01*
Y2133611D01*
X1934437Y2125280D01*
X1951098D01*
X1959429Y2133611D01*
X1909445Y2175264D02*
Y2141941D01*
X1892784Y2125280D01*
X1876123Y2141941D01*
Y2175264D01*
X1826139Y2125280D02*
X1859462D01*
X1826139Y2158603D01*
Y2166933D01*
X1834470Y2175264D01*
X1851131D01*
X1859462Y2166933D01*
%TF.MD5,f6cdfe3c40f892f80cbd82dbd312762a*%
M02*
