%TF.GenerationSoftware,Altium Limited,Altium Designer,22.7.1 (60)*%
G04 Layer_Color=0*
%FSLAX45Y45*%
%MOMM*%
%TF.SameCoordinates,1A5FE687-02E9-4ECA-85C8-40D928D14E81*%
%TF.FilePolarity,Positive*%
%TF.FileFunction,Plated,1,4,PTH,Drill*%
%TF.Part,Single*%
G01*
G75*
%TA.AperFunction,ComponentDrill*%
%ADD97O,0.55000X1.75000*%
%ADD98O,0.55000X1.45000*%
%ADD99C,1.00000*%
%ADD100C,1.00000*%
%ADD101C,1.50000*%
%TA.AperFunction,ViaDrill,NotFilled*%
%ADD102C,0.30000*%
D97*
X1059758Y3225047D02*
D03*
X194758D02*
D03*
D98*
Y3645047D02*
D03*
X1059758D02*
D03*
D99*
X2631258Y1260047D02*
D03*
X2377258D02*
D03*
X2123258D02*
D03*
D100*
X2652258Y2164047D02*
D03*
Y1910047D02*
D03*
Y1656047D02*
D03*
D101*
X1427258Y3710047D02*
D03*
X1777258D02*
D03*
D102*
X2800000Y1450000D02*
D03*
X1684746Y2858152D02*
D03*
X1074228Y2738144D02*
D03*
X1019875Y2491467D02*
D03*
X650000Y3650000D02*
D03*
X500000D02*
D03*
X350000D02*
D03*
X400000Y2250000D02*
D03*
Y2100000D02*
D03*
X250000Y2050000D02*
D03*
Y2200000D02*
D03*
Y2350000D02*
D03*
X2550000Y1100000D02*
D03*
X2400000D02*
D03*
X2250000D02*
D03*
X2100000Y950000D02*
D03*
X2250000D02*
D03*
Y800000D02*
D03*
X2100000D02*
D03*
X100000Y2550000D02*
D03*
Y2400000D02*
D03*
Y2250000D02*
D03*
Y2100000D02*
D03*
Y1950000D02*
D03*
Y1800000D02*
D03*
Y1650000D02*
D03*
Y1500000D02*
D03*
Y1350000D02*
D03*
Y1200000D02*
D03*
Y1050000D02*
D03*
X177502Y631797D02*
D03*
X100000Y750000D02*
D03*
Y900000D02*
D03*
X700000D02*
D03*
X650000Y750000D02*
D03*
X1200000Y650000D02*
D03*
X1350000D02*
D03*
X1500000D02*
D03*
X1650000D02*
D03*
X1800000D02*
D03*
X1950000D02*
D03*
X2100000D02*
D03*
X2250000D02*
D03*
X2800000Y700000D02*
D03*
Y850000D02*
D03*
Y1000000D02*
D03*
X1250000Y3800000D02*
D03*
X950000D02*
D03*
X800000D02*
D03*
X650000D02*
D03*
X500000D02*
D03*
X350000D02*
D03*
X725000Y1900000D02*
D03*
X850000D02*
D03*
Y1800000D02*
D03*
X770000Y610000D02*
D03*
X2827258Y2510047D02*
D03*
X450000Y2850000D02*
D03*
Y2400000D02*
D03*
X177258Y2860047D02*
D03*
Y2960047D02*
D03*
X1727258Y1310047D02*
D03*
X1602258Y785047D02*
D03*
X1727258D02*
D03*
X1888869Y1994439D02*
D03*
X1725000Y1700000D02*
D03*
X1727258Y1585047D02*
D03*
X877258Y1135047D02*
D03*
X777258Y1035047D02*
D03*
X1477258Y785047D02*
D03*
X2146858Y1635447D02*
D03*
X1927258Y1410047D02*
D03*
X1625000Y1727547D02*
D03*
X1815653Y1943528D02*
D03*
X1652258Y2235047D02*
D03*
X1727258Y2535047D02*
D03*
X1427258Y1110047D02*
D03*
X1527258D02*
D03*
X2252258Y2535047D02*
D03*
X2177258Y3285047D02*
D03*
X1577258Y2635047D02*
D03*
X977258Y1135047D02*
D03*
X1427258Y1010047D02*
D03*
X1852258Y785047D02*
D03*
X427258Y1410047D02*
D03*
X277258Y2960047D02*
D03*
X227258Y1910047D02*
D03*
Y1710047D02*
D03*
Y1810047D02*
D03*
X827258Y2960047D02*
D03*
X1127258D02*
D03*
X927258D02*
D03*
X502258D02*
D03*
X402258D02*
D03*
X1027658D02*
D03*
X527258Y1410047D02*
D03*
X627258D02*
D03*
X1367258Y1485047D02*
D03*
X1242258D02*
D03*
X1492258D02*
D03*
Y1360047D02*
D03*
X1367258D02*
D03*
X1242258D02*
D03*
Y1610047D02*
D03*
X1367258D02*
D03*
X1492258D02*
D03*
X227258Y1410047D02*
D03*
Y1510047D02*
D03*
Y1610047D02*
D03*
X327258Y1410047D02*
D03*
X1759758Y3420047D02*
D03*
Y3300048D02*
D03*
X1669758D02*
D03*
Y3420047D02*
D03*
X2702258Y3285047D02*
D03*
X2602258Y3262947D02*
D03*
X1212093Y3203863D02*
D03*
X2677258Y2810047D02*
D03*
X2727258Y2410047D02*
D03*
X2677258Y2710047D02*
D03*
X2252258Y2435047D02*
D03*
X2477258Y2710047D02*
D03*
X2577258Y2810047D02*
D03*
X2477258D02*
D03*
X2377258D02*
D03*
Y2710047D02*
D03*
X2577258D02*
D03*
X2727258Y2510047D02*
D03*
X2827258Y2410047D02*
D03*
X1227258Y3585047D02*
D03*
X952258Y3560047D02*
D03*
Y3460047D02*
D03*
X1052258D02*
D03*
X2802258Y3285047D02*
D03*
X2466557Y3435047D02*
D03*
X752258Y1360047D02*
D03*
X630028Y1944480D02*
D03*
X777258Y2310047D02*
D03*
X577258D02*
D03*
X430028Y1944480D02*
D03*
X330028D02*
D03*
X530028D02*
D03*
X354604Y2632701D02*
D03*
X1127258Y2860047D02*
D03*
X277258D02*
D03*
X1352258Y2810047D02*
D03*
X2277258Y2710047D02*
D03*
Y2810047D02*
D03*
X1477258Y2610047D02*
D03*
X1027258Y2860047D02*
D03*
X999911Y2632701D02*
D03*
X2252258Y2335047D02*
D03*
X2146858Y1535047D02*
D03*
X2777258Y3660047D02*
D03*
X1980449Y3735503D02*
D03*
X2277258Y3735047D02*
D03*
X852258Y3560047D02*
D03*
Y3460047D02*
D03*
X752258Y1235047D02*
D03*
X1327258Y785047D02*
D03*
X1102258D02*
D03*
%TF.MD5,9d08b67e2b26460a50eeae39665944ac*%
M02*
