%TF.GenerationSoftware,Altium Limited,Altium Designer,22.7.1 (60)*%
G04 Layer_Physical_Order=4*
G04 Layer_Color=16711680*
%FSLAX45Y45*%
%MOMM*%
%TF.SameCoordinates,889419F2-2602-4259-AB3C-8922443444C0*%
%TF.FilePolarity,Positive*%
%TF.FileFunction,Copper,L4,Bot,Signal*%
%TF.Part,Single*%
G01*
G75*
%TA.AperFunction,Conductor*%
%ADD37C,0.80000*%
%ADD38C,1.00000*%
%ADD39C,0.50000*%
%ADD40C,0.20000*%
%ADD42C,0.70000*%
%TA.AperFunction,ComponentPad*%
%ADD46C,0.60000*%
%ADD47O,1.00000X2.20000*%
%ADD48O,1.00000X1.90000*%
%TA.AperFunction,WasherPad*%
%ADD49C,3.00000*%
%TA.AperFunction,ComponentPad*%
%ADD50C,1.52400*%
%ADD51C,2.50000*%
%TA.AperFunction,ViaPad*%
%ADD52C,0.70000*%
%TA.AperFunction,SMDPad,CuDef*%
%ADD53R,1.50000X1.00000*%
%ADD54R,1.00000X1.50000*%
%TA.AperFunction,Conductor*%
%ADD55C,0.90000*%
G36*
X2749416Y3862903D02*
X2780247Y3850132D01*
X2807995Y3831592D01*
X2831592Y3807994D01*
X2850132Y3780248D01*
X2862903Y3749416D01*
X2869414Y3716685D01*
Y3700000D01*
Y3297300D01*
X2857257Y3295988D01*
X2848884Y3316202D01*
X2833412Y3331674D01*
X2813198Y3340047D01*
X2791318D01*
X2771103Y3331674D01*
X2770358Y3330929D01*
X2734158D01*
X2733413Y3331674D01*
X2713198Y3340047D01*
X2691318D01*
X2671103Y3331674D01*
X2655631Y3316202D01*
X2647258Y3295987D01*
Y3274107D01*
X2655631Y3253892D01*
X2671103Y3238421D01*
X2691318Y3230047D01*
X2692371D01*
X2756376Y3166043D01*
Y2835143D01*
X2743676Y2832617D01*
X2738402Y2845349D01*
X2727182Y2859972D01*
X2712559Y2871192D01*
X2695531Y2878245D01*
X2677258Y2880651D01*
X2277258D01*
X2258984Y2878245D01*
X2241956Y2871192D01*
X2227333Y2859972D01*
X2216113Y2845349D01*
X2209060Y2828321D01*
X2206654Y2810047D01*
Y2770604D01*
X2100000D01*
X2081727Y2768198D01*
X2064698Y2761145D01*
X2050076Y2749924D01*
X1850076Y2549924D01*
X1838855Y2535302D01*
X1831802Y2518273D01*
X1829396Y2500000D01*
Y2138626D01*
X1831802Y2120353D01*
X1838855Y2103324D01*
X1850076Y2088702D01*
X1908654Y2030123D01*
X1923277Y2018903D01*
X1940305Y2011849D01*
X1958579Y2009444D01*
X2031654D01*
Y1980651D01*
X1960047D01*
X1941774Y1978245D01*
X1924745Y1971192D01*
X1910123Y1959972D01*
X1850076Y1899925D01*
X1838855Y1885302D01*
X1831802Y1868274D01*
X1829396Y1850000D01*
Y1600000D01*
X1830454Y1591968D01*
X1725000Y1486515D01*
X1666254Y1545261D01*
Y1664917D01*
X1675991Y1668073D01*
X1678954Y1668264D01*
X1693845Y1653373D01*
X1714060Y1645000D01*
X1735940D01*
X1756155Y1653373D01*
X1771627Y1668845D01*
X1780000Y1689060D01*
Y1710940D01*
X1771627Y1731155D01*
X1756155Y1746626D01*
X1735940Y1755000D01*
X1725988Y1756708D01*
X1723659Y1768413D01*
X1717029Y1778337D01*
X1713580Y1781786D01*
X1713042Y1794264D01*
X1713042D01*
Y1984263D01*
X1573042D01*
Y1794263D01*
X1593991D01*
X1597843Y1781563D01*
X1581743Y1770805D01*
X1561821Y1750884D01*
X1548560Y1731037D01*
X1543903Y1707626D01*
Y1519921D01*
X1548560Y1496510D01*
X1561821Y1476664D01*
X1666082Y1372403D01*
Y1310047D01*
X1670739Y1286636D01*
X1684000Y1266790D01*
X1744048Y1206743D01*
X1763894Y1193481D01*
X1787305Y1188825D01*
X1849660D01*
X1863825Y1174660D01*
Y975339D01*
X1849661Y961175D01*
X1347162D01*
X1341968Y963327D01*
X1325000Y965561D01*
X1308031Y963327D01*
X1302838Y961175D01*
X1225340D01*
X1186175Y1000340D01*
Y1050000D01*
X1181519Y1073411D01*
X1168258Y1093257D01*
X1093257Y1168258D01*
X1073411Y1181519D01*
X1067700Y1182655D01*
X1061413Y1186856D01*
X1039953Y1191125D01*
X977258D01*
X971841Y1190047D01*
X966318D01*
X961215Y1187933D01*
X955798Y1186856D01*
X951205Y1183787D01*
X946103Y1181674D01*
X942198Y1177769D01*
X937605Y1174700D01*
X934536Y1170107D01*
X930631Y1166202D01*
X928518Y1161100D01*
X925449Y1156507D01*
X924372Y1151090D01*
X922258Y1145987D01*
Y1140464D01*
X921180Y1135047D01*
X922258Y1129630D01*
Y1124107D01*
X924372Y1119004D01*
X925449Y1113587D01*
X928518Y1108995D01*
X930631Y1103892D01*
X934536Y1099987D01*
X937605Y1095395D01*
X942198Y1092326D01*
X946103Y1088421D01*
X951205Y1086307D01*
X955798Y1083239D01*
X961215Y1082161D01*
X966318Y1080047D01*
X971841D01*
X977258Y1078970D01*
X1009515D01*
X1063825Y1024660D01*
Y975000D01*
X1068481Y951589D01*
X1081743Y931743D01*
X1156743Y856743D01*
X1176589Y843481D01*
X1200000Y838825D01*
X1259439D01*
Y787305D01*
X1261673Y770337D01*
X1268223Y754525D01*
X1278642Y740947D01*
X1280899Y738689D01*
X1294477Y728270D01*
X1310289Y721721D01*
X1327258Y719487D01*
X1344226Y721721D01*
X1360038Y728270D01*
X1373616Y738689D01*
X1384035Y752267D01*
X1390584Y768079D01*
X1392818Y785047D01*
X1390584Y802016D01*
X1390561Y802073D01*
Y838825D01*
X1801559D01*
X1805223Y833645D01*
X1807543Y826125D01*
X1795739Y808458D01*
X1791082Y785047D01*
X1795739Y761637D01*
X1809000Y741790D01*
X1828847Y728529D01*
X1852258Y723872D01*
X1875669Y728529D01*
X1895515Y741790D01*
X1918258Y764532D01*
X1931519Y784379D01*
X1936175Y807790D01*
Y874660D01*
X1968257Y906742D01*
X1981519Y926589D01*
X1986175Y950000D01*
Y1200000D01*
X1981519Y1223411D01*
X1968257Y1243258D01*
X1918257Y1293258D01*
X1898411Y1306519D01*
X1875000Y1311175D01*
X1812645D01*
X1788433Y1335387D01*
Y1376918D01*
X1903455Y1491940D01*
X1903605Y1491790D01*
X1923452Y1478528D01*
X1946863Y1473872D01*
X2146858D01*
X2170268Y1478528D01*
X2190115Y1491790D01*
X2203376Y1511636D01*
X2208033Y1535047D01*
X2203376Y1558458D01*
X2190115Y1578305D01*
X2170268Y1591566D01*
X2146858Y1596223D01*
X1982830D01*
X1970604Y1600000D01*
Y1820755D01*
X1989292Y1839443D01*
X2007258D01*
Y1710047D01*
X2097670D01*
X2102258Y1709443D01*
X2331653D01*
Y1489048D01*
X2334059Y1470774D01*
X2341112Y1453746D01*
X2352333Y1439123D01*
X2535058Y1256398D01*
Y1247382D01*
X2541614Y1222916D01*
X2554279Y1200979D01*
X2572189Y1183068D01*
X2594126Y1170403D01*
X2618593Y1163847D01*
X2643923D01*
X2668389Y1170403D01*
X2690326Y1183068D01*
X2708237Y1200979D01*
X2720902Y1222916D01*
X2727458Y1247382D01*
Y1272712D01*
X2720902Y1297179D01*
X2708237Y1319115D01*
X2690326Y1337026D01*
X2668389Y1349691D01*
X2643923Y1356247D01*
X2634907D01*
X2472861Y1518293D01*
Y1710047D01*
X2497257D01*
Y1840047D01*
Y1980047D01*
X2472861D01*
Y2010048D01*
X2497257D01*
X2497257Y2010047D01*
Y2010047D01*
X2508992Y2006735D01*
X2510158Y2005569D01*
X2525043Y1995623D01*
X2542601Y1992131D01*
X2750933D01*
X2768491Y1995623D01*
X2783376Y2005569D01*
X2834701Y2056894D01*
X2844647Y2071779D01*
X2848139Y2089337D01*
Y2280758D01*
X2844647Y2298316D01*
X2834701Y2313201D01*
X2805411Y2342491D01*
X2790526Y2352436D01*
X2772968Y2355929D01*
X2696262D01*
X2648139Y2404052D01*
Y2541042D01*
X2671262Y2564166D01*
X2752257D01*
X2769816Y2567658D01*
X2784701Y2577604D01*
X2834701Y2627604D01*
X2844647Y2642489D01*
X2848139Y2660047D01*
Y3185047D01*
X2844647Y3202606D01*
X2834701Y3217491D01*
X2827606Y3224586D01*
X2830083Y3237042D01*
X2833412Y3238421D01*
X2848884Y3253892D01*
X2857257Y3274107D01*
X2869414Y3272794D01*
Y700000D01*
Y683314D01*
X2862903Y650584D01*
X2850132Y619753D01*
X2831592Y592005D01*
X2814587Y575000D01*
X85413D01*
X68408Y592005D01*
X49868Y619752D01*
X37097Y650584D01*
X30586Y683314D01*
Y700000D01*
Y3700000D01*
Y3716686D01*
X37097Y3749416D01*
X49868Y3780247D01*
X68408Y3807995D01*
X92005Y3831592D01*
X119752Y3850132D01*
X150584Y3862903D01*
X183314Y3869414D01*
X2716685D01*
X2749416Y3862903D01*
D02*
G37*
G36*
X2605034Y2627710D02*
X2569815Y2592490D01*
X2559869Y2577605D01*
X2556376Y2560047D01*
Y2385047D01*
X2559869Y2367489D01*
X2569815Y2352604D01*
X2642825Y2279594D01*
X2642177Y2271237D01*
X2639860Y2265641D01*
X2635978Y2264594D01*
X2627380Y2271192D01*
X2610352Y2278245D01*
X2592078Y2280651D01*
X2102258D01*
X2097670Y2280047D01*
X2007258D01*
Y2150651D01*
X1987824D01*
X1970604Y2167871D01*
Y2470755D01*
X2129245Y2629396D01*
X2267210D01*
X2285484Y2631802D01*
X2302512Y2638855D01*
X2303279Y2639444D01*
X2600174D01*
X2605034Y2627710D01*
D02*
G37*
G36*
X2307258Y2010048D02*
X2331653D01*
Y1980047D01*
X2307257D01*
Y1850651D01*
X2197257D01*
Y1980047D01*
X2172862D01*
Y2010048D01*
X2197257D01*
Y2139444D01*
X2307258D01*
Y2010048D01*
D02*
G37*
%LPC*%
G36*
X1059758Y3760651D02*
X1041484Y3758245D01*
X1024456Y3751192D01*
X1009833Y3739972D01*
X998613Y3725349D01*
X991560Y3708321D01*
X989154Y3690047D01*
Y3617526D01*
X981732Y3611545D01*
X976454Y3610028D01*
X973718Y3611856D01*
X968301Y3612933D01*
X963198Y3615047D01*
X957674D01*
X952258Y3616125D01*
X894163D01*
X887560Y3621192D01*
X870531Y3628245D01*
X852258Y3630651D01*
X833984Y3628245D01*
X816956Y3621192D01*
X802333Y3609972D01*
X791113Y3595349D01*
X784060Y3578321D01*
X781654Y3560047D01*
Y3505714D01*
X727333Y3451393D01*
X716113Y3436771D01*
X709060Y3419742D01*
X706654Y3401469D01*
Y3021223D01*
X402258D01*
X378847Y3016566D01*
X359000Y3003305D01*
X345739Y2983458D01*
X341082Y2960047D01*
X345739Y2936636D01*
X359000Y2916790D01*
X378847Y2903529D01*
X402258Y2898872D01*
X498547D01*
X622400Y2775019D01*
Y2420076D01*
X567371Y2365047D01*
X566318D01*
X546103Y2356674D01*
X530631Y2341202D01*
X522258Y2320987D01*
Y2299107D01*
X530631Y2278893D01*
X546103Y2263421D01*
X566318Y2255048D01*
X588198D01*
X608413Y2263421D01*
X623884Y2278893D01*
X632258Y2299107D01*
Y2300161D01*
X700725Y2368628D01*
X710671Y2383513D01*
X714163Y2401071D01*
Y2794023D01*
X710671Y2811582D01*
X700725Y2826467D01*
X640053Y2887139D01*
X644913Y2898872D01*
X792030D01*
X808984Y2891849D01*
X827258Y2889444D01*
X845531Y2891849D01*
X862485Y2898872D01*
X927258D01*
X950669Y2903529D01*
X970515Y2916790D01*
X983777Y2936636D01*
X988433Y2960047D01*
X983777Y2983458D01*
X970515Y3003305D01*
X950669Y3016566D01*
X927258Y3021223D01*
X865931D01*
X847862Y3039292D01*
Y3372224D01*
X865082Y3389444D01*
X1052258D01*
X1070531Y3391849D01*
X1087560Y3398903D01*
X1102182Y3410123D01*
X1113402Y3424746D01*
X1120456Y3441774D01*
X1122862Y3460047D01*
X1120456Y3478321D01*
X1113402Y3495349D01*
X1102182Y3509972D01*
X1087560Y3521192D01*
X1086524Y3521621D01*
Y3535367D01*
X1095060Y3538903D01*
X1109682Y3550123D01*
X1120902Y3564745D01*
X1127956Y3581774D01*
X1130361Y3600047D01*
Y3690047D01*
X1127956Y3708321D01*
X1120902Y3725349D01*
X1109682Y3739972D01*
X1095060Y3751192D01*
X1078031Y3758245D01*
X1059758Y3760651D01*
D02*
G37*
G36*
X1796347Y3855047D02*
X1758168D01*
X1721290Y3845166D01*
X1688225Y3826076D01*
X1661229Y3799080D01*
X1642139Y3766015D01*
X1632258Y3729137D01*
Y3690958D01*
X1642139Y3654080D01*
X1661229Y3621015D01*
X1688225Y3594018D01*
X1721290Y3574929D01*
X1758168Y3565047D01*
X1796347D01*
X1833225Y3574929D01*
X1866290Y3594018D01*
X1893287Y3621015D01*
X1912376Y3654080D01*
X1922258Y3690958D01*
Y3729137D01*
X1912376Y3766015D01*
X1893287Y3799080D01*
X1866290Y3826076D01*
X1833225Y3845166D01*
X1796347Y3855047D01*
D02*
G37*
G36*
X194758Y3760651D02*
X176484Y3758245D01*
X159456Y3751192D01*
X144833Y3739972D01*
X133613Y3725349D01*
X126560Y3708321D01*
X124154Y3690047D01*
Y3600047D01*
X126560Y3581774D01*
X133613Y3564745D01*
X144833Y3550123D01*
X159456Y3538903D01*
X176484Y3531849D01*
X194758Y3529444D01*
X213031Y3531849D01*
X230059Y3538903D01*
X244682Y3550123D01*
X255902Y3564745D01*
X262956Y3581774D01*
X265361Y3600047D01*
Y3690047D01*
X262956Y3708321D01*
X255902Y3725349D01*
X244682Y3739972D01*
X230059Y3751192D01*
X213031Y3758245D01*
X194758Y3760651D01*
D02*
G37*
G36*
X927203Y3325047D02*
X907312D01*
X888935Y3317435D01*
X874869Y3303370D01*
X867258Y3284993D01*
Y3265102D01*
X874869Y3246725D01*
X888935Y3232659D01*
X907312Y3225047D01*
X927203D01*
X945580Y3232659D01*
X959646Y3246725D01*
X967257Y3265102D01*
Y3284993D01*
X959646Y3303370D01*
X945580Y3317435D01*
X927203Y3325047D01*
D02*
G37*
G36*
X347203D02*
X327312D01*
X308935Y3317435D01*
X294870Y3303370D01*
X287258Y3284993D01*
Y3265102D01*
X294870Y3246725D01*
X308935Y3232659D01*
X327312Y3225047D01*
X347203D01*
X365580Y3232659D01*
X379646Y3246725D01*
X387258Y3265102D01*
Y3284993D01*
X379646Y3303370D01*
X365580Y3317435D01*
X347203Y3325047D01*
D02*
G37*
G36*
X1059758Y3355651D02*
X1041484Y3353246D01*
X1024456Y3346192D01*
X1009833Y3334972D01*
X998613Y3320349D01*
X991560Y3303321D01*
X989154Y3285048D01*
Y3165047D01*
X991560Y3146774D01*
X998613Y3129745D01*
X1009833Y3115123D01*
X1024456Y3103903D01*
X1041484Y3096849D01*
X1059758Y3094443D01*
X1078031Y3096849D01*
X1095060Y3103903D01*
X1109682Y3115123D01*
X1120902Y3129745D01*
X1127956Y3146774D01*
X1130361Y3165047D01*
Y3285048D01*
X1127956Y3303321D01*
X1120902Y3320349D01*
X1109682Y3334972D01*
X1095060Y3346192D01*
X1078031Y3353246D01*
X1059758Y3355651D01*
D02*
G37*
G36*
X194758D02*
X176484Y3353246D01*
X159456Y3346192D01*
X144833Y3334972D01*
X133613Y3320349D01*
X126560Y3303321D01*
X124154Y3285048D01*
Y3165047D01*
X126560Y3146774D01*
X133613Y3129745D01*
X144833Y3115123D01*
X159456Y3103903D01*
X176484Y3096849D01*
X194758Y3094443D01*
X213031Y3096849D01*
X230059Y3103903D01*
X244682Y3115123D01*
X255902Y3129745D01*
X262956Y3146774D01*
X265361Y3165047D01*
Y3285048D01*
X262956Y3303321D01*
X255902Y3320349D01*
X244682Y3334972D01*
X230059Y3346192D01*
X213031Y3353246D01*
X194758Y3355651D01*
D02*
G37*
G36*
X2288198Y3790047D02*
X2266318D01*
X2246103Y3781674D01*
X2230631Y3766202D01*
X2222258Y3745987D01*
Y3724107D01*
X2230631Y3703893D01*
X2245633Y3688891D01*
X1978371Y3421629D01*
X1971741Y3411705D01*
X1969412Y3400000D01*
X1969412Y3399999D01*
Y3212670D01*
X1837330Y3080588D01*
X1350000D01*
X1338295Y3078259D01*
X1328371Y3071629D01*
X1328371Y3071628D01*
X1228371Y2971629D01*
X1221741Y2961705D01*
X1219412Y2950000D01*
X1219412Y2949999D01*
Y2462670D01*
X1078371Y2321629D01*
X1071741Y2311705D01*
X1069412Y2300000D01*
X1069412Y2299999D01*
Y1350001D01*
X1069412Y1350000D01*
X1071741Y1338295D01*
X1078371Y1328371D01*
X1318324Y1088418D01*
X1328248Y1081788D01*
X1339953Y1079459D01*
X1339954Y1079460D01*
X1380396D01*
X1380631Y1078892D01*
X1396103Y1063421D01*
X1416318Y1055047D01*
X1438198D01*
X1458413Y1063421D01*
X1468961Y1073969D01*
X1477258Y1077469D01*
X1485554Y1073969D01*
X1496103Y1063421D01*
X1516318Y1055047D01*
X1538198D01*
X1558412Y1063421D01*
X1569558Y1074566D01*
X1582258Y1069305D01*
Y990048D01*
X1722257D01*
Y1180047D01*
X1582258D01*
Y1150789D01*
X1569558Y1145529D01*
X1558412Y1156674D01*
X1538198Y1165047D01*
X1516318D01*
X1496103Y1156674D01*
X1485554Y1146125D01*
X1477258Y1142626D01*
X1468961Y1146125D01*
X1458413Y1156674D01*
X1438198Y1165047D01*
X1416318D01*
X1396103Y1156674D01*
X1380631Y1141202D01*
X1380396Y1140635D01*
X1352623D01*
X1130588Y1362670D01*
Y2287330D01*
X1271628Y2428371D01*
X1271629Y2428371D01*
X1278259Y2438295D01*
X1280588Y2450000D01*
Y2937330D01*
X1362670Y3019412D01*
X1849999D01*
X1850000Y3019412D01*
X1861705Y3021741D01*
X1871629Y3028371D01*
X2021628Y3178371D01*
X2021629Y3178371D01*
X2028259Y3188295D01*
X2030588Y3200000D01*
Y3387330D01*
X2298886Y3655629D01*
X2305517Y3665552D01*
X2307846Y3677258D01*
X2307845Y3677259D01*
Y3688186D01*
X2308412Y3688421D01*
X2323884Y3703893D01*
X2332257Y3724107D01*
Y3745987D01*
X2323884Y3766202D01*
X2308412Y3781674D01*
X2288198Y3790047D01*
D02*
G37*
G36*
X1363198Y2865047D02*
X1341318D01*
X1321103Y2856674D01*
X1305631Y2841202D01*
X1297258Y2820987D01*
Y2799107D01*
X1305631Y2778892D01*
X1321103Y2763421D01*
X1341318Y2755047D01*
X1363198D01*
X1363765Y2755282D01*
X1405629Y2713418D01*
X1415552Y2706788D01*
X1427257Y2704459D01*
X1427259Y2704460D01*
X1464588D01*
X1492267Y2676781D01*
X1490261Y2670997D01*
X1486039Y2665047D01*
X1466318D01*
X1446103Y2656674D01*
X1430631Y2641202D01*
X1422258Y2620987D01*
Y2599107D01*
X1430631Y2578892D01*
X1446103Y2563421D01*
X1466318Y2555047D01*
X1488198D01*
X1488765Y2555282D01*
X1546670Y2497378D01*
Y2310048D01*
X1546670Y2310047D01*
X1548998Y2298342D01*
X1555629Y2288418D01*
X1597493Y2246555D01*
X1597258Y2245987D01*
Y2224107D01*
X1605631Y2203892D01*
X1621103Y2188421D01*
X1641318Y2180047D01*
X1663198D01*
X1683412Y2188421D01*
X1698884Y2203892D01*
X1707257Y2224107D01*
Y2245987D01*
X1698884Y2266202D01*
X1683412Y2281674D01*
X1663198Y2290047D01*
X1641318D01*
X1640750Y2289812D01*
X1607845Y2322717D01*
Y2510047D01*
X1605517Y2521753D01*
X1598887Y2531676D01*
X1598886Y2531677D01*
X1562249Y2568314D01*
X1564254Y2574098D01*
X1568476Y2580047D01*
X1588198D01*
X1608413Y2588421D01*
X1623884Y2603892D01*
X1632258Y2624107D01*
Y2645987D01*
X1623884Y2666202D01*
X1608413Y2681674D01*
X1588198Y2690047D01*
X1566318D01*
X1565750Y2689812D01*
X1498887Y2756676D01*
X1488963Y2763307D01*
X1477258Y2765635D01*
X1477256Y2765635D01*
X1439928D01*
X1407023Y2798540D01*
X1407258Y2799107D01*
Y2820987D01*
X1398884Y2841202D01*
X1383413Y2856674D01*
X1363198Y2865047D01*
D02*
G37*
G36*
X2664923Y1752247D02*
X2639593D01*
X2615126Y1745691D01*
X2593189Y1733026D01*
X2575279Y1715115D01*
X2562614Y1693179D01*
X2556058Y1668712D01*
Y1643382D01*
X2562614Y1618915D01*
X2575279Y1596979D01*
X2593189Y1579068D01*
X2615126Y1566403D01*
X2639593Y1559847D01*
X2664923D01*
X2689389Y1566403D01*
X2711326Y1579068D01*
X2729237Y1596979D01*
X2741902Y1618915D01*
X2748458Y1643382D01*
Y1668712D01*
X2741902Y1693179D01*
X2729237Y1715115D01*
X2711326Y1733026D01*
X2689389Y1745691D01*
X2664923Y1752247D01*
D02*
G37*
G36*
X2135923Y1356247D02*
X2110593D01*
X2086126Y1349691D01*
X2064189Y1337026D01*
X2046279Y1319115D01*
X2033614Y1297179D01*
X2027058Y1272712D01*
Y1247382D01*
X2033614Y1222916D01*
X2046279Y1200979D01*
X2064189Y1183068D01*
X2086126Y1170403D01*
X2110593Y1163847D01*
X2135923D01*
X2160389Y1170403D01*
X2182326Y1183068D01*
X2200237Y1200979D01*
X2212902Y1222916D01*
X2219458Y1247382D01*
Y1272712D01*
X2212902Y1297179D01*
X2200237Y1319115D01*
X2182326Y1337026D01*
X2160389Y1349691D01*
X2135923Y1356247D01*
D02*
G37*
G36*
X2516744Y970000D02*
X2483257D01*
X2450413Y963467D01*
X2419475Y950652D01*
X2391631Y932047D01*
X2367953Y908369D01*
X2349348Y880525D01*
X2336533Y849587D01*
X2330000Y816743D01*
Y783256D01*
X2336533Y750413D01*
X2349348Y719475D01*
X2367953Y691631D01*
X2391631Y667952D01*
X2419475Y649348D01*
X2450413Y636533D01*
X2483257Y630000D01*
X2516744D01*
X2549587Y636533D01*
X2580525Y649348D01*
X2608369Y667952D01*
X2632048Y691631D01*
X2650652Y719475D01*
X2663467Y750413D01*
X2670000Y783256D01*
Y816743D01*
X2663467Y849587D01*
X2650652Y880525D01*
X2632048Y908369D01*
X2608369Y932047D01*
X2580525Y950652D01*
X2549587Y963467D01*
X2516744Y970000D01*
D02*
G37*
G36*
X416743D02*
X383257D01*
X350413Y963467D01*
X319475Y950652D01*
X291631Y932047D01*
X267952Y908369D01*
X249348Y880525D01*
X236533Y849587D01*
X230000Y816743D01*
Y783256D01*
X236533Y750413D01*
X249348Y719475D01*
X267952Y691631D01*
X291631Y667952D01*
X319475Y649348D01*
X350413Y636533D01*
X383257Y630000D01*
X416743D01*
X449587Y636533D01*
X480525Y649348D01*
X508369Y667952D01*
X532047Y691631D01*
X550652Y719475D01*
X563467Y750413D01*
X570000Y783256D01*
Y816743D01*
X563467Y849587D01*
X550652Y880525D01*
X532047Y908369D01*
X508369Y932047D01*
X480525Y950652D01*
X449587Y963467D01*
X416743Y970000D01*
D02*
G37*
%LPD*%
D37*
X1727258Y1310047D02*
Y1402258D01*
X1925000Y950000D02*
Y1200000D01*
X1727258Y1310047D02*
X1787305Y1250000D01*
X1875000D01*
X1925000Y1200000D01*
X1875000Y900000D02*
X1925000Y950000D01*
X1325000Y900000D02*
X1875000D01*
X502258Y2960047D02*
X777258D01*
X827258D01*
X1605079Y1707626D02*
X1625000Y1727547D01*
X1605079Y1519921D02*
Y1707626D01*
Y1519921D02*
X1722743Y1402258D01*
X1727258D01*
X1875000Y807790D02*
Y900000D01*
X1852258Y785047D02*
X1875000Y807790D01*
X1200000Y900000D02*
X1325000D01*
X1050000Y1125000D02*
X1125000Y1050000D01*
Y975000D02*
Y1050000D01*
Y975000D02*
X1200000Y900000D01*
X1900000Y1575000D02*
Y1581910D01*
X1727258Y1402258D02*
X1900000Y1575000D01*
Y1581910D02*
X1946863Y1535047D01*
X1900000Y1581910D02*
Y1600000D01*
X1946863Y1535047D02*
X2146858D01*
X827258Y2960047D02*
X927258D01*
X402258D02*
X502258D01*
D38*
X2402257Y1910047D02*
X2402257D01*
Y2080047D02*
X2402258D01*
X2402257Y1910047D02*
Y2080047D01*
X2277258Y2710047D02*
X2377258Y2810047D01*
X2477258Y2710047D02*
X2577258Y2810047D01*
X2677258Y2710047D02*
Y2810047D01*
X1900000Y1850000D02*
X1960047Y1910047D01*
X2102258D01*
X2377258Y2810047D02*
X2477257Y2710047D01*
X2577258Y2810047D02*
X2677258Y2710047D01*
X1900000Y1600000D02*
Y1850000D01*
X1958579Y2080047D02*
X2102258D01*
X1900000Y2138626D02*
Y2500000D01*
Y2138626D02*
X1958579Y2080047D01*
X2102258Y1910047D02*
Y2080047D01*
X1900000Y2500000D02*
X2100000Y2700000D01*
X2267210D01*
X2277258Y2710047D01*
X2477258D02*
X2577258D01*
X2477258D02*
X2477258D01*
X2477257D02*
X2477258D01*
X2377258D02*
X2477257D01*
X2277258D02*
X2377258D01*
X2277258D02*
X2277258D01*
X2577258D02*
X2677258D01*
X2577258Y2810047D02*
X2677258D01*
X2477258D02*
X2577258D01*
X2377258D02*
X2477258D01*
X2277258D02*
X2377258D01*
X2277258Y2710047D02*
Y2810047D01*
X852258Y3560047D02*
X952257Y3460047D01*
X852258D02*
X952257D01*
X952258D01*
X852258D02*
Y3560047D01*
X952258Y3460047D02*
X1052258D01*
X777258Y3401469D02*
X835837Y3460047D01*
X852258D01*
X2102258Y2210047D02*
X2402258D01*
X2102258Y1780047D02*
X2402257D01*
X777258Y3010047D02*
Y3401469D01*
Y3010047D02*
X827258Y2960047D01*
X2592078Y2210047D02*
X2638078Y2164047D01*
X2402258Y2210047D02*
X2592078D01*
X2638078Y2164047D02*
X2652258D01*
X2402257Y1489048D02*
Y1780047D01*
Y1489048D02*
X2631258Y1260047D01*
D39*
X577258Y2310047D02*
X668282Y2401071D01*
X502258Y2960047D02*
X668282Y2794023D01*
Y2401071D02*
Y2794023D01*
X2677258Y2310047D02*
X2772968D01*
X2802258Y2089337D02*
Y2280758D01*
X2542601Y2038012D02*
X2750933D01*
X2802258Y2089337D01*
X2772968Y2310047D02*
X2802258Y2280758D01*
X2652258Y2610047D02*
X2752257D01*
X2702258Y3285047D02*
X2802258Y3185047D01*
Y2660047D02*
Y3185047D01*
X2702258Y3285047D02*
X2802258D01*
X2752257Y2610047D02*
X2802258Y2660047D01*
X2495566Y2085047D02*
X2542601Y2038012D01*
X2402258Y2080047D02*
X2407258Y2085047D01*
X2602258Y2560047D02*
X2652258Y2610047D01*
X2602258Y2385047D02*
Y2560047D01*
Y2385047D02*
X2677258Y2310047D01*
X2407258Y2085047D02*
X2495566D01*
D40*
X2277258Y3677258D02*
Y3735047D01*
X2000000Y3400000D02*
X2277258Y3677258D01*
X2000000Y3200000D02*
Y3400000D01*
X1850000Y3050000D02*
X2000000Y3200000D01*
X1250000Y2950000D02*
X1350000Y3050000D01*
X1850000D01*
X1250000Y2450000D02*
Y2950000D01*
X1100000Y2300000D02*
X1250000Y2450000D01*
X1100000Y1350000D02*
Y2300000D01*
Y1350000D02*
X1339953Y1110047D01*
X1427258D01*
X1695400Y1743130D02*
X1725000Y1713530D01*
Y1700000D02*
Y1713530D01*
X1695400Y1743130D02*
Y1756708D01*
X1675000Y1777108D02*
X1695400Y1756708D01*
X1675000Y1777108D02*
Y1857305D01*
X1643042Y1889263D02*
X1675000Y1857305D01*
X1577258Y2310047D02*
X1652258Y2235047D01*
X1627258Y1110047D02*
X1652258Y1085047D01*
X1527258Y1110047D02*
X1627258D01*
X1477258Y2735047D02*
X1577258Y2635047D01*
X1477258Y2610047D02*
X1577258Y2510047D01*
Y2310047D02*
Y2510047D01*
X1352258Y2810047D02*
X1427257Y2735047D01*
X1477258D01*
D42*
X1039953Y1135047D02*
X1050000Y1125000D01*
X977258Y1135047D02*
X1039953D01*
X952258Y3460047D02*
Y3560047D01*
X852258D02*
X952258D01*
D46*
X337258Y3275047D02*
D03*
X917258D02*
D03*
D47*
X1059758Y3225047D02*
D03*
X194758D02*
D03*
D48*
Y3645047D02*
D03*
X1059758D02*
D03*
D49*
X400000Y800000D02*
D03*
X2500000D02*
D03*
D50*
X2631258Y1260047D02*
D03*
X2377258D02*
D03*
X2123258D02*
D03*
X2652258Y2164047D02*
D03*
Y1910047D02*
D03*
Y1656047D02*
D03*
D51*
X1427258Y3710047D02*
D03*
X1777258D02*
D03*
D52*
X2800000Y1450000D02*
D03*
X1684746Y2858152D02*
D03*
X1074228Y2738144D02*
D03*
X1019875Y2491467D02*
D03*
X650000Y3650000D02*
D03*
X500000D02*
D03*
X350000D02*
D03*
X400000Y2250000D02*
D03*
Y2100000D02*
D03*
X250000Y2050000D02*
D03*
Y2200000D02*
D03*
Y2350000D02*
D03*
X2550000Y1100000D02*
D03*
X2400000D02*
D03*
X2250000D02*
D03*
X2100000Y950000D02*
D03*
X2250000D02*
D03*
Y800000D02*
D03*
X2100000D02*
D03*
X100000Y2550000D02*
D03*
Y2400000D02*
D03*
Y2250000D02*
D03*
Y2100000D02*
D03*
Y1950000D02*
D03*
Y1800000D02*
D03*
Y1650000D02*
D03*
Y1500000D02*
D03*
Y1350000D02*
D03*
Y1200000D02*
D03*
Y1050000D02*
D03*
X177502Y631797D02*
D03*
X100000Y750000D02*
D03*
Y900000D02*
D03*
X700000D02*
D03*
X650000Y750000D02*
D03*
X1200000Y650000D02*
D03*
X1350000D02*
D03*
X1500000D02*
D03*
X1650000D02*
D03*
X1800000D02*
D03*
X1950000D02*
D03*
X2100000D02*
D03*
X2250000D02*
D03*
X2800000Y700000D02*
D03*
Y850000D02*
D03*
Y1000000D02*
D03*
X1250000Y3800000D02*
D03*
X950000D02*
D03*
X800000D02*
D03*
X650000D02*
D03*
X500000D02*
D03*
X350000D02*
D03*
X725000Y1900000D02*
D03*
X850000D02*
D03*
Y1800000D02*
D03*
X770000Y610000D02*
D03*
X2827258Y2510047D02*
D03*
X450000Y2850000D02*
D03*
Y2400000D02*
D03*
X177258Y2860047D02*
D03*
Y2960047D02*
D03*
X1727258Y1310047D02*
D03*
X1602258Y785047D02*
D03*
X1727258D02*
D03*
X1888869Y1994439D02*
D03*
X1725000Y1700000D02*
D03*
X1727258Y1585047D02*
D03*
X877258Y1135047D02*
D03*
X777258Y1035047D02*
D03*
X1477258Y785047D02*
D03*
X2146858Y1635447D02*
D03*
X1927258Y1410047D02*
D03*
X1625000Y1727547D02*
D03*
X1815653Y1943528D02*
D03*
X1652258Y2235047D02*
D03*
X1727258Y2535047D02*
D03*
X1427258Y1110047D02*
D03*
X1527258D02*
D03*
X2252258Y2535047D02*
D03*
X2177258Y3285047D02*
D03*
X1577258Y2635047D02*
D03*
X977258Y1135047D02*
D03*
X1427258Y1010047D02*
D03*
X1852258Y785047D02*
D03*
X427258Y1410047D02*
D03*
X277258Y2960047D02*
D03*
X227258Y1910047D02*
D03*
Y1710047D02*
D03*
Y1810047D02*
D03*
X827258Y2960047D02*
D03*
X1127258D02*
D03*
X927258D02*
D03*
X502258D02*
D03*
X402258D02*
D03*
X1027658D02*
D03*
X527258Y1410047D02*
D03*
X627258D02*
D03*
X1367258Y1485047D02*
D03*
X1242258D02*
D03*
X1492258D02*
D03*
Y1360047D02*
D03*
X1367258D02*
D03*
X1242258D02*
D03*
Y1610047D02*
D03*
X1367258D02*
D03*
X1492258D02*
D03*
X227258Y1410047D02*
D03*
Y1510047D02*
D03*
Y1610047D02*
D03*
X327258Y1410047D02*
D03*
X1759758Y3420047D02*
D03*
Y3300048D02*
D03*
X1669758D02*
D03*
Y3420047D02*
D03*
X2702258Y3285047D02*
D03*
X2602258Y3262947D02*
D03*
X1212093Y3203863D02*
D03*
X2677258Y2810047D02*
D03*
X2727258Y2410047D02*
D03*
X2677258Y2710047D02*
D03*
X2252258Y2435047D02*
D03*
X2477258Y2710047D02*
D03*
X2577258Y2810047D02*
D03*
X2477258D02*
D03*
X2377258D02*
D03*
Y2710047D02*
D03*
X2577258D02*
D03*
X2727258Y2510047D02*
D03*
X2827258Y2410047D02*
D03*
X1227258Y3585047D02*
D03*
X952258Y3560047D02*
D03*
Y3460047D02*
D03*
X1052258D02*
D03*
X2802258Y3285047D02*
D03*
X2466557Y3435047D02*
D03*
X752258Y1360047D02*
D03*
X630028Y1944480D02*
D03*
X777258Y2310047D02*
D03*
X577258D02*
D03*
X430028Y1944480D02*
D03*
X330028D02*
D03*
X530028D02*
D03*
X354604Y2632701D02*
D03*
X1127258Y2860047D02*
D03*
X277258D02*
D03*
X1352258Y2810047D02*
D03*
X2277258Y2710047D02*
D03*
Y2810047D02*
D03*
X1477258Y2610047D02*
D03*
X1027258Y2860047D02*
D03*
X999911Y2632701D02*
D03*
X2252258Y2335047D02*
D03*
X2146858Y1535047D02*
D03*
X2777258Y3660047D02*
D03*
X1980449Y3735503D02*
D03*
X2277258Y3735047D02*
D03*
X852258Y3560047D02*
D03*
Y3460047D02*
D03*
X752258Y1235047D02*
D03*
X1327258Y785047D02*
D03*
X1102258D02*
D03*
D53*
X2102258Y1910047D02*
D03*
Y1780047D02*
D03*
Y2080047D02*
D03*
Y2210047D02*
D03*
X2402258Y2080047D02*
D03*
Y2210047D02*
D03*
X2402257Y1910047D02*
D03*
Y1780047D02*
D03*
D54*
X1643042Y1889263D02*
D03*
X1513042D02*
D03*
X1652258Y1085047D02*
D03*
X1782258D02*
D03*
D55*
X1325000Y787305D02*
Y900000D01*
Y787305D02*
X1327258Y785047D01*
%TF.MD5,dcea2249aceddae06a1d63c2cb8eeff8*%
M02*
