%TF.GenerationSoftware,Altium Limited,Altium Designer,22.7.1 (60)*%
G04 Layer_Color=8421504*
%FSLAX45Y45*%
%MOMM*%
%TF.SameCoordinates,1A5FE687-02E9-4ECA-85C8-40D928D14E81*%
%TF.FilePolarity,Positive*%
%TF.FileFunction,Paste,Top*%
%TF.Part,Single*%
G01*
G75*
%TA.AperFunction,ConnectorPad*%
%ADD11R,0.60000X1.50000*%
%ADD12R,0.30000X1.50000*%
%TA.AperFunction,SMDPad,CuDef*%
G04:AMPARAMS|DCode=13|XSize=3.45mm|YSize=3.45mm|CornerRadius=0.1725mm|HoleSize=0mm|Usage=FLASHONLY|Rotation=270.000|XOffset=0mm|YOffset=0mm|HoleType=Round|Shape=RoundedRectangle|*
%AMROUNDEDRECTD13*
21,1,3.45000,3.10500,0,0,270.0*
21,1,3.10500,3.45000,0,0,270.0*
1,1,0.34500,-1.55250,-1.55250*
1,1,0.34500,-1.55250,1.55250*
1,1,0.34500,1.55250,1.55250*
1,1,0.34500,1.55250,-1.55250*
%
%ADD13ROUNDEDRECTD13*%
G04:AMPARAMS|DCode=14|XSize=0.25mm|YSize=0.7mm|CornerRadius=0.0125mm|HoleSize=0mm|Usage=FLASHONLY|Rotation=90.000|XOffset=0mm|YOffset=0mm|HoleType=Round|Shape=RoundedRectangle|*
%AMROUNDEDRECTD14*
21,1,0.25000,0.67500,0,0,90.0*
21,1,0.22500,0.70000,0,0,90.0*
1,1,0.02500,0.33750,0.11250*
1,1,0.02500,0.33750,-0.11250*
1,1,0.02500,-0.33750,-0.11250*
1,1,0.02500,-0.33750,0.11250*
%
%ADD14ROUNDEDRECTD14*%
G04:AMPARAMS|DCode=15|XSize=0.25mm|YSize=0.7mm|CornerRadius=0.0125mm|HoleSize=0mm|Usage=FLASHONLY|Rotation=0.000|XOffset=0mm|YOffset=0mm|HoleType=Round|Shape=RoundedRectangle|*
%AMROUNDEDRECTD15*
21,1,0.25000,0.67500,0,0,0.0*
21,1,0.22500,0.70000,0,0,0.0*
1,1,0.02500,0.11250,-0.33750*
1,1,0.02500,-0.11250,-0.33750*
1,1,0.02500,-0.11250,0.33750*
1,1,0.02500,0.11250,0.33750*
%
%ADD15ROUNDEDRECTD15*%
G04:AMPARAMS|DCode=16|XSize=0.25mm|YSize=1.15mm|CornerRadius=0.05mm|HoleSize=0mm|Usage=FLASHONLY|Rotation=90.000|XOffset=0mm|YOffset=0mm|HoleType=Round|Shape=RoundedRectangle|*
%AMROUNDEDRECTD16*
21,1,0.25000,1.05000,0,0,90.0*
21,1,0.15000,1.15000,0,0,90.0*
1,1,0.10000,0.52500,0.07500*
1,1,0.10000,0.52500,-0.07500*
1,1,0.10000,-0.52500,-0.07500*
1,1,0.10000,-0.52500,0.07500*
%
%ADD16ROUNDEDRECTD16*%
G04:AMPARAMS|DCode=17|XSize=1.57mm|YSize=1.88mm|CornerRadius=0.0471mm|HoleSize=0mm|Usage=FLASHONLY|Rotation=0.000|XOffset=0mm|YOffset=0mm|HoleType=Round|Shape=RoundedRectangle|*
%AMROUNDEDRECTD17*
21,1,1.57000,1.78580,0,0,0.0*
21,1,1.47580,1.88000,0,0,0.0*
1,1,0.09420,0.73790,-0.89290*
1,1,0.09420,-0.73790,-0.89290*
1,1,0.09420,-0.73790,0.89290*
1,1,0.09420,0.73790,0.89290*
%
%ADD17ROUNDEDRECTD17*%
G04:AMPARAMS|DCode=18|XSize=0.8mm|YSize=1mm|CornerRadius=0.1mm|HoleSize=0mm|Usage=FLASHONLY|Rotation=0.000|XOffset=0mm|YOffset=0mm|HoleType=Round|Shape=RoundedRectangle|*
%AMROUNDEDRECTD18*
21,1,0.80000,0.80000,0,0,0.0*
21,1,0.60000,1.00000,0,0,0.0*
1,1,0.20000,0.30000,-0.40000*
1,1,0.20000,-0.30000,-0.40000*
1,1,0.20000,-0.30000,0.40000*
1,1,0.20000,0.30000,0.40000*
%
%ADD18ROUNDEDRECTD18*%
G04:AMPARAMS|DCode=19|XSize=0.6mm|YSize=1.7mm|CornerRadius=0.075mm|HoleSize=0mm|Usage=FLASHONLY|Rotation=0.000|XOffset=0mm|YOffset=0mm|HoleType=Round|Shape=RoundedRectangle|*
%AMROUNDEDRECTD19*
21,1,0.60000,1.55000,0,0,0.0*
21,1,0.45000,1.70000,0,0,0.0*
1,1,0.15000,0.22500,-0.77500*
1,1,0.15000,-0.22500,-0.77500*
1,1,0.15000,-0.22500,0.77500*
1,1,0.15000,0.22500,0.77500*
%
%ADD19ROUNDEDRECTD19*%
G04:AMPARAMS|DCode=20|XSize=0.6mm|YSize=0.7mm|CornerRadius=0.075mm|HoleSize=0mm|Usage=FLASHONLY|Rotation=180.000|XOffset=0mm|YOffset=0mm|HoleType=Round|Shape=RoundedRectangle|*
%AMROUNDEDRECTD20*
21,1,0.60000,0.55000,0,0,180.0*
21,1,0.45000,0.70000,0,0,180.0*
1,1,0.15000,-0.22500,0.27500*
1,1,0.15000,0.22500,0.27500*
1,1,0.15000,0.22500,-0.27500*
1,1,0.15000,-0.22500,-0.27500*
%
%ADD20ROUNDEDRECTD20*%
G04:AMPARAMS|DCode=21|XSize=0.6mm|YSize=0.7mm|CornerRadius=0.075mm|HoleSize=0mm|Usage=FLASHONLY|Rotation=270.000|XOffset=0mm|YOffset=0mm|HoleType=Round|Shape=RoundedRectangle|*
%AMROUNDEDRECTD21*
21,1,0.60000,0.55000,0,0,270.0*
21,1,0.45000,0.70000,0,0,270.0*
1,1,0.15000,-0.27500,-0.22500*
1,1,0.15000,-0.27500,0.22500*
1,1,0.15000,0.27500,0.22500*
1,1,0.15000,0.27500,-0.22500*
%
%ADD21ROUNDEDRECTD21*%
G04:AMPARAMS|DCode=22|XSize=3.2mm|YSize=2.1mm|CornerRadius=0.0525mm|HoleSize=0mm|Usage=FLASHONLY|Rotation=0.000|XOffset=0mm|YOffset=0mm|HoleType=Round|Shape=RoundedRectangle|*
%AMROUNDEDRECTD22*
21,1,3.20000,1.99500,0,0,0.0*
21,1,3.09500,2.10000,0,0,0.0*
1,1,0.10500,1.54750,-0.99750*
1,1,0.10500,-1.54750,-0.99750*
1,1,0.10500,-1.54750,0.99750*
1,1,0.10500,1.54750,0.99750*
%
%ADD22ROUNDEDRECTD22*%
G04:AMPARAMS|DCode=23|XSize=0.6mm|YSize=2.1mm|CornerRadius=0.051mm|HoleSize=0mm|Usage=FLASHONLY|Rotation=0.000|XOffset=0mm|YOffset=0mm|HoleType=Round|Shape=RoundedRectangle|*
%AMROUNDEDRECTD23*
21,1,0.60000,1.99800,0,0,0.0*
21,1,0.49800,2.10000,0,0,0.0*
1,1,0.10200,0.24900,-0.99900*
1,1,0.10200,-0.24900,-0.99900*
1,1,0.10200,-0.24900,0.99900*
1,1,0.10200,0.24900,0.99900*
%
%ADD23ROUNDEDRECTD23*%
G04:AMPARAMS|DCode=24|XSize=0.6mm|YSize=1.2mm|CornerRadius=0.075mm|HoleSize=0mm|Usage=FLASHONLY|Rotation=180.000|XOffset=0mm|YOffset=0mm|HoleType=Round|Shape=RoundedRectangle|*
%AMROUNDEDRECTD24*
21,1,0.60000,1.05000,0,0,180.0*
21,1,0.45000,1.20000,0,0,180.0*
1,1,0.15000,-0.22500,0.52500*
1,1,0.15000,0.22500,0.52500*
1,1,0.15000,0.22500,-0.52500*
1,1,0.15000,-0.22500,-0.52500*
%
%ADD24ROUNDEDRECTD24*%
G04:AMPARAMS|DCode=25|XSize=0.8mm|YSize=1mm|CornerRadius=0.1mm|HoleSize=0mm|Usage=FLASHONLY|Rotation=270.000|XOffset=0mm|YOffset=0mm|HoleType=Round|Shape=RoundedRectangle|*
%AMROUNDEDRECTD25*
21,1,0.80000,0.80000,0,0,270.0*
21,1,0.60000,1.00000,0,0,270.0*
1,1,0.20000,-0.40000,-0.30000*
1,1,0.20000,-0.40000,0.30000*
1,1,0.20000,0.40000,0.30000*
1,1,0.20000,0.40000,-0.30000*
%
%ADD25ROUNDEDRECTD25*%
G04:AMPARAMS|DCode=26|XSize=1mm|YSize=1.7mm|CornerRadius=0.125mm|HoleSize=0mm|Usage=FLASHONLY|Rotation=0.000|XOffset=0mm|YOffset=0mm|HoleType=Round|Shape=RoundedRectangle|*
%AMROUNDEDRECTD26*
21,1,1.00000,1.45000,0,0,0.0*
21,1,0.75000,1.70000,0,0,0.0*
1,1,0.25000,0.37500,-0.72500*
1,1,0.25000,-0.37500,-0.72500*
1,1,0.25000,-0.37500,0.72500*
1,1,0.25000,0.37500,0.72500*
%
%ADD26ROUNDEDRECTD26*%
G04:AMPARAMS|DCode=27|XSize=1.4mm|YSize=1.7mm|CornerRadius=0.175mm|HoleSize=0mm|Usage=FLASHONLY|Rotation=0.000|XOffset=0mm|YOffset=0mm|HoleType=Round|Shape=RoundedRectangle|*
%AMROUNDEDRECTD27*
21,1,1.40000,1.35000,0,0,0.0*
21,1,1.05000,1.70000,0,0,0.0*
1,1,0.35000,0.52500,-0.67500*
1,1,0.35000,-0.52500,-0.67500*
1,1,0.35000,-0.52500,0.67500*
1,1,0.35000,0.52500,0.67500*
%
%ADD27ROUNDEDRECTD27*%
G04:AMPARAMS|DCode=28|XSize=1.3mm|YSize=1.1mm|CornerRadius=0.055mm|HoleSize=0mm|Usage=FLASHONLY|Rotation=270.000|XOffset=0mm|YOffset=0mm|HoleType=Round|Shape=RoundedRectangle|*
%AMROUNDEDRECTD28*
21,1,1.30000,0.99000,0,0,270.0*
21,1,1.19000,1.10000,0,0,270.0*
1,1,0.11000,-0.49500,-0.59500*
1,1,0.11000,-0.49500,0.59500*
1,1,0.11000,0.49500,0.59500*
1,1,0.11000,0.49500,-0.59500*
%
%ADD28ROUNDEDRECTD28*%
G04:AMPARAMS|DCode=29|XSize=0.55mm|YSize=0.55mm|CornerRadius=0.0275mm|HoleSize=0mm|Usage=FLASHONLY|Rotation=0.000|XOffset=0mm|YOffset=0mm|HoleType=Round|Shape=RoundedRectangle|*
%AMROUNDEDRECTD29*
21,1,0.55000,0.49500,0,0,0.0*
21,1,0.49500,0.55000,0,0,0.0*
1,1,0.05500,0.24750,-0.24750*
1,1,0.05500,-0.24750,-0.24750*
1,1,0.05500,-0.24750,0.24750*
1,1,0.05500,0.24750,0.24750*
%
%ADD29ROUNDEDRECTD29*%
D11*
X867258Y3150047D02*
D03*
X947258D02*
D03*
X307257D02*
D03*
X387258D02*
D03*
D12*
X802257D02*
D03*
X752258D02*
D03*
X702258D02*
D03*
X452258D02*
D03*
X502258D02*
D03*
X552257D02*
D03*
X602258D02*
D03*
X652258D02*
D03*
D13*
X1367258Y1485047D02*
D03*
D14*
X1127258Y1310047D02*
D03*
Y1360047D02*
D03*
Y1410047D02*
D03*
Y1460047D02*
D03*
Y1510047D02*
D03*
Y1560047D02*
D03*
Y1610047D02*
D03*
Y1660047D02*
D03*
X1607258D02*
D03*
Y1610047D02*
D03*
Y1560047D02*
D03*
Y1510047D02*
D03*
Y1460047D02*
D03*
Y1410047D02*
D03*
Y1360047D02*
D03*
Y1310047D02*
D03*
D15*
X1192258Y1725047D02*
D03*
X1242258D02*
D03*
X1292258D02*
D03*
X1342258D02*
D03*
X1392258D02*
D03*
X1442258D02*
D03*
X1492258D02*
D03*
X1542258D02*
D03*
Y1245047D02*
D03*
X1492258D02*
D03*
X1442258D02*
D03*
X1392258D02*
D03*
X1342258D02*
D03*
X1292258D02*
D03*
X1242258D02*
D03*
X1192258D02*
D03*
D16*
X1502258Y3460047D02*
D03*
Y3410048D02*
D03*
Y3360047D02*
D03*
Y3310047D02*
D03*
Y3260047D02*
D03*
X1927258Y3460047D02*
D03*
Y3410048D02*
D03*
Y3360047D02*
D03*
Y3310047D02*
D03*
Y3260047D02*
D03*
D17*
X1714758Y3360047D02*
D03*
D18*
X467851Y2630354D02*
D03*
X617851D02*
D03*
X2502258Y3260047D02*
D03*
X2352258D02*
D03*
X892850Y2630354D02*
D03*
X742850D02*
D03*
X1327258Y885047D02*
D03*
X1477258D02*
D03*
D19*
X1592758Y3041547D02*
D03*
X1465758D02*
D03*
X1338758D02*
D03*
X1211758D02*
D03*
X1592758Y2378547D02*
D03*
X1465758D02*
D03*
X1338758D02*
D03*
X1211758D02*
D03*
D20*
X352258Y2485047D02*
D03*
X452258D02*
D03*
X352258Y2760047D02*
D03*
X452258D02*
D03*
X2177258Y3735047D02*
D03*
X2077258D02*
D03*
X877258Y785047D02*
D03*
X977258D02*
D03*
X2077257Y3385047D02*
D03*
X2177258D02*
D03*
X1927258Y2535047D02*
D03*
X2027258D02*
D03*
X1877258Y2410047D02*
D03*
X1977258D02*
D03*
X877257Y1360047D02*
D03*
X977257D02*
D03*
X1827258Y1410047D02*
D03*
X1727258D02*
D03*
X1727258Y1810047D02*
D03*
X1627258D02*
D03*
X977258Y910047D02*
D03*
X877258D02*
D03*
X977258Y1035047D02*
D03*
X877258D02*
D03*
X877257Y1235047D02*
D03*
X977257D02*
D03*
D21*
X1327258Y3235047D02*
D03*
Y3335047D02*
D03*
X2052258Y3535047D02*
D03*
Y3635047D02*
D03*
X2177258Y3535047D02*
D03*
Y3635047D02*
D03*
X618111Y2886522D02*
D03*
Y2786522D02*
D03*
X750877Y2887780D02*
D03*
Y2787780D02*
D03*
X1202258Y785047D02*
D03*
Y885047D02*
D03*
X1727258Y2335047D02*
D03*
Y2435047D02*
D03*
X1327258Y3435047D02*
D03*
Y3535047D02*
D03*
X1852258Y885047D02*
D03*
Y985047D02*
D03*
X1727258Y885048D02*
D03*
Y985048D02*
D03*
X1602258D02*
D03*
Y885048D02*
D03*
X1327258Y1110048D02*
D03*
Y1010048D02*
D03*
X1227258Y2135048D02*
D03*
Y2035047D02*
D03*
X1352258Y2135048D02*
D03*
Y2035047D02*
D03*
X1527258Y2135048D02*
D03*
Y2035047D02*
D03*
X1102258Y2135048D02*
D03*
Y2035047D02*
D03*
X752258Y1485047D02*
D03*
Y1585047D02*
D03*
Y1810047D02*
D03*
Y1710047D02*
D03*
X877258Y1485047D02*
D03*
Y1585047D02*
D03*
X1877258Y1860048D02*
D03*
Y1760048D02*
D03*
X2052258Y1535047D02*
D03*
Y1635047D02*
D03*
X1652258Y2135048D02*
D03*
Y2035047D02*
D03*
X1202258Y1110047D02*
D03*
Y1010047D02*
D03*
D22*
X2477258Y2462547D02*
D03*
D23*
X2223258Y3057547D02*
D03*
X2350258D02*
D03*
X2477258D02*
D03*
X2604258D02*
D03*
X2731258D02*
D03*
D24*
X772258Y2190047D02*
D03*
X677257D02*
D03*
X582258D02*
D03*
Y2430047D02*
D03*
X677257D02*
D03*
X772258D02*
D03*
D25*
X2777258Y3560047D02*
D03*
Y3410047D02*
D03*
X2127258Y2260048D02*
D03*
Y2410048D02*
D03*
D26*
X2407258Y3660047D02*
D03*
X2597258D02*
D03*
X1832258Y3035047D02*
D03*
X2022258D02*
D03*
X1832258Y2760047D02*
D03*
X2022258D02*
D03*
D27*
X2362958Y3435047D02*
D03*
X2591558D02*
D03*
D28*
X407258Y1545047D02*
D03*
X597258D02*
D03*
X407258Y1775047D02*
D03*
X597258D02*
D03*
D29*
X1829758Y1632547D02*
D03*
X1924758D02*
D03*
Y1537547D02*
D03*
X1829758D02*
D03*
%TF.MD5,e7f4825ef47176f9f19df83e7618a331*%
M02*
