%TF.GenerationSoftware,Altium Limited,Altium Designer,22.7.1 (60)*%
G04 Layer_Color=8388736*
%FSLAX45Y45*%
%MOMM*%
%TF.SameCoordinates,889419F2-2602-4259-AB3C-8922443444C0*%
%TF.FilePolarity,Negative*%
%TF.FileFunction,Soldermask,Top*%
%TF.Part,Single*%
G01*
G75*
%TA.AperFunction,ComponentPad*%
%ADD60C,1.20000*%
%ADD61O,1.10000X2.30000*%
%ADD62O,1.10000X2.00000*%
%TA.AperFunction,WasherPad*%
%ADD63C,3.20320*%
%TA.AperFunction,ComponentPad*%
%ADD64C,1.72720*%
%ADD65C,2.70320*%
%TA.AperFunction,ConnectorPad*%
%ADD72R,0.88000X1.78000*%
%ADD73R,0.74000X1.64000*%
%ADD74R,0.58000X1.78000*%
%TA.AperFunction,SMDPad,CuDef*%
G04:AMPARAMS|DCode=75|XSize=3.59mm|YSize=3.59mm|CornerRadius=0.2425mm|HoleSize=0mm|Usage=FLASHONLY|Rotation=270.000|XOffset=0mm|YOffset=0mm|HoleType=Round|Shape=RoundedRectangle|*
%AMROUNDEDRECTD75*
21,1,3.59000,3.10500,0,0,270.0*
21,1,3.10500,3.59000,0,0,270.0*
1,1,0.48500,-1.55250,-1.55250*
1,1,0.48500,-1.55250,1.55250*
1,1,0.48500,1.55250,1.55250*
1,1,0.48500,1.55250,-1.55250*
%
%ADD75ROUNDEDRECTD75*%
G04:AMPARAMS|DCode=76|XSize=0.35mm|YSize=0.8mm|CornerRadius=0.0625mm|HoleSize=0mm|Usage=FLASHONLY|Rotation=90.000|XOffset=0mm|YOffset=0mm|HoleType=Round|Shape=RoundedRectangle|*
%AMROUNDEDRECTD76*
21,1,0.35000,0.67500,0,0,90.0*
21,1,0.22500,0.80000,0,0,90.0*
1,1,0.12500,0.33750,0.11250*
1,1,0.12500,0.33750,-0.11250*
1,1,0.12500,-0.33750,-0.11250*
1,1,0.12500,-0.33750,0.11250*
%
%ADD76ROUNDEDRECTD76*%
G04:AMPARAMS|DCode=77|XSize=0.35mm|YSize=0.8mm|CornerRadius=0.0625mm|HoleSize=0mm|Usage=FLASHONLY|Rotation=0.000|XOffset=0mm|YOffset=0mm|HoleType=Round|Shape=RoundedRectangle|*
%AMROUNDEDRECTD77*
21,1,0.35000,0.67500,0,0,0.0*
21,1,0.22500,0.80000,0,0,0.0*
1,1,0.12500,0.11250,-0.33750*
1,1,0.12500,-0.11250,-0.33750*
1,1,0.12500,-0.11250,0.33750*
1,1,0.12500,0.11250,0.33750*
%
%ADD77ROUNDEDRECTD77*%
G04:AMPARAMS|DCode=78|XSize=0.39mm|YSize=1.29mm|CornerRadius=0.12mm|HoleSize=0mm|Usage=FLASHONLY|Rotation=90.000|XOffset=0mm|YOffset=0mm|HoleType=Round|Shape=RoundedRectangle|*
%AMROUNDEDRECTD78*
21,1,0.39000,1.05000,0,0,90.0*
21,1,0.15000,1.29000,0,0,90.0*
1,1,0.24000,0.52500,0.07500*
1,1,0.24000,0.52500,-0.07500*
1,1,0.24000,-0.52500,-0.07500*
1,1,0.24000,-0.52500,0.07500*
%
%ADD78ROUNDEDRECTD78*%
G04:AMPARAMS|DCode=79|XSize=1.7732mm|YSize=2.0832mm|CornerRadius=0.1487mm|HoleSize=0mm|Usage=FLASHONLY|Rotation=0.000|XOffset=0mm|YOffset=0mm|HoleType=Round|Shape=RoundedRectangle|*
%AMROUNDEDRECTD79*
21,1,1.77320,1.78580,0,0,0.0*
21,1,1.47580,2.08320,0,0,0.0*
1,1,0.29740,0.73790,-0.89290*
1,1,0.29740,-0.73790,-0.89290*
1,1,0.29740,-0.73790,0.89290*
1,1,0.29740,0.73790,0.89290*
%
%ADD79ROUNDEDRECTD79*%
G04:AMPARAMS|DCode=80|XSize=1.0032mm|YSize=1.2032mm|CornerRadius=0.2016mm|HoleSize=0mm|Usage=FLASHONLY|Rotation=0.000|XOffset=0mm|YOffset=0mm|HoleType=Round|Shape=RoundedRectangle|*
%AMROUNDEDRECTD80*
21,1,1.00320,0.80000,0,0,0.0*
21,1,0.60000,1.20320,0,0,0.0*
1,1,0.40320,0.30000,-0.40000*
1,1,0.40320,-0.30000,-0.40000*
1,1,0.40320,-0.30000,0.40000*
1,1,0.40320,0.30000,0.40000*
%
%ADD80ROUNDEDRECTD80*%
G04:AMPARAMS|DCode=81|XSize=0.8032mm|YSize=1.9032mm|CornerRadius=0.1766mm|HoleSize=0mm|Usage=FLASHONLY|Rotation=0.000|XOffset=0mm|YOffset=0mm|HoleType=Round|Shape=RoundedRectangle|*
%AMROUNDEDRECTD81*
21,1,0.80320,1.55000,0,0,0.0*
21,1,0.45000,1.90320,0,0,0.0*
1,1,0.35320,0.22500,-0.77500*
1,1,0.35320,-0.22500,-0.77500*
1,1,0.35320,-0.22500,0.77500*
1,1,0.35320,0.22500,0.77500*
%
%ADD81ROUNDEDRECTD81*%
G04:AMPARAMS|DCode=82|XSize=0.8032mm|YSize=0.9032mm|CornerRadius=0.1766mm|HoleSize=0mm|Usage=FLASHONLY|Rotation=180.000|XOffset=0mm|YOffset=0mm|HoleType=Round|Shape=RoundedRectangle|*
%AMROUNDEDRECTD82*
21,1,0.80320,0.55000,0,0,180.0*
21,1,0.45000,0.90320,0,0,180.0*
1,1,0.35320,-0.22500,0.27500*
1,1,0.35320,0.22500,0.27500*
1,1,0.35320,0.22500,-0.27500*
1,1,0.35320,-0.22500,-0.27500*
%
%ADD82ROUNDEDRECTD82*%
G04:AMPARAMS|DCode=83|XSize=0.8032mm|YSize=0.9032mm|CornerRadius=0.1766mm|HoleSize=0mm|Usage=FLASHONLY|Rotation=270.000|XOffset=0mm|YOffset=0mm|HoleType=Round|Shape=RoundedRectangle|*
%AMROUNDEDRECTD83*
21,1,0.80320,0.55000,0,0,270.0*
21,1,0.45000,0.90320,0,0,270.0*
1,1,0.35320,-0.27500,-0.22500*
1,1,0.35320,-0.27500,0.22500*
1,1,0.35320,0.27500,0.22500*
1,1,0.35320,0.27500,-0.22500*
%
%ADD83ROUNDEDRECTD83*%
G04:AMPARAMS|DCode=84|XSize=3.4032mm|YSize=2.3032mm|CornerRadius=0.1541mm|HoleSize=0mm|Usage=FLASHONLY|Rotation=0.000|XOffset=0mm|YOffset=0mm|HoleType=Round|Shape=RoundedRectangle|*
%AMROUNDEDRECTD84*
21,1,3.40320,1.99500,0,0,0.0*
21,1,3.09500,2.30320,0,0,0.0*
1,1,0.30820,1.54750,-0.99750*
1,1,0.30820,-1.54750,-0.99750*
1,1,0.30820,-1.54750,0.99750*
1,1,0.30820,1.54750,0.99750*
%
%ADD84ROUNDEDRECTD84*%
G04:AMPARAMS|DCode=85|XSize=0.8032mm|YSize=2.3032mm|CornerRadius=0.1526mm|HoleSize=0mm|Usage=FLASHONLY|Rotation=0.000|XOffset=0mm|YOffset=0mm|HoleType=Round|Shape=RoundedRectangle|*
%AMROUNDEDRECTD85*
21,1,0.80320,1.99800,0,0,0.0*
21,1,0.49800,2.30320,0,0,0.0*
1,1,0.30520,0.24900,-0.99900*
1,1,0.30520,-0.24900,-0.99900*
1,1,0.30520,-0.24900,0.99900*
1,1,0.30520,0.24900,0.99900*
%
%ADD85ROUNDEDRECTD85*%
G04:AMPARAMS|DCode=86|XSize=0.8032mm|YSize=1.4032mm|CornerRadius=0.1766mm|HoleSize=0mm|Usage=FLASHONLY|Rotation=180.000|XOffset=0mm|YOffset=0mm|HoleType=Round|Shape=RoundedRectangle|*
%AMROUNDEDRECTD86*
21,1,0.80320,1.05000,0,0,180.0*
21,1,0.45000,1.40320,0,0,180.0*
1,1,0.35320,-0.22500,0.52500*
1,1,0.35320,0.22500,0.52500*
1,1,0.35320,0.22500,-0.52500*
1,1,0.35320,-0.22500,-0.52500*
%
%ADD86ROUNDEDRECTD86*%
G04:AMPARAMS|DCode=87|XSize=1.0032mm|YSize=1.2032mm|CornerRadius=0.2016mm|HoleSize=0mm|Usage=FLASHONLY|Rotation=270.000|XOffset=0mm|YOffset=0mm|HoleType=Round|Shape=RoundedRectangle|*
%AMROUNDEDRECTD87*
21,1,1.00320,0.80000,0,0,270.0*
21,1,0.60000,1.20320,0,0,270.0*
1,1,0.40320,-0.40000,-0.30000*
1,1,0.40320,-0.40000,0.30000*
1,1,0.40320,0.40000,0.30000*
1,1,0.40320,0.40000,-0.30000*
%
%ADD87ROUNDEDRECTD87*%
G04:AMPARAMS|DCode=88|XSize=1.2032mm|YSize=1.9032mm|CornerRadius=0.2266mm|HoleSize=0mm|Usage=FLASHONLY|Rotation=0.000|XOffset=0mm|YOffset=0mm|HoleType=Round|Shape=RoundedRectangle|*
%AMROUNDEDRECTD88*
21,1,1.20320,1.45000,0,0,0.0*
21,1,0.75000,1.90320,0,0,0.0*
1,1,0.45320,0.37500,-0.72500*
1,1,0.45320,-0.37500,-0.72500*
1,1,0.45320,-0.37500,0.72500*
1,1,0.45320,0.37500,0.72500*
%
%ADD88ROUNDEDRECTD88*%
G04:AMPARAMS|DCode=89|XSize=1.6032mm|YSize=1.9032mm|CornerRadius=0.2766mm|HoleSize=0mm|Usage=FLASHONLY|Rotation=0.000|XOffset=0mm|YOffset=0mm|HoleType=Round|Shape=RoundedRectangle|*
%AMROUNDEDRECTD89*
21,1,1.60320,1.35000,0,0,0.0*
21,1,1.05000,1.90320,0,0,0.0*
1,1,0.55320,0.52500,-0.67500*
1,1,0.55320,-0.52500,-0.67500*
1,1,0.55320,-0.52500,0.67500*
1,1,0.55320,0.52500,0.67500*
%
%ADD89ROUNDEDRECTD89*%
G04:AMPARAMS|DCode=90|XSize=1.5032mm|YSize=1.3032mm|CornerRadius=0.1566mm|HoleSize=0mm|Usage=FLASHONLY|Rotation=270.000|XOffset=0mm|YOffset=0mm|HoleType=Round|Shape=RoundedRectangle|*
%AMROUNDEDRECTD90*
21,1,1.50320,0.99000,0,0,270.0*
21,1,1.19000,1.30320,0,0,270.0*
1,1,0.31320,-0.49500,-0.59500*
1,1,0.31320,-0.49500,0.59500*
1,1,0.31320,0.49500,0.59500*
1,1,0.31320,0.49500,-0.59500*
%
%ADD90ROUNDEDRECTD90*%
G04:AMPARAMS|DCode=91|XSize=0.7532mm|YSize=0.7532mm|CornerRadius=0.1291mm|HoleSize=0mm|Usage=FLASHONLY|Rotation=0.000|XOffset=0mm|YOffset=0mm|HoleType=Round|Shape=RoundedRectangle|*
%AMROUNDEDRECTD91*
21,1,0.75320,0.49500,0,0,0.0*
21,1,0.49500,0.75320,0,0,0.0*
1,1,0.25820,0.24750,-0.24750*
1,1,0.25820,-0.24750,-0.24750*
1,1,0.25820,-0.24750,0.24750*
1,1,0.25820,0.24750,0.24750*
%
%ADD91ROUNDEDRECTD91*%
%TA.AperFunction,ViaPad*%
%ADD92C,0.90320*%
D60*
X337258Y3275047D02*
D03*
X917258D02*
D03*
D61*
X1059758Y3225047D02*
D03*
X194758D02*
D03*
D62*
Y3645047D02*
D03*
X1059758D02*
D03*
D63*
X400000Y800000D02*
D03*
X2500000D02*
D03*
D64*
X2631258Y1260047D02*
D03*
X2377258D02*
D03*
X2123258D02*
D03*
X2652258Y2164047D02*
D03*
Y1910047D02*
D03*
Y1656047D02*
D03*
D65*
X1427258Y3710047D02*
D03*
X1777258D02*
D03*
D72*
X867258Y3150047D02*
D03*
X387258D02*
D03*
D73*
X947258D02*
D03*
X307257D02*
D03*
D74*
X802257D02*
D03*
X752258D02*
D03*
X702258D02*
D03*
X452258D02*
D03*
X502258D02*
D03*
X552257D02*
D03*
X602258D02*
D03*
X652258D02*
D03*
D75*
X1367258Y1485047D02*
D03*
D76*
X1127258Y1310047D02*
D03*
Y1360047D02*
D03*
Y1410047D02*
D03*
Y1460047D02*
D03*
Y1510047D02*
D03*
Y1560047D02*
D03*
Y1610047D02*
D03*
Y1660047D02*
D03*
X1607258D02*
D03*
Y1610047D02*
D03*
Y1560047D02*
D03*
Y1510047D02*
D03*
Y1460047D02*
D03*
Y1410047D02*
D03*
Y1360047D02*
D03*
Y1310047D02*
D03*
D77*
X1192258Y1725047D02*
D03*
X1242258D02*
D03*
X1292258D02*
D03*
X1342258D02*
D03*
X1392258D02*
D03*
X1442258D02*
D03*
X1492258D02*
D03*
X1542258D02*
D03*
Y1245047D02*
D03*
X1492258D02*
D03*
X1442258D02*
D03*
X1392258D02*
D03*
X1342258D02*
D03*
X1292258D02*
D03*
X1242258D02*
D03*
X1192258D02*
D03*
D78*
X1502258Y3460047D02*
D03*
Y3410048D02*
D03*
Y3360047D02*
D03*
Y3310047D02*
D03*
Y3260047D02*
D03*
X1927258Y3460047D02*
D03*
Y3410048D02*
D03*
Y3360047D02*
D03*
Y3310047D02*
D03*
Y3260047D02*
D03*
D79*
X1714758Y3360047D02*
D03*
D80*
X467851Y2630354D02*
D03*
X617851D02*
D03*
X2502258Y3260047D02*
D03*
X2352258D02*
D03*
X892850Y2630354D02*
D03*
X742850D02*
D03*
X1327258Y885047D02*
D03*
X1477258D02*
D03*
D81*
X1592758Y3041547D02*
D03*
X1465758D02*
D03*
X1338758D02*
D03*
X1211758D02*
D03*
X1592758Y2378547D02*
D03*
X1465758D02*
D03*
X1338758D02*
D03*
X1211758D02*
D03*
D82*
X352258Y2485047D02*
D03*
X452258D02*
D03*
X352258Y2760047D02*
D03*
X452258D02*
D03*
X2177258Y3735047D02*
D03*
X2077258D02*
D03*
X877258Y785047D02*
D03*
X977258D02*
D03*
X2077257Y3385047D02*
D03*
X2177258D02*
D03*
X1927258Y2535047D02*
D03*
X2027258D02*
D03*
X1877258Y2410047D02*
D03*
X1977258D02*
D03*
X877257Y1360047D02*
D03*
X977257D02*
D03*
X1827258Y1410047D02*
D03*
X1727258D02*
D03*
X1727258Y1810047D02*
D03*
X1627258D02*
D03*
X977258Y910047D02*
D03*
X877258D02*
D03*
X977258Y1035047D02*
D03*
X877258D02*
D03*
X877257Y1235047D02*
D03*
X977257D02*
D03*
D83*
X1327258Y3235047D02*
D03*
Y3335047D02*
D03*
X2052258Y3535047D02*
D03*
Y3635047D02*
D03*
X2177258Y3535047D02*
D03*
Y3635047D02*
D03*
X618111Y2886522D02*
D03*
Y2786522D02*
D03*
X750877Y2887780D02*
D03*
Y2787780D02*
D03*
X1202258Y785047D02*
D03*
Y885047D02*
D03*
X1727258Y2335047D02*
D03*
Y2435047D02*
D03*
X1327258Y3435047D02*
D03*
Y3535047D02*
D03*
X1852258Y885047D02*
D03*
Y985047D02*
D03*
X1727258Y885048D02*
D03*
Y985048D02*
D03*
X1602258D02*
D03*
Y885048D02*
D03*
X1327258Y1110048D02*
D03*
Y1010048D02*
D03*
X1227258Y2135048D02*
D03*
Y2035047D02*
D03*
X1352258Y2135048D02*
D03*
Y2035047D02*
D03*
X1527258Y2135048D02*
D03*
Y2035047D02*
D03*
X1102258Y2135048D02*
D03*
Y2035047D02*
D03*
X752258Y1485047D02*
D03*
Y1585047D02*
D03*
Y1810047D02*
D03*
Y1710047D02*
D03*
X877258Y1485047D02*
D03*
Y1585047D02*
D03*
X1877258Y1860048D02*
D03*
Y1760048D02*
D03*
X2052258Y1535047D02*
D03*
Y1635047D02*
D03*
X1652258Y2135048D02*
D03*
Y2035047D02*
D03*
X1202258Y1110047D02*
D03*
Y1010047D02*
D03*
D84*
X2477258Y2462547D02*
D03*
D85*
X2223258Y3057547D02*
D03*
X2350258D02*
D03*
X2477258D02*
D03*
X2604258D02*
D03*
X2731258D02*
D03*
D86*
X772258Y2190047D02*
D03*
X677257D02*
D03*
X582258D02*
D03*
Y2430047D02*
D03*
X677257D02*
D03*
X772258D02*
D03*
D87*
X2777258Y3560047D02*
D03*
Y3410047D02*
D03*
X2127258Y2260048D02*
D03*
Y2410048D02*
D03*
D88*
X2407258Y3660047D02*
D03*
X2597258D02*
D03*
X1832258Y3035047D02*
D03*
X2022258D02*
D03*
X1832258Y2760047D02*
D03*
X2022258D02*
D03*
D89*
X2362958Y3435047D02*
D03*
X2591558D02*
D03*
D90*
X407258Y1545047D02*
D03*
X597258D02*
D03*
X407258Y1775047D02*
D03*
X597258D02*
D03*
D91*
X1829758Y1632547D02*
D03*
X1924758D02*
D03*
Y1537547D02*
D03*
X1829758D02*
D03*
D92*
X1759758Y3420047D02*
D03*
Y3300048D02*
D03*
X1669758D02*
D03*
Y3420047D02*
D03*
%TF.MD5,48e9295c6d57184ca230ef8252291e26*%
M02*
