%TF.GenerationSoftware,Altium Limited,Altium Designer,22.7.1 (60)*%
G04 Layer_Color=255*
%FSLAX45Y45*%
%MOMM*%
%TF.SameCoordinates,1A5FE687-02E9-4ECA-85C8-40D928D14E81*%
%TF.FilePolarity,Positive*%
%TF.FileFunction,Pads,Bot*%
%TF.Part,Single*%
G01*
G75*
%TA.AperFunction,ComponentPad*%
%ADD46C,0.60000*%
%ADD47O,1.00000X2.20000*%
%ADD48O,1.00000X1.90000*%
%TA.AperFunction,WasherPad*%
%ADD49C,3.00000*%
%TA.AperFunction,ComponentPad*%
%ADD50C,1.52400*%
%ADD51C,2.50000*%
%TA.AperFunction,SMDPad,CuDef*%
%ADD53R,1.50000X1.00000*%
%ADD54R,1.00000X1.50000*%
D46*
X337258Y3275047D02*
D03*
X917258D02*
D03*
D47*
X1059758Y3225047D02*
D03*
X194758D02*
D03*
D48*
Y3645047D02*
D03*
X1059758D02*
D03*
D49*
X400000Y800000D02*
D03*
X2500000D02*
D03*
D50*
X2631258Y1260047D02*
D03*
X2377258D02*
D03*
X2123258D02*
D03*
X2652258Y2164047D02*
D03*
Y1910047D02*
D03*
Y1656047D02*
D03*
D51*
X1427258Y3710047D02*
D03*
X1777258D02*
D03*
D53*
X2102258Y1910047D02*
D03*
Y1780047D02*
D03*
Y2080047D02*
D03*
Y2210047D02*
D03*
X2402258Y2080047D02*
D03*
Y2210047D02*
D03*
X2402257Y1910047D02*
D03*
Y1780047D02*
D03*
D54*
X1643042Y1889263D02*
D03*
X1513042D02*
D03*
X1652258Y1085047D02*
D03*
X1782258D02*
D03*
%TF.MD5,0999f46aa4c257aef17ce7ca6b09ace7*%
M02*
